<svg height="461pt" viewBox="-102 0 461 461.78" width="461pt" xmlns="http://www.w3.org/2000/svg"><path d="m216.257812 0h-175.601562c-22.226562.0195312-40.238281 18.03125-40.265625 40.257812v381.261719c.023437 22.222657 18.03125 40.234375 40.253906 40.261719h175.601563c22.222656-.027344 40.230468-18.039062 40.257812-40.261719v-381.261719c-.027344-22.21875-18.027344-40.226562-40.246094-40.257812zm26.257813 421.523438c-.015625 14.496093-11.761719 26.242187-26.257813 26.261718h-175.601562c-14.492188-.019531-26.238281-11.765625-26.253906-26.261718v-381.265626c.015625-14.496093 11.761718-26.242187 26.253906-26.257812h175.601562c14.496094.015625 26.242188 11.761719 26.257813 26.257812zm-77.84375-92.722657v-209.378906c-.210937-19.855469-16.363281-35.835937-36.214844-35.835937-19.855469 0-36.007812 15.980468-36.214843 35.835937v209.359375c-20.136719 15.503906-28.167969 42.101562-19.980469 66.160156 8.1875 24.054688 30.78125 40.230469 56.195312 40.230469 25.410157 0 48.003907-16.175781 56.191407-40.230469 8.191406-24.058594.15625-50.65625-19.976563-66.160156zm-36.21875 92.386719c-19.957031 0-37.570313-13.042969-43.390625-32.132812-5.820312-19.089844 1.523438-39.742188 18.085938-50.875 1.933593-1.300782 3.089843-3.476563 3.089843-5.804688v-212.953125c.164063-12.152344 10.058594-21.917969 22.214844-21.917969 12.152344 0 22.050781 9.765625 22.210937 21.917969v212.953125c0 2.328125 1.160157 4.503906 3.089844 5.804688 16.5625 11.132812 23.90625 31.78125 18.089844 50.871093-5.820312 19.09375-23.433594 32.136719-43.390625 32.136719zm7-78.167969v-121.402343c0-3.867188-3.132813-7-7-7-3.863281 0-7 3.132812-7 7v121.402343c-16.785156 3.582031-28.164063 19.257813-26.363281 36.328125 1.800781 17.070313 16.199218 30.03125 33.363281 30.03125 17.167969 0 31.5625-12.960937 33.363281-30.03125 1.800782-17.070312-9.574218-32.746094-26.363281-36.328125zm-7 52.351563c-10.792969 0-19.539063-8.753906-19.539063-19.546875s8.75-19.539063 19.546876-19.539063c10.792968 0 19.542968 8.75 19.542968 19.542969-.015625 10.789063-8.761718 19.53125-19.550781 19.542969zm-86.097656-296.652344c0-3.863281 3.132812-7 7-7h19.019531c3.863281 0 7 3.136719 7 7 0 3.867188-3.136719 7-7 7h-19.019531c-3.867188 0-7-3.132812-7-7zm0 30.726562c0-3.867187 3.132812-7 7-7h19.019531c3.863281 0 7 3.132813 7 7 0 3.863282-3.136719 7-7 7h-19.019531c-3.867188 0-7-3.136718-7-7zm0 30.722657c0-3.867188 3.132812-7 7-7h19.019531c3.863281 0 7 3.132812 7 7 0 3.867187-3.136719 7-7 7h-19.019531c-3.867188 0-7-3.132813-7-7zm0 30.722656c0-3.863281 3.132812-7 7-7h19.019531c3.863281 0 7 3.136719 7 7 0 3.867187-3.136719 7-7 7h-19.019531c-3.867188 0-7.003907-3.136719-7-7.003906zm0 30.730469c0-3.867188 3.132812-7 7-7h19.019531c3.863281 0 7 3.132812 7 7 0 3.863281-3.136719 7-7 7h-19.019531c-3.867188 0-7.003907-3.136719-7-7.003906zm0 30.722656c0-3.867188 3.132812-7 7-7h19.019531c3.863281 0 7 3.132812 7 7s-3.136719 7-7 7h-19.019531c-1.859375 0-3.640625-.738281-4.953125-2.054688-1.3125-1.3125-2.050782-3.09375-2.046875-4.953124zm0 30.722656c0-3.863281 3.132812-7 7-7h19.019531c3.863281 0 7 3.136719 7 7 0 3.867188-3.136719 7-7 7h-19.019531c-1.859375 0-3.640625-.738281-4.953125-2.050781-1.3125-1.316406-2.050782-3.097656-2.046875-4.957031zm26 37.730469h-19c-3.867188 0-7-3.136719-7-7 0-3.867187 3.132812-7 7-7h19.019531c3.863281 0 7 3.132813 7 7 0 3.863281-3.136719 7-7 7zm132.25-246.402344c-13.4375 0-24.332031 10.894531-24.332031 24.332031 0 13.441407 10.894531 24.332032 24.332031 24.332032s24.332031-10.890625 24.332031-24.332032c-.007812-13.425781-10.882812-24.3125-24.3125-24.339843zm0 34.660157c-5.707031 0-10.332031-4.625-10.332031-10.332032 0-5.707031 4.628906-10.332031 10.335937-10.332031 5.707031.003906 10.332031 4.628906 10.328125 10.335937-.011719 5.691407-4.621094 10.304688-10.3125 10.320313zm-96.988281-58.097657c8.261718.0625 15.0625-6.480469 15.3125-14.738281-.296876-8.226562-7.054688-14.746094-15.289063-14.746094s-14.992187 6.519532-15.289063 14.746094c.25 8.242188 7.023438 14.777344 15.265626 14.738281zm0-23.007812c3.382812-.113281 6.496093 1.839843 7.867187 4.933593 1.367187 3.09375.722656 6.710938-1.632813 9.140626-2.355468 2.429687-5.953124 3.183593-9.085937 1.90625-3.136719-1.273438-5.179687-4.324219-5.171875-7.710938.003906-4.46875 3.554688-8.128906 8.023438-8.269531zm19.480468 21.738281c.445313-14.097656 12.050782-25.269531 26.15625-25.179688 7.332032.015626 14.332032 3.039063 19.367188 8.367188l-8.867188 7.878906c-2.527344-3.25-6.386718-5.179687-10.5-5.25-7.667968.257813-13.75 6.546875-13.75 14.21875s6.082032 13.964844 13.75 14.222656c4.132813-.070312 8.019532-1.996093 10.570313-5.25l8.800781 7.800782c-5.007812 5.375-12.019531 8.433594-19.367188 8.441406-14.121093.054688-25.71875-11.140625-26.160156-25.253906zm0 0"/></svg>