<svg height="448pt" viewBox="-51 0 448 448.96416" width="448pt" xmlns="http://www.w3.org/2000/svg"><path d="m278.375 312.882812c-9.5625.003907-19.015625 2.035157-27.734375 5.960938-8.664063-23.675781-26.207031-43.046875-48.917969-54l-7.160156-47.066406c6.761719 1.09375 13.601562 1.644531 20.453125 1.652344 33.789063.089843 66.210937-13.339844 90.039063-37.296876 1.316406-1.3125 2.054687-3.09375 2.054687-4.949218 0-1.859375-.738281-3.640625-2.054687-4.953125l-69.363282-69.347657 36.089844-42.691406c1.496094.242188 3.011719.367188 4.53125.375 16.4375-.003906 29.757812-13.335937 29.75-29.773437-.003906-16.433594-13.332031-29.757813-29.769531-29.753907-16.4375.003907-29.757813 13.332032-29.757813 29.769532.011719 1.519531.136719 3.039062.375 4.539062l-42.679687 36.082032-69.359375-69.378907c-1.3125-1.3125-3.09375-2.050781-4.949219-2.050781s-3.636719.738281-4.949219 2.050781c-49.652344 49.761719-49.652344 130.324219 0 180.085938 3.320313 3.3125 6.820313 6.441406 10.484375 9.371093l-10.675781 70.175782c-30.914062 11.90625-53.601562 38.769531-60.167969 71.238281-2.125-.25-4.261719-.375-6.402343-.378906-31.960938.265625-57.730469 26.25-57.730469 58.210937 0 31.960938 25.769531 57.945313 57.730469 58.210938h220.164062c37.582031 0 68.046875-30.46875 68.046875-68.046875 0-37.582031-30.464844-68.050781-68.046875-68.050781zm-13.199219-293.234374c5.460938-5.519532 14.121094-6.242188 20.425781-1.710938 6.300782 4.53125 8.371094 12.972656 4.875 19.90625-3.492187 6.933594-11.507812 10.292969-18.902343 7.925781-.046875 0-.089844-.050781-.140625-.070312-2.335938-.734375-4.46875-2.007813-6.222656-3.71875l-.035157-.03125-.035156-.046875c-1.714844-1.75-2.992187-3.878906-3.730469-6.21875-.019531-.0625-.0625-.121094-.085937-.183594-1.867188-5.585938-.378907-11.75 3.828125-15.871094zm-12.519531 29.199218c.039062.050782.089844.097656.132812.152344.757813.984375 1.574219 1.917969 2.445313 2.800781l.046875.046875c.03125.03125.070312.058594.105469.09375.863281.84375 1.78125 1.640625 2.742187 2.375.058594.042969.109375.105469.171875.148438l-32.515625 38.46875-11.601562-11.601563zm-122.585938-31.796875 13.0625 13.0625c-32.449218 37.664063-30.398437 93.964844 4.699219 129.171875 2.734375 2.734375 7.164063 2.734375 9.898438 0s2.734375-7.167968 0-9.902344c-29.648438-29.738281-31.6875-77.191406-4.699219-109.363281l137.023438 137.015625c-20.671876 18.371094-47.386719 28.480469-75.042969 28.402344-9.125 0-18.21875-1.089844-27.085938-3.253906-.042969 0-.074219-.039063-.117187-.046875-14.699219-3.609375-28.515625-10.160157-40.617188-19.253907-.027344-.019531-.0625-.03125-.09375-.050781-4.316406-3.242187-8.40625-6.785156-12.226562-10.605469-42.265625-42.367187-44.367188-110.273437-4.800782-155.175781zm9.542969 240.234375 8.628907-56.753906c4.914062 3.035156 10.027343 5.730469 15.308593 8.0625l.054688.023438c5.289062 2.335937 10.738281 4.308593 16.300781 5.894531l6.769531 44.496093c-.9375-.273437-1.882812-.472656-2.828125-.714843-.875-.230469-1.75-.464844-2.636718-.667969-1.5625-.359375-3.140626-.652344-4.71875-.933594-.78125-.140625-1.550782-.300781-2.335938-.398437-1.742188-.265625-3.488281-.453125-5.246094-.621094-.667968-.0625-1.324218-.160156-2-.210937-2.425781-.183594-4.867187-.289063-7.324218-.289063-2.453126 0-4.96875.132813-7.453126.328125-.648437.046875-1.296874.09375-1.941406.15625-2.070312.207031-4.132812.484375-6.195312.824219-1.199219.195312-2.402344.433593-3.601563.671875-.246093.042968-.519531.082031-.78125.132812zm138.761719 177.675782h-220.164062c-17.121094.085937-32.753907-9.71875-40.128907-25.167969-7.375-15.453125-5.164062-33.773438 5.671875-47.03125 10.839844-13.253907 28.355469-19.058594 44.964844-14.902344 1.945312.476563 3.996094.09375 5.644531-1.042969 1.644531-1.136718 2.726563-2.921875 2.96875-4.910156 3.9375-31.761719 25.824219-58.417969 56.214844-68.460938 2.25-.746093 4.511719-1.386718 6.800781-1.933593l.863282-.226563c2.046874-.472656 4.101562-.84375 6.15625-1.15625.628906-.09375 1.257812-.183594 1.886718-.265625 1.714844-.21875 3.425782-.367187 5.136719-.480469 1.003906-.0625 2-.109374 3.019531-.136718 1.488282-.042969 2.96875-.042969 4.449219 0 .980469.027344 1.960937.0625 2.9375.121094 1.402344.089843 2.796875.226562 4.199219.402343 1.027344.113281 2.054687.230469 3.074218.398438 1.386719.210937 2.761719.480469 4.132813.761719.976563.199218 1.957031.398437 2.925781.617187 1.492188.367187 2.960938.800781 4.433594 1.246094.800781.242187 1.625.457031 2.402344.722656 1.941406.65625 3.863281 1.398437 5.761718 2.199219 22.058594 9.285156 39.023438 27.648437 46.535157 50.371094-21.433594 16.351562-21.699219 44.105468-21.699219 45.359374 0 3.863282 3.136719 7 7 7 3.867188 0 7-3.136718 7-7 0-.25.226562-24.898437 19.519531-36.492187l.039063-.027344h.027344c19.511718-11.972656 44.449218-10.347656 62.242187 4.054688 17.792969 14.402343 24.574219 38.457031 16.929687 60.035156-7.644531 21.574219-28.058593 35.992187-50.949218 35.980469zm0 0"/></svg>