<svg height="444pt" viewBox="0 -112 444.53238 444" width="444pt" xmlns="http://www.w3.org/2000/svg"><path d="m401.457031 105.402344c.035157-.859375.058594-1.699219.058594-2.53125-.046875-39.480469-32.039063-71.476563-71.523437-71.519532-13.765626-.050781-27.242188 3.929688-38.777344 11.441407-24.832032-31.980469-65.230469-47.730469-105.15625-40.996094-39.925782 6.734375-72.925782 34.863281-85.894532 73.222656-8.113281-2.957031-16.683593-4.46875-25.316406-4.457031-41.339844 0-74.847656 33.511719-74.847656 74.847656 0 41.335938 33.507812 74.84375 74.847656 74.84375h311.199219c29.289063.015625 54.070313-21.648437 57.964844-50.679687 3.898437-29.03125-14.292969-56.464844-42.554688-64.171875zm-15.433593 100.855468h-311.203126c-33.601562 0-60.84375-27.242187-60.84375-60.84375 0-33.605468 27.242188-60.847656 60.84375-60.847656 7.523438.019532 14.976563 1.457032 21.964844 4.238282-2.535156 15.988281-1.566406 32.339843 2.839844 47.917968 1.226562 3.667969 5.191406 5.648438 8.859375 4.421875 3.667969-1.226562 5.648437-5.191406 4.421875-8.859375-4.039062-15.074218-4.535156-30.882812-1.449219-46.183594 9.488281-36.5 39.476563-64.0625 76.648438-70.445312 37.167969-6.382812 74.632812 9.597656 95.753906 40.847656 1.097656 1.613282 2.820313 2.699219 4.75 2.988282 1.933594.292968 3.898437-.238282 5.421875-1.460938 10.171875-8.230469 22.871094-12.703125 35.953125-12.664062 16.546875-.113282 32.332031 6.953124 43.269531 19.371093 10.933594 12.417969 15.949219 28.96875 13.742188 45.367188-.472656 3.757812 2.128906 7.210937 5.875 7.792969 22.921875 3.59375 39.226562 24.214843 37.433594 47.347656-1.792969 23.132812-21.078126 40.996094-44.28125 41.011718zm0 0"/></svg>