<svg height="472pt" viewBox="0 -91 472.18013 472" width="472pt" xmlns="http://www.w3.org/2000/svg"><path d="m426.335938 121.6875c.050781-1.035156.074218-2.042969.074218-3.035156-.046875-41.773438-33.894531-75.621094-75.667968-75.667969-14.703126-.054687-29.097657 4.238281-41.375 12.335937-33.019532-42.941406-91.304688-57.410156-140.570313-34.898437-13.898437-15.792969-35.066406-23.140625-55.761719-19.351563-20.695312 3.785157-37.886718 18.152344-45.292968 37.847657-17.132813-3.984375-34.902344 3.359375-44.222657 18.277343-9.320312 14.921876-8.128906 34.113282 2.96875 47.761719-24.523437 21.84375-33 56.570313-21.292969 87.257813 11.703126 30.683594 41.15625 50.945312 73.996094 50.902344h69.417969c-.046875.828124-.125 1.644531-.125 2.484374.027344 25.027344 20.308594 45.308594 45.335937 45.335938h158.992188c28.019531-.046875 51.925781-20.289062 56.585938-47.917969.328124.054688.65625.089844.984374.097657 31.015626.019531 57.230469-22.96875 61.269532-53.714844 4.042968-30.75-15.347656-59.726563-45.3125-67.722656zm-395.066407-42.644531c0-15.023438 12.175781-27.199219 27.199219-27.199219 2.070312.003906 4.136719.25 6.152344.730469-.992188 6.683593-.617188 13.496093 1.097656 20.03125.957031 2.816406 3.605469 4.707031 6.578125 4.695312 2.234375.003907 4.335937-1.058593 5.660156-2.855469 1.324219-1.800781 1.710938-4.121093 1.046875-6.253906-3.675781-19.609375 5.804688-39.332031 23.40625-48.714844 17.605469-9.382812 39.261719-6.253906 53.488282 7.730469-23.320313 14.332031-40.839844 36.425781-49.480469 62.398438-22.746094-8.417969-48.105469-5.84375-68.699219 6.976562-4.167969-4.894531-6.453125-11.113281-6.449219-17.539062zm321.542969 197.90625h-158.992188c-12.265624.039062-23.425781-7.085938-28.554687-18.230469-5.132813-11.140625-3.289063-24.253906 4.714844-33.546875 8.003906-9.296875 20.695312-13.070313 32.476562-9.652344 1.976563.566407 4.105469.234375 5.816407-.90625 1.710937-1.140625 2.835937-2.980469 3.070312-5.023437 3.082031-26.730469 23.496094-48.1875 50.042969-52.59375 26.542969-4.410156 52.796875 9.292968 64.355469 33.589844l.03125.046874.023437.070313c3.949219 9.324219 5.410156 19.511719 4.238281 29.570313-.539062 3.828124 2.128906 7.371093 5.957032 7.910156 3.828124.539062 7.367187-2.128906 7.90625-5.957032 1.179687-10.246093.277343-20.625-2.65625-30.511718 3.761718-1.074219 7.652343-1.628906 11.566406-1.644532 23.992187 0 43.441406 19.449219 43.441406 43.441407 0 23.992187-19.449219 43.441406-43.441406 43.441406zm57.570312-47.832031c-.117187 0-.230468.03125-.347656.039062-2.292968-29.921875-27.214844-53.042969-57.222656-53.089844-5.9375-.003906-11.839844.921875-17.492188 2.75-15.496093-26.351562-45.542968-40.527344-75.734374-35.726562-30.1875 4.800781-54.359376 27.601562-60.914063 57.457031-1.609375-.179687-3.230469-.269531-4.851563-.269531-18.652343.027344-35.390624 11.46875-42.1875 28.839844h-72.441406c-36.007812 0-65.199218-29.191407-65.199218-65.199219 0-36.007813 29.191406-65.199219 65.199218-65.199219 8.183594.023438 16.289063 1.613281 23.875 4.683594-2.753906 17.054687-1.746094 34.507812 2.949219 51.132812 1.226563 3.667969 5.191406 5.644532 8.859375 4.421875 3.667969-1.226562 5.644531-5.191406 4.421875-8.859375-4.332031-16.117187-4.867187-33.019531-1.566406-49.378906 7.277343-28.09375 26.140625-51.777344 51.890625-65.160156.128906-.054688.257812-.128906.398437-.191406 46.167969-23.898438 102.914063-9.425782 132 33.664062 1.097657 1.617188 2.820313 2.703125 4.753907 2.992188 1.933593.289062 3.898437-.242188 5.421874-1.464844 10.902344-8.828125 24.515626-13.625 38.542969-13.578125 17.742188-.121094 34.660157 7.457031 46.386719 20.769531 11.726562 13.316406 17.101562 31.058594 14.742188 48.640625-.46875 3.757813 2.132812 7.207031 5.871093 7.789063 24.679688 3.8125 42.253907 25.992187 40.324219 50.886718-1.929688 24.894532-22.714844 44.101563-47.683594 44.0625zm0 0"/></svg>