<svg height="493pt" viewBox="0 -75 493.684 493" width="493pt" xmlns="http://www.w3.org/2000/svg"><path d="m429.191406 186.058594c-6.765625 0-13.488281 1.078125-19.914062 3.199218-6.425782-106.359374-94.722656-189.2343745-201.277344-188.914062-1.035156 0-2.070312 0-3.109375.03125-1.035156.03125-2.070313-.03125-3.101563-.03125-111.398437.117188-201.671874 90.390625-201.789062 201.789062.0273438 3.863282 3.171875 6.980469 7.035156 6.976563h97.339844c3.867188 0 7-3.132813 7-7 .0625-49.898437 40.5-90.335937 90.402344-90.398437.886718 0 1.761718 0 2.644531.050781.304687.019531.613281.019531.917969 0 .882812-.054688 1.761718-.054688 2.648437-.050781 24.332031-.03125 47.640625 9.792968 64.605469 27.238281-10.410156 5.957031-19.585938 13.839843-27.046875 23.230469-19.011719-11.875-42.96875-12.492188-62.566406-1.617188-19.597657 10.875-31.75 31.535156-31.734375 53.949219v1.34375c-21.226563 6.164062-35.992188 25.40625-36.449219 47.507812-.457031 22.101563 13.496094 41.9375 34.449219 48.976563-.082032.628906-.132813 1.261718-.148438 1.894531-.09375 16.042969 12.761719 29.164063 28.804688 29.390625 16.042968.230469 29.269531-12.519531 29.632812-28.558594h78.601563c0 16.128906 13.074219 29.199219 29.199219 29.199219s29.199218-13.070313 29.199218-29.199219h84.644532c35.625 0 64.503906-28.878906 64.503906-64.503906s-28.878906-64.503906-64.503906-64.503906zm-227.402344-171.714844c.957032 0 1.910157 0 2.867188.03125h.476562c.960938-.03125 1.914063-.027344 2.871094-.03125 87.277344-.273438 163.144532 59.835938 182.84375 144.859375-.171875-.199219-.355468-.398437-.53125-.589844-.261718-.292969-.527344-.582031-.800781-.875-1.355469-1.515625-2.757813-2.984375-4.207031-4.398437l-.34375-.34375c-6.070313-5.894532-12.910156-10.9375-20.332032-14.992188-26-63.632812-87.910156-105.207031-156.648437-105.199218-1.035156 0-2.074219 0-3.109375.03125s-2.070312-.03125-3.101562-.03125c-90.773438.007812-165.386719 71.609374-169.132813 162.304687h-18.511719c3.882813-100.863281 86.722656-180.660156 187.660156-180.765625zm-109.820312 77.96875c29.0625-29.226562 68.605469-45.609375 109.820312-45.496094.957032 0 1.910157 0 2.867188.03125h.476562c.960938-.03125 1.914063-.035156 2.871094-.03125 57.816406.03125 110.835938 32.148438 137.644532 83.371094-1.292969-.371094-2.597657-.699219-3.90625-1.019531l-.453126-.113281c-.949218-.222657-1.898437-.433594-2.855468-.625l-.324219-.0625c-1.246094-.25-2.492187-.492188-3.753906-.691407l-.429688-.0625c-.941406-.140625-1.890625-.269531-2.839843-.398437l-.367188-.050782c-.980469-.117187-1.964844-.207031-2.949219-.292968-.542969-.046875-1.085937-.097656-1.628906-.132813-.875-.058593-1.75-.117187-2.632813-.15625h-.722656l-.800781-.019531c-25.804687-39.300781-70.097656-62.464844-117.097656-61.238281-1.035157-.03125-2.070313-.03125-3.101563-.03125-72.8125.089843-132.839844 57.109375-136.664062 129.816406h-18.496094c1.632812-38.75 17.828125-75.460937 45.34375-102.796875zm138.046875 7.734375c-7.230469-1.550781-14.605469-2.328125-22-2.328125-1.035156 0-2.070313 0-3.109375.054688-1.035156-.050782-2.070312-.054688-3.101562-.054688-54.921876.054688-100.4375 42.597656-104.195313 97.390625h-18.46875c3.792969-64.976563 57.558594-115.75 122.648437-115.828125.964844 0 1.917969 0 2.878907.03125h.449219c.960937-.035156 1.945312-.046875 2.882812-.03125 38.292969-.113281 74.417969 17.742188 97.585938 48.230469-.238282.035156-.464844.082031-.699219.125-.683594.105469-1.367188.203125-2.046875.320312-.472656.085938-.945313.191407-1.414063.28125-.601562.117188-1.199219.238281-1.792969.367188-.988281.214843-1.976562.441406-2.957031.683593-.644531.160157-1.292969.324219-1.933593.5-.367188.101563-.734376.191407-1.097657.292969-.65625.1875-1.304687.402344-1.953125.59375-.648437.191407-1.371094.429688-2.050781.660157-.980469.324218-1.953125.664062-2.917969 1.023437-.230468.082031-.464844.15625-.695312.242187l-.125.046876c-14.683594-16.535157-34.261719-27.957032-55.882813-32.601563zm-51.667969 229.433594c-8.414062-.011719-15.230468-6.832031-15.238281-15.246094.113281-1.519531.445313-3.015625.988281-4.445313.03125-.078124.074219-.148437.101563-.234374.699219-2.011719 1.5-3.988282 2.402343-5.917969.199219-.4375.398438-.867188.609376-1.3125.308593-.644531.625-1.292969.949218-1.945313.40625-.800781.828125-1.625 1.273438-2.472656.277344-.53125.550781-1.0625.839844-1.597656.335937-.625.699218-1.273438 1.050781-1.910156 2.355469-4.234376 4.851562-8.371094 7.015625-11.804688 2.070312 3.292969 4.457031 7.226562 6.71875 11.269531.519531.929688 1.050781 1.867188 1.535156 2.777344.160156.296875.308594.59375.464844.894531.578125 1.089844 1.128906 2.164063 1.644531 3.199219.269531.539063.519531 1.074219.773437 1.601563.296876.613281.570313 1.199218.839844 1.800781.421875.941406.835938 1.878906 1.199219 2.773437l.054687.140625c.433594 1.085938.800782 2.132813 1.128907 3.121094l.03125.0625c.464843 1.289063.75 2.636719.84375 4-.007813 8.410156-6.816407 15.226563-15.226563 15.246094zm137 0c-8.414062-.011719-15.234375-6.832031-15.242187-15.246094.097656-1.367187.382812-2.710937.847656-4l.027344-.058594c.308593-.972656.683593-2 1.105469-3.0625l.117187-.296875c.335937-.835937.722656-1.710937 1.117187-2.589844.316407-.691406.640626-1.394531.992188-2.125.195312-.398437.398438-.796874.59375-1.234374.613281-1.230469 1.265625-2.5 1.957031-3.808594l.140625-.269532c.71875-1.347656 1.492188-2.734374 2.285156-4.132812 2.058594-3.621094 4.1875-7.105469 6.054688-10.074219 1.941406 3.082031 4.152344 6.722657 6.289062 10.488281.695313 1.238282 1.378907 2.464844 2 3.660157.089844.171875.175782.339843.265626.507812.652343 1.226563 1.265624 2.421875 1.839843 3.582031.230469.457032.445313.914063.660157 1.367188.332031.691406.640624 1.355469.941406 2 .398437.890625.800781 1.78125 1.132812 2.632812l.113282.269532c.421874 1.066406.796874 2.097656 1.105468 3.070312l.027344.054688c.464844 1.289062.75 2.632812.847656 4 .003906 8.414062-6.804687 15.242187-15.21875 15.265625zm113.84375-28.402344h-87.945312c-.796875-1.890625-1.679688-3.851563-2.644532-5.835937-5.144531-10.191407-10.992187-20.015626-17.496093-29.394532-1.308594-1.890625-3.460938-3.015625-5.757813-3.015625s-4.449218 1.125-5.753906 3.015625c-7.132812 10.222656-13.429688 21.003906-18.835938 32.234375-.464843 1.011719-.90625 2-1.308593 3h-85.203125c-.398438-.984375-.847656-2-1.304688-3-5.410156-11.230469-11.707031-22.011719-18.835937-32.234375-1.375-1.785156-3.503907-2.832031-5.757813-2.832031s-4.378906 1.046875-5.753906 2.832031c-6.644531 9.574219-12.59375 19.613282-17.800781 30.039063-.160157.335937-.316407.667969-.472657 1-.234374.511719-.480468 1.023437-.703124 1.527343-.089844.191407-.183594.402344-.269532.585938-15.871094-5.523438-25.941406-21.148438-24.410156-37.882812 1.527344-16.734376 14.261719-30.277344 30.871094-32.832032 3.742187-.578125 6.34375-4.03125 5.871094-7.789062-2.464844-19.269532 7.019531-38.101563 23.964843-47.59375 16.949219-9.492188 37.960938-7.742188 53.101563 4.425781 1.527344 1.222656 3.492187 1.753906 5.425781 1.464844 1.929687-.292969 3.65625-1.375 4.753906-2.992188 8.425781-12.4375 20.164063-22.269531 33.890625-28.378906.125-.054687.25-.089844.378906-.148437 2.300782-1.011719 4.632813-1.914063 6.996094-2.703126l.335938-.117187c1.484375-.480469 3-.839844 4.507812-1.234375.941406-.246094 1.867188-.542969 2.800782-.761719l.832031-.183593c1.835937-.398438 3.699219-.667969 5.566406-.925782.6875-.097656 1.363281-.25 2.054687-.324218 2.09375-.238282 4.214844-.328126 6.339844-.402344.917969-.03125 1.828125-.140625 2.75-.140625 2.054688 0 4.082032.101562 6.101563.253906.507812.039063 1.015625.089844 1.523437.136719l.453125.054687c1.515625.152344 3.023438.335938 4.519531.574219.359376.054688.71875.097656 1.074219.160156.355469.058594.59375.121094.890625.179688 1.597656.292968 3.199219.625 4.746094 1.011718.800781.199219 1.601562.425782 2.367188.652344.949218.265625 1.882812.546875 2.800781.847656 1.078125.347657 2.152343.699219 3.199219 1.09375.238281.089844.46875.191407.707031.277344 2.800781 1.066406 5.542969 2.289063 8.210937 3.65625.035156 0 .074219.019532.117188.039063.449218.234375.925781.433593 1.375.675781.234375.128906.464844.269531.699218.402344 1.632813.898437 3.234376 1.855468 4.800782 2.863281.308594.199219.605468.398437.910156.617187 1.445312.957032 2.855469 1.960938 4.238281 3.011719.421875.324219.839844.667969 1.257813 1 1.199218.949219 2.367187 1.9375 3.511718 2.953125.570313.507813 1.121094 1.039063 1.675782 1.5625.925781.875 1.828125 1.769532 2.714844 2.683594.710937.742188 1.40625 1.503906 2.085937 2.28125.652344.730469 1.289063 1.472656 1.914063 2.230469.839843 1.023437 1.65625 2.070312 2.449218 3.136719.398438.53125.789063 1.066406 1.171875 1.597656.933594 1.328125 1.835938 2.679687 2.695313 4.074218.191406.308594.375.613282.5625.925782.972656 1.628906 1.898437 3.289062 2.757812 4.996094l.144532.289062c1.910156 3.832031 3.515624 7.808594 4.800781 11.890625v.042969c.402343 1.285156.832031 2.5625 1.175781 3.882812 2.570312 12.769532 2.15625 25.957032-1.199219 38.542969-.832031 2.382813-.320312 5.027344 1.339844 6.925781 1.664063 1.898438 4.21875 2.753906 6.6875 2.242188 2.46875-.511719 4.472656-2.3125 5.246094-4.714844 3.699219-13.097656 4.566406-26.828125 2.550781-40.289062 5.578125-2.105469 11.492188-3.191407 17.457031-3.199219 27.890625 0 50.503907 22.613281 50.503907 50.503906 0 27.894531-22.613282 50.503906-50.503907 50.503906zm0 0"/></svg>