<svg height="462pt" viewBox="0 -84 462.33618 462" width="462pt" xmlns="http://www.w3.org/2000/svg"><path d="m462.335938 148.570312c-.054688-48.019531-38.96875-86.933593-86.988282-86.988281-10.582031-.007812-21.078125 1.941407-30.953125 5.757813-20.289062-42.6875-64.148437-69.097656-111.367187-67.0625s-88.644532 32.117187-105.1875 76.394531c-26.339844 1.664063-50.113282 16.355469-63.386719 39.167969-1.34375-.101563-2.628906-.152344-3.902344-.152344-33.101562 0-59.933593 26.832031-59.933593 59.933594 0 33.101562 26.832031 59.9375 59.933593 59.9375h104.453125c-.105468 1.363281-.207031 2.730468-.207031 4.125.03125 29.605468 24.023437 53.59375 53.628906 53.628906h176.859375c18.050782.035156 34.40625-10.628906 41.664063-27.15625 7.257812-16.527344 4.035156-35.785156-8.207031-49.054688 21.234374-16.386718 33.648437-41.710937 33.59375-68.53125zm-294.347657 72.972657h-107.433593c-17.3125.144531-33.234376-9.460938-41.1875-24.839844-7.949219-15.382813-6.574219-33.925781 3.550781-47.96875 10.128906-14.042969 27.292969-21.195313 44.398437-18.503906 2.976563.441406 5.902344-1.074219 7.261719-3.761719 9.613281-19.132812 28-32.335938 49.203125-35.332031-3.285156 16.175781.242188 32.992187 9.746094 46.484375 2.421875 2.984375 6.796875 3.453125 9.792968 1.046875 3-2.417969 3.496094-6.796875 1.113282-9.820313-.554688-.703125-13.371094-17.390625-4.910156-43.175781 13.53125-41.4375 51.53125-69.984375 95.09375-71.445313 43.566406-1.457031 83.390624 24.480469 99.667968 64.914063.722656 1.796875 2.15625 3.214844 3.960938 3.914063 1.804687.699218 3.816406.617187 5.5625-.21875 9.828125-4.769532 20.613281-7.25 31.539062-7.25 31.792969-.023438 59.9375 20.550781 69.5625 50.855468 9.621094 30.300782-1.492187 63.34375-27.472656 81.667969l-.117188-.058594c-.824218-.460937-1.683593-.863281-2.539062-1.273437-.429688-.203125-.847656-.425782-1.28125-.613282-.894531-.402343-1.816406-.730468-2.738281-1.066406-.402344-.144531-.800781-.304687-1.203125-.433594-.953125-.316406-1.933594-.585937-2.917969-.835937-.402344-.101563-.78125-.214844-1.171875-.300781-.949219-.222656-1.914062-.402344-2.882812-.554688-.476563-.074218-.953126-.15625-1.429688-.21875-.878906-.117187-1.765625-.199218-2.65625-.257812-.628906-.046875-1.257812-.078125-1.882812-.097656-.453126 0-.894532-.066407-1.34375-.066407-.308594 0-.613282.042969-.921876.050781-.964843 0-1.921874.078126-2.882812.160157-.566406.046875-1.132812.074219-1.695312.144531-1.53125.175781-3.050782.4375-4.554688.773438-4.789062-36.480469-34.015625-64.894532-70.617188-68.652344-36.605468-3.757813-70.996093 18.125-83.097656 52.875-4.28125-1.082032-8.679687-1.628906-13.097656-1.625-1.679688 0-3.335938.101562-4.980469.25-.480469.046875-.957031.113281-1.433593.167968-1.210938.144532-2.410157.328126-3.601563.554688-.453125.085938-.910156.171875-1.367187.269531-1.429688.3125-2.839844.671875-4.226563 1.089844-.136719.039063-.277344.070313-.402344.117187-3.242187 1.015626-6.378906 2.34375-9.367187 3.957032l-.34375.191406c-5.910156 3.230469-11.152344 7.550781-15.457032 12.734375l-.351562.425781c-.910156 1.125-1.777344 2.285156-2.601562 3.480469-.144532.210937-.296876.402344-.441407.625-.875 1.316406-1.710937 2.664063-2.472656 4.0625-.289063.53125-.527344 1.082031-.800781 1.601563-.398438.800781-.796875 1.601562-1.15625 2.398437-.398438.90625-.753906 1.832031-1.105469 2.761719-.089844.28125-.207031.539062-.308594.796875zm227.296875 57.75h-176.859375c-14.214843-.011719-27.335937-7.640625-34.375-19.988281-7.035156-12.351563-6.917969-27.527344.316407-39.761719.351562-.597657.695312-1.199219 1.078124-1.773438.203126-.308593.425782-.59375.632813-.894531.519531-.730469 1.042969-1.449219 1.601563-2.140625.171874-.210937.351562-.398437.523437-.625.648437-.761719 1.316406-1.507813 2-2.21875l.402344-.398437c.796875-.800782 1.625-1.546876 2.488281-2.265626l.191406-.164062c2.898438-2.382812 6.117188-4.34375 9.566406-5.820312.183594-.078126.375-.148438.5625-.222657.917969-.378906 1.851563-.71875 2.800782-1.023437.335937-.109375.679687-.210938 1.019531-.308594.824219-.246094 1.660156-.457031 2.507813-.644531.402343-.089844.800781-.179688 1.203124-.257813.851563-.164062 1.714844-.285156 2.582032-.398437.375-.046875.753906-.109375 1.132812-.144531 1.238282-.117188 2.492188-.191407 3.765625-.191407 1.269531 0 2.589844.0625 3.875.1875 1.988281.210938 3.953125.574219 5.886719 1.085938-3.957031 27.09375 9.75 40.339843 10.402344 40.929687 2.820312 2.640625 7.25 2.492188 9.890625-.328125 2.640625-2.824219 2.496093-7.253906-.328125-9.894531-.105469-.101562-10.503906-10.621094-5.144532-33.789062 7.832032-32.019532 38.269532-53.207032 71.015626-49.433594 32.746093 3.773437 57.566406 31.328125 57.910156 64.289062.023437 2.386719 1.265625 4.59375 3.289062 5.859375 2.023438 1.265625 4.550782 1.414063 6.710938.394531 1.210937-.566406 2.457031-1.054687 3.734375-1.460937.226562-.078125.464843-.128906.695312-.195313 1.09375-.328124 2.199219-.59375 3.320313-.800781l.511718-.085937c1.230469-.203125 2.46875-.339844 3.710938-.398438h.199219c4.082031-.152344 8.15625.484375 12 1.878906l.09375.039063c2.566406.941406 5 2.21875 7.234375 3.792969 11.222656 7.894531 16.035156 22.15625 11.890625 35.238281s-16.289063 21.972656-30.011719 21.964844zm-375.101562-260.296875c0-3.863282 3.125-6.992188 6.984375-7h56.660156c3.867187 0 7 3.132812 7 7 0 3.863281-3.132813 7-7 7h-56.660156c-3.859375-.011719-6.984375-3.140625-6.984375-7zm85.144531 0c0-3.867188 3.132813-7 7-7h25c3.867187 0 7 3.132812 7 7 0 3.863281-3.132813 7-7 7h-25c-3.867187 0-7-3.136719-7-7zm9.25 29c3.867187 0 7 3.132812 7 7 0 3.863281-3.132813 7-7 7h-69.011719c-3.863281 0-7-3.136719-7-7 0-3.867188 3.136719-7 7-7zm-114.578125 38.175781c0-3.867187 3.132812-7 7-7h40.367188c3.867187 0 7 3.132813 7 7 0 3.863281-3.132813 7-7 7h-40.367188c-3.867188 0-7-3.136719-7-7zm0 0"/></svg>