<svg height="482pt" viewBox="0 -32 482.164 482" width="482pt" xmlns="http://www.w3.org/2000/svg"><path d="m297.265625 92.527344c0-3.867188 3.132813-7 7-7 33.007813.066406 63.496094 17.664062 80.066406 46.214844 1.941407 3.34375.800781 7.628906-2.546875 9.570312-3.34375 1.9375-7.628906.800781-9.570312-2.546875-14.054688-24.234375-39.925782-39.175781-67.9375-39.238281-1.859375 0-3.644532-.734375-4.957032-2.046875-1.316406-1.3125-2.054687-3.097657-2.054687-4.953125zm7.011719-50.351563c3.863281 0 7-3.136719 7-7v-28.09375c0-3.867187-3.136719-6.9999998-7-6.9999998-3.867188 0-7 3.1328128-7 6.9999998v28.082031c-.003906 1.859376.734375 3.640626 2.046875 4.957032 1.3125 1.3125 3.09375 2.054687 4.953125 2.054687zm-77.476563 15.625c1.242188 2.183594 3.558594 3.535157 6.070313 3.542969 2.511718.003906 4.832031-1.335938 6.085937-3.515625 1.25-2.175781 1.238281-4.859375-.03125-7.027344l-14.046875-24.328125c-1.945312-3.316406-6.207031-4.445312-9.539062-2.519531-3.332032 1.921875-4.484375 6.175781-2.582032 9.519531zm-74.035156 40.800781 24.308594 14.03125c2.167969 1.273438 4.851562 1.285157 7.027343.03125 2.179688-1.25 3.519532-3.574218 3.515626-6.085937-.007813-2.511719-1.359376-4.828125-3.542969-6.066406l-24.328125-14.046875c-2.164063-1.269532-4.847656-1.28125-7.023438-.03125-2.179687 1.253906-3.519531 3.574218-3.515625 6.085937.007813 2.511719 1.355469 4.828125 3.539063 6.070313zm275.175781 14.964844c1.226563 0 2.429688-.324218 3.492188-.941406l24.328125-14.042969c3.316406-1.945312 4.445312-6.207031 2.519531-9.539062-1.921875-3.332031-6.175781-4.488281-9.519531-2.585938l-24.328125 14.046875c-2.75 1.582032-4.085938 4.816406-3.265625 7.878906.824219 3.0625 3.601562 5.1875 6.773437 5.183594zm-55.777344-53.199218c1.609376.929687 3.519532 1.179687 5.3125.699218 1.796876-.480468 3.324219-1.65625 4.25-3.265625l14.046876-24.328125c1.269531-2.164062 1.28125-4.847656.03125-7.023437-1.253907-2.179688-3.574219-3.519531-6.085938-3.515625s-4.828125 1.355468-6.070312 3.539062l-14.042969 24.328125c-1.9375 3.347657-.789063 7.632813 2.558593 9.566407zm102.992188 110.605468h-28.082031c-3.863281 0-7 3.136719-7 7 0 3.867188 3.136719 7 7 7h28.089843c3.867188 0 7-3.132812 7-7 0-3.863281-3.132812-7-7-7zm-341.785156 14h28.105468c3.867188 0 7-3.132812 7-7 0-3.863281-3.132812-7-7-7h-28.105468c-3.863282 0-7 3.136719-7 7 0 3.867188 3.136718 7 7 7zm288.503906 60.902344c-1.933594 3.347656-.785156 7.628906 2.566406 9.5625l24.328125 14.042969c3.34375 1.902343 7.597657.75 9.519531-2.582031 1.925782-3.332032.796876-7.59375-2.519531-9.539063l-24.328125-14.046875c-3.347656-1.933594-7.632812-.785156-9.566406 2.5625zm50.332031 109.765625c-.035156 34.121094-27.6875 61.773437-61.808593 61.808594h-331.199219c-43.738281 0-79.199219-35.457031-79.199219-79.199219s35.460938-79.199219 79.199219-79.199219c9.292969-.011719 18.511719 1.640625 27.226562 4.875 11.851563-35.542969 40.078125-63.214843 75.851563-74.359375-.375-3.886718-.628906-7.765625-.628906-11.601562-.078126-52.179688 32.882812-98.6875 82.136718-115.90625 49.257813-17.21875 104.015625-1.371094 136.464844 39.492187 32.445312 40.867188 35.46875 97.792969 7.535156 141.863281 11.996094 13.71875 18.613282 31.324219 18.613282 49.546876 0 .996093-.023438 2-.074219 3.035156 27.117187 7.074218 45.996093 31.621094 45.875 59.644531zm-276.203125-169.4375c42.960938-8.042969 86.796875 8.753906 113.382813 43.445313 27.152343-17.8125 62.660156-16.222657 88.113281 3.941406 23.480469-39.363282 19.710938-89.234375-9.417969-124.621094-29.125-35.390625-77.339843-48.679688-120.484375-33.207031-43.144531 15.472656-71.929687 56.371093-71.929687 102.203125 0 2.726562.125 5.472656.335937 8.238281zm262.195313 169.4375c.09375-23.574219-17.128907-43.644531-40.441407-47.136719-3.742187-.582031-6.34375-4.027344-5.878906-7.78125 2.351563-17.582031-3.027344-35.320312-14.75-48.632812s-28.640625-20.894532-46.375-20.789063c-14.03125-.042969-27.644531 4.753907-38.550781 13.578125-1.523437 1.222656-3.488281 1.753906-5.421875 1.460938-1.933594-.289063-3.65625-1.375-4.753906-2.992188-22.582032-33.398437-62.632813-50.472656-102.367188-43.644531-39.730468 6.828125-71.78125 36.296875-81.917968 75.320313-3.296876 16.363281-2.761719 33.269531 1.566406 49.390624 1.222656 3.667969-.753906 7.632813-4.421875 8.859376-3.667969 1.222656-7.632813-.757813-8.859375-4.421876-4.695313-16.628906-5.703125-34.082031-2.953125-51.136718-7.582031-3.070313-15.6875-4.660156-23.871094-4.683594-36.007813 0-65.199219 29.191406-65.199219 65.199219 0 36.007812 29.191406 65.199219 65.199219 65.199219h331.199219c26.378906-.039063 47.753906-21.410157 47.796875-47.789063zm0 0"/></svg>