<svg height="444pt" viewBox="0 -18 444.53639 444" width="444pt" xmlns="http://www.w3.org/2000/svg"><path d="m236.1875 139.136719c5.632812 12.992187 20.734375 18.957031 33.726562 13.324219 12.992188-5.632813 18.960938-20.734376 13.328126-33.726563-5.632813-12.996094-20.734376-18.960937-33.726563-13.328125-12.980469 5.648438-18.941406 20.734375-13.328125 33.730469zm18.894531-20.886719c5.898438-2.558594 12.757813.152344 15.3125 6.050781 2.558594 5.902344-.148437 12.757813-6.050781 15.316407-5.898438 2.558593-12.753906-.152344-15.3125-6.050782-2.546875-5.902344.160156-12.75 6.050781-15.316406zm146.378907 174.921875c.035156-.859375.058593-1.699219.058593-2.53125-.019531-6.414063-.90625-12.796875-2.636719-18.976563 16.027344-7.234374 30.566407-17.398437 42.863282-29.972656 1.988281-2.03125 2.550781-5.070312 1.414062-7.679687-1.109375-2.625-3.722656-4.296875-6.574218-4.210938-22.367188.550781-44.484376-4.78125-64.144532-15.464843-.386718-.355469-.8125-.667969-1.269531-.925782-10.136719-5.632812-19.457031-12.617187-27.710937-20.761718-.117188-.121094-.257813-.203126-.398438-.3125-33.632812-33.8125-45.769531-83.476563-31.515625-128.992188.152344-.28125.285156-.574219.398437-.875 3.113282-9.683594 7.363282-18.964844 12.65625-27.652344.0625-.101562.078126-.21875.132813-.324218 4.984375-8.066407 10.84375-15.5625 17.46875-22.347657 1.972656-2.03125 2.527344-5.054687 1.402344-7.65625-1.125-2.601562-3.710938-4.265625-6.542969-4.21875-45.257812 1-87.328125 23.511719-113.269531 60.613281-25.941407 37.097657-32.644531 84.339844-18.046875 127.191407-.453125 0-.898438-.042969-1.351563-.042969-47.1875-.027344-89.128906 30.054688-104.230469 74.757812-8.113281-2.957031-16.683593-4.464843-25.316406-4.457031-41.339844 0-74.847656 33.511719-74.847656 74.847657 0 41.335937 33.507812 74.84375 74.847656 74.84375h311.199219c29.292969.019531 54.074219-21.644532 57.96875-50.675782 3.898437-29.035156-14.292969-56.46875-42.554687-64.175781zm-7.640626-34.625c-5.882812-11.636719-14.824218-21.453125-25.859374-28.402344.582031-.496093 1.128906-1.027343 1.664062-1.574219 15.511719 7.851563 32.332031 12.777344 49.625 14.539063-7.84375 6.121094-16.378906 11.300781-25.429688 15.4375zm-46.738281-37.277344c-4.921875-2.0625-7.761719-7.253906-6.84375-12.507812 5.121094 4.496093 10.558594 8.617187 16.277344 12.328125l-.375.171875c-1.851563.792969-3.878906 1.078125-5.878906.832031-1.039063-.3125-2.113281-.5625-3.179688-.824219zm-47.621093-166.0625-21.441407 9.296875c-1.886719.820313-4.078125-.046875-4.894531-1.933594-.820312-1.882812.046875-4.074218 1.933594-4.894531l28.230468-12.242187c-1.394531 3.21875-2.683593 6.472656-3.828124 9.773437zm-10.214844-30.402343c10.039062-4.359376 20.597656-7.414063 31.414062-9.078126-2.445312 3.199219-4.6875 6.523438-6.832031 9.886719l-44.34375 19.21875c-5.875 2.472657-9.972656 7.914063-10.726563 14.246094-.75 6.335937 1.960938 12.582031 7.097657 16.363281 5.136719 3.777344 11.90625 4.503906 17.730469 1.902344l11.074218-4.796875c-9.378906 45.050781 3.554688 91.863281 34.730469 125.710937-3.617187 6.386719-4.265625 14.035157-1.78125 20.945313-12.945313.367187-25.539063 4.296875-36.398437 11.359375-8.304688-10.667969-18.503907-19.71875-30.085938-26.691406 8.605469-4.175782 12.335938-14.433594 8.425781-23.160156-3.910156-8.730469-14.042969-12.773438-22.890625-9.132813l-27.640625 12c-21.394531-63.128906 9.125-132.125 70.222657-158.765625zm-34.070313 166.441406-10.402343 4.515625c-3.441407-1.363281-6.949219-2.550781-10.511719-3.558594l17.945312-7.78125c1.222657-.5625 2.65625-.417969 3.746094.375 1.089844.796875 1.660156 2.117187 1.5 3.457031-.164063 1.335938-1.039063 2.480469-2.289063 2.992188zm130.855469 202.773437h-311.203125c-33.601563 0-60.84375-27.238281-60.84375-60.84375s27.242187-60.847656 60.84375-60.847656c7.523437.019531 14.976563 1.457031 21.964844 4.238281-2.535157 15.988282-1.566407 32.339844 2.839843 47.917969 1.265626 3.617187 5.203126 5.542969 8.835938 4.324219 3.628906-1.21875 5.609375-5.128906 4.4375-8.777344-4.078125-15.0625-4.574219-30.871094-1.445312-46.15625 9.488281-36.503906 39.476562-64.066406 76.648437-70.449219 37.167969-6.382812 74.632813 9.601563 95.753906 40.847657 1.097657 1.617187 2.820313 2.703124 4.753907 2.992187 1.929687.289063 3.898437-.242187 5.421874-1.464844 13.742188-11.113281 31.871094-15.214843 49.058594-11.097656 1.390625.5 2.820313.878906 4.277344 1.132813 26.585938 8.230468 43.339844 34.457031 39.628906 62.042968-.476562 3.757813 2.125 7.210938 5.871094 7.789063 22.957031 3.558593 39.304688 24.195312 37.507812 47.359375-1.792968 23.164062-21.125 41.035156-44.355468 41.015625zm-284.96875-318.335937-4.519531 26.363281c-.453125 2.625.628906 5.277344 2.785156 6.84375 2.152344 1.566406 5.011719 1.773437 7.371094.535156l23.671875-12.445312 23.671875 12.445312c2.359375 1.238281 5.214843 1.03125 7.371093-.535156s3.234376-4.21875 2.785157-6.84375l-4.519531-26.363281 19.148437-18.667969c1.910156-1.859375 2.597656-4.640625 1.773437-7.175781-.824218-2.53125-3.015624-4.378906-5.652343-4.761719l-26.464844-3.84375-11.835937-24c-1.175782-2.390625-3.609376-3.90625-6.277344-3.90625-2.664063 0-5.097656 1.515625-6.277344 3.90625l-11.835938 24-26.46875 3.84375c-2.636718.382813-4.828124 2.230469-5.648437 4.761719-.824219 2.535156-.140625 5.316406 1.769531 7.175781zm16.847656-21.136719c2.28125-.332031 4.253906-1.765625 5.273438-3.832031l7.183594-14.570313 7.199218 14.566407c1.019532 2.066406 2.992188 3.5 5.273438 3.832031l16.070312 2.332031-11.632812 11.335938c-1.644532 1.609374-2.390625 3.925781-2 6.195312l2.75 16-14.378906-7.558594c-2.039063-1.074218-4.476563-1.074218-6.515626 0l-14.375 7.558594 2.746094-16c.390625-2.269531-.359375-4.585938-2-6.195312l-11.632812-11.335938zm-99.199218 148.589844-3.101563 18.085937c-.449219 2.625.628906 5.277344 2.785156 6.84375s5.011719 1.773438 7.371094.535156l16.242187-8.535156 16.238282 8.535156c2.359375 1.238282 5.214844 1.03125 7.371094-.535156s3.234374-4.21875 2.785156-6.84375l-3.101563-18.085937 13.140625-12.800781c1.910156-1.859376 2.59375-4.640626 1.773438-7.175782-.824219-2.53125-3.015625-4.378906-5.652344-4.761718l-18.15625-2.636719-8.144531-16.445313c-1.179688-2.390625-3.613281-3.902344-6.277344-3.902344s-5.097656 1.511719-6.277344 3.902344l-8.121093 16.453125-18.15625 2.636719c-2.636719.382812-4.828126 2.230469-5.652344 4.761719-.820313 2.535156-.136719 5.316406 1.773437 7.175781zm14.550781-14.054688c2.28125-.332031 4.253906-1.765625 5.273437-3.832031l3.472656-7.03125 3.453126 7.046875c1.019531 2.066406 2.992187 3.5 5.273437 3.832031l7.757813 1.128906-5.597657 5.476563c-1.644531 1.609375-2.394531 3.925781-2 6.195313l1.328125 7.726562-6.941406-3.648438c-2.039062-1.074218-4.476562-1.074218-6.515625 0l-6.941406 3.648438 1.324219-7.726562c.394531-2.269532-.351563-4.585938-2-6.195313l-5.597657-5.476563zm0 0"/></svg>