<svg height="421pt" viewBox="0 0 421.77954 421" width="421pt" xmlns="http://www.w3.org/2000/svg"><path d="m421.699219 208.054688c.019531-.363282.007812-.726563-.027344-1.085938-.257813-13.351562-1.78125-26.648438-4.554687-39.710938-.058594-.390624-.148438-.777343-.269532-1.15625-2.492187-11.359374-5.925781-22.488281-10.269531-33.277343-.136719-.523438-.335937-1.03125-.59375-1.511719-4.058594-9.882812-8.863281-19.445312-14.371094-28.597656-.28125-.664063-.660156-1.277344-1.125-1.824219-5.320312-8.625-11.253906-16.859375-17.753906-24.636719-.386719-.761718-.953125-1.414062-1.652344-1.902344-6.433593-7.515624-13.382812-14.574218-20.796875-21.121093-.492187-.695313-1.144531-1.261719-1.902344-1.648438-7.496093-6.464843-15.433593-12.398437-23.757812-17.753906-.683594-.664063-1.492188-1.183594-2.382812-1.527344-8.925782-5.582031-18.261719-10.484375-27.921876-14.671875-.375-.214844-.769531-.390625-1.175781-.53125-3.742187-1.601562-7.546875-3.050781-11.394531-4.429687-.078125-.03125-.144531-.089844-.222656-.121094-2.082032-.742187-4.183594-1.414063-6.285156-2.085937-.671876-.214844-1.332032-.457032-2-.664063-3.078126-.953125-6.175782-1.835937-9.289063-2.644531-.988281-.253906-2-.46875-2.988281-.714844-2.175782-.53125-4.351563-1.050781-6.542969-1.511719-1.25-.265625-2.515625-.492187-3.773437-.730469-2-.402343-3.972657-.746093-5.96875-1.070312-1.304688-.210938-2.617188-.398438-3.933594-.589844-2.015625-.289062-4.039063-.546875-6.066406-.773437-1.273438-.144531-2.542969-.289063-3.824219-.398438-2.21875-.210937-4.445313-.371093-6.671875-.507812-1.097656-.070313-2.183594-.15625-3.285156-.210938-3.335938-.15625-6.675782-.253906-10.03125-.253906-25.492188-.015625-50.773438 4.617187-74.601563 13.667969-.136719.042968-.277344.058594-.402344.105468-1.898437.726563-3.773437 1.507813-5.648437 2.285157-.523438.21875-1.054688.402343-1.578125.640625-18.707031 7.90625-36.167969 18.484375-51.835938 31.402344-.3125.265624-.597656.554687-.855469.871093-22.6875 18.929688-41.167968 42.390625-54.261718 68.878907-.089844.152343-.210938.273437-.292969.425781-1.597656 3.25-3.070313 6.574219-4.5 9.929687-.332031.78125-.644531 1.566406-.96875 2.351563-.828125 2-1.636719 4.042969-2.398437 6.097656-.542969 1.441406-1.0625 2.894531-1.574219 4.351563-.480469 1.371093-.949219 2.746093-1.402344 4.128906-.609375 1.863281-1.195313 3.730468-1.757813 5.597656-.105468.34375-.226562.683594-.324218 1.027344-.023438.089844-.023438.179687-.046875.269531-20.117188 68.9375-3.644531 143.375 43.683593 197.386719.125.207031.257813.410156.402344.601562.582032.667969 1.222656 1.289063 1.816406 1.949219.800782.902344 1.65625 1.773437 2.488282 2.664063 5.554687 5.953124 11.449218 11.578124 17.65625 16.855468 1.074218.914063 2.144531 1.84375 3.238281 2.734375 1.703125 1.390625 3.441406 2.742188 5.199219 4.082031 1.300781.992188 2.609375 1.972657 3.929687 2.933594 1.007813.738282 1.980469 1.523438 3 2.246094.15625.105469.339844.152344.5.246094 35.316407 24.773437 77.414063 38.050781 120.550781 38.015625 3.351563 0 6.695313-.09375 10.03125-.253907 1.101563-.054687 2.191407-.140624 3.285157-.210937 2.226562-.136719 4.453125-.296875 6.671875-.507813 1.28125-.117187 2.550781-.261718 3.824218-.398437 2.027344-.230469 4.050782-.488281 6.070313-.773437 1.308594-.1875 2.621094-.378907 3.929687-.589844 2-.324219 4-.6875 5.96875-1.070313 1.257813-.238281 2.523438-.464843 3.777344-.730469 2.1875-.460937 4.367188-.980468 6.539063-1.511718.996093-.246094 2-.457032 2.988281-.714844 3.113281-.800781 6.210938-1.683594 9.289062-2.644531.675782-.207031 1.332032-.449219 2-.664063 2.101563-.671875 4.203126-1.34375 6.285157-2.085937.085937-.027344.144531-.089844.226562-.121094 67.515625-24.265625 118.144531-81.085937 134.5-150.941406.144531-.4375.25-.886719.308594-1.34375 3.441406-15.199219 5.1875-30.734375 5.203125-46.320313 0-1.070312-.066406-2.132812-.082031-3.199218zm-24.652344-60.746094c2.125 6.15625 3.9375 12.414062 5.4375 18.75l-189.148437 189.132812c-4.167969-3.890625-8.179688-7.945312-11.996094-12.179687zm-5.535156-14.28125-199.191407 199.1875c-3.546874-4.550782-6.921874-9.246094-10.066406-14.105469l201.304688-201.332031c2.898437 5.273437 5.546875 10.6875 7.953125 16.25zm-25.429688-42.714844c3.554688 4.546875 6.90625 9.25 10.058594 14.105469l-201.289063 201.296875c-2.890624-5.285156-7.925781-16.257813-7.925781-16.257813zm-9.042969-10.789062-195.65625 195.675781c-2.042968-5.941407-3.835937-11.941407-5.300781-18.085938l-.121093-.457031c-.015626-.058594-.027344-.117188-.039063-.175781l189.117187-189.140625c4.171876 3.894531 8.195313 7.945312 12 12.183594zm-22.589843-21.390626-181.644531 181.671876c-.121094-.839844-.292969-1.667969-.40625-2.511719-.152344-1.171875-.316407-2.339844-.457032-3.515625-.167968-1.464844-.300781-2.933594-.4375-4.398438-.164062-1.816406-.3125-3.636718-.429687-5.460937-.070313-1.148438-.152344-2.296875-.203125-3.449219-.042969-.933594-.042969-1.878906-.070313-2.800781l169.800781-169.800781c4.773438 3.199218 9.382813 6.660156 13.847657 10.265624zm-197.601563 162.199219c.046875 1.148438.121094 2.292969.1875 3.4375.105469 1.777344.242188 3.546875.402344 5.316407.121094 1.484374.25 2.972656.398438 4.453124.117187 1.089844.257812 2.175782.398437 3.261719 2.214844 18.566407 6.914063 36.746094 13.976563 54.058594-4.074219 1.273437-8.316407 1.917969-12.582032 1.914063-23.636718.15625-42.925781-18.878907-43.082031-42.515626-.152344-22.710937 17.464844-41.585937 40.132813-43-.03125 1.367188-.046876 2.6875-.046876 4 0 3.035157.085938 6.058594.214844 9.074219zm155.523438-188.230469c5.46875 2.5 10.804687 5.234376 16 8.207032l-157.222656 157.199218c.667968-9.542968 2.105468-19.007812 4.15625-28.339843zm-15.101563-4.699218-113.585937 113.585937c20.027344-52.304687 61.355468-93.554687 113.585937-113.585937zm-169.308593 16.101562c.429687-.265625.859374-.542968 1.292968-.796875 2.085938-1.261719 4.210938-2.464843 6.339844-3.648437 1.101562-.613282 2.210938-1.210938 3.320312-1.800782 1.8125-.960937 3.632813-1.902343 5.476563-2.800781 1.78125-.867187 3.601563-1.695312 5.394531-2.511719 1.070313-.488281 2.132813-.992187 3.21875-1.460937.289063 11.660156-6.964844 22.179687-17.96875 26.050781-7.519531 2.605469-15.8125 1.722656-22.621094-2.402344 5.003907-3.78125 10.1875-7.324218 15.546876-10.628906zm-82.699219 102.207032c.59375-1.6875 1.230469-3.351563 1.871093-5.019532.613282-1.601562 1.226563-3.203125 1.882813-4.765625.445313-1.074219.914063-2.136719 1.375-3.199219.585937-1.335937 1.199219-2.65625 1.800781-3.976562h34.824219c5.070313 0 9.179687 4.109375 9.179687 9.179688-.003906 5.070312-4.109374 9.179687-9.179687 9.179687h-42.226563c.160157-.46875.3125-.9375.472657-1.398437zm69.25 224.226562c-3.03125-2.226562-6-4.519531-8.90625-6.910156-1.097657-.910156-2.148438-1.867188-3.230469-2.800782-2.054688-1.773437-4.070312-3.585937-6.054688-5.441406-.703124-.660156-1.402343-1.328125-2.097656-2h72.402344c5.070312.007813 9.171875 4.121094 9.167969 9.191406-.007813 5.0625-4.109375 9.164063-9.167969 9.167969h-50.402344c-.574218-.402343-1.152344-.792969-1.710937-1.207031zm161.550781 32.90625c-2.605469.617188-5.226562 1.203125-7.859375 1.699219-1.257813.242187-2.527344.457031-3.796875.679687-2.417969.414063-4.84375.785156-7.273438 1.109375-1.308593.175781-2.617187.355469-3.933593.5-2.550781.292969-5.121094.511719-7.6875.703125-1.15625.082032-2.300781.199219-3.460938.261719-3.714843.207031-7.4375.335937-11.175781.335937-32.152344.03125-63.816406-7.863281-92.191406-22.988281v-.007812h27.925781c12.800781-.011719 23.167969-10.398438 23.160156-23.199219-.011719-12.785156-10.375-23.148438-23.160156-23.160156h-85.542969c-41.839844-48.988282-57.003906-115.375-40.582031-177.671875h46.519531c12.800782-.003907 23.175782-10.382813 23.175782-23.183594-.003907-12.800781-10.378907-23.171875-23.175782-23.175781h-27.640625c10.953125-19.375 25.09375-36.765625 41.824219-51.441406 17.675781 13.871093 43.246094 10.785156 57.117188-6.890626 6.917968-8.820312 9.890624-20.101562 8.21875-31.183593 20.695312-7.191407 42.449218-10.859375 64.359374-10.851563 3.738282 0 7.460938.125 11.175782.335938 1.160156.0625 2.304687.179687 3.460937.261718 2.566407.1875 5.132813.402344 7.6875.699219 1.316407.148438 2.625.328125 3.933594.5 2.429687.328125 4.855469.699219 7.273437 1.113281 1.269532.21875 2.539063.4375 3.796876.679688 2.632812.507812 5.25 1.085938 7.859374 1.695312.734376.171876 1.46875.328126 2.199219.507813-68.261719 32.03125-114.300781 97.988281-120.835937 173.109375-31.328125 1.175781-55.773438 27.527344-54.597656 58.859375 1.148437 30.523437 26.242187 54.671875 56.792968 54.636719 6.273438 0 12.503906-1.058594 18.425782-3.128906 21.15625 43.371093 56.519531 78.199218 100.207031 98.6875-.726563.183593-1.464844.335937-2.199219.507812zm25.082031-7.710938-.003906.003907 113.640625-113.667969c-20.09375 52.257812-61.382812 93.558594-113.636719 113.664062zm122.070313-141.875-137.183594 137.175782c-5.457031-2.480469-10.800781-5.191406-16.003906-8.160156l157.1875-157.1875c-.648438 9.476562-1.984375 18.890624-4 28.171874zm-165.402344 121.414063c-4.773438-3.210937-9.421875-6.621094-13.910156-10.25l181.761718-181.761719c1.066407 7.363282 1.710938 14.78125 1.941407 22.21875zm0 0"/></svg>