<svg height="446pt" viewBox="-20 0 446 446.7578" width="446pt" xmlns="http://www.w3.org/2000/svg"><path d="m406.25 347.550781c-1.476562-2.429687-4.285156-3.722656-7.089844-3.261719-36.578125 5.992188-74.085937 2.230469-108.742187-10.902343-.492188-.371094-1.027344-.671875-1.597657-.902344-17.792968-6.867187-34.566406-16.121094-49.863281-27.511719-.175781-.128906-.371093-.222656-.554687-.335937-62.550782-47.371094-93.746094-125.46875-81.042969-202.898438.261719-.542969.449219-1.121093.5625-1.710937 2.867187-16.488282 7.671875-32.578125 14.316406-47.9375.089844-.203125.09375-.425782.160157-.632813 6.300781-14.25 14.148437-27.765625 23.398437-40.304687 1.691406-2.289063 1.824219-5.371094.34375-7.796875-1.484375-2.429688-4.285156-3.71875-7.09375-3.2656252-72.925781 11.8320312-135.375 58.7656252-167.019531 125.5273442-31.644532 66.761718-28.4375 144.8125 8.570312 208.757812l.738282 1.285156c.628906 1.125 1.265624 2.253906 1.941406 3.355469 1.574218 2.574219 3.25 5.140625 4.964844 7.703125.863281 1.296875 1.746093 2.574219 2.632812 3.847656.558594.800782 1.136719 1.597656 1.707031 2.398438 31.261719 43.828125 77.320313 74.867187 129.675781 87.394531 17.433594 4.234375 35.304688 6.382813 53.246094 6.398437 71.210938-.222656 138.113282-34.128906 180.40625-91.421874 1.683594-2.285157 1.820313-5.363282.339844-7.785157zm-169.21875-26.613281c12.3125 8.574219 25.457031 15.882812 39.234375 21.820312-1.621094 2.101563-3.609375 3.890626-5.871094 5.28125-10.765625 6.550782-24.804687 3.152344-31.375-7.601562-3.59375-5.859375-4.328125-13.035156-1.988281-19.5zm-92.644531-226.285156-33.710938 20.582031c-4.847656 2.957031-11.171875 1.425781-14.128906-3.417969s-1.425781-11.167968 3.417969-14.125l51.808594-31.632812c-3.089844 9.359375-5.558594 18.910156-7.386719 28.59375zm-96.527344 241.160156c-.597656-.925781-1.199219-1.84375-1.796875-2.796875l45.734375-27.898437c4.84375-2.894532 11.113281-1.347657 14.054687 3.464843 2.9375 4.816407 1.449219 11.101563-3.339843 14.082031l-44.742188 27.304688c-3.570312-4.660156-6.847656-9.394531-9.910156-14.15625zm103.605469 83.523438-1.363282-.511719c-16.273437-6.175781-31.714843-14.355469-45.96875-24.351563 9.398438-10.550781 24.714844-13.460937 37.328126-7.09375 12.609374 6.367188 19.363281 20.421875 16.449218 34.246094l-.1875-.058594c-2.105468-.710937-4.183594-1.460937-6.257812-2.230468zm183.417968-17.558594c-47.648437 29.269531-105.023437 38.257812-159.339843 24.964844-1.4375-.347657-2.839844-.769532-4.265625-1.140626 4.9375-20.355468-4.8125-41.425781-23.527344-50.839843-18.710938-9.414063-41.441406-4.679688-54.84375 11.417969-9.449219-7.644532-18.214844-16.097657-26.195312-25.261719l43.085937-26.304688c11.316406-7.042969 14.839844-21.890625 7.894531-33.265625-6.945312-11.375-21.761718-15.023437-33.195312-8.179687l-45.421875 27.726562c-30.511719-57.371093-32.855469-125.605469-6.351563-184.929687 26.503906-59.328125 78.886719-103.113282 141.976563-118.671875-5.472657 8.738281-10.335938 17.84375-14.566407 27.246093l-67.457031 41.199219c-11.445312 6.984375-15.058593 21.925781-8.074219 33.371094 6.984376 11.441406 21.925782 15.058594 33.367188 8.074219l23.742188-14.492188c-7.871094 76.496094 23.71875 151.746094 83.84375 199.699219-5.632813 11.253906-5.0625 24.621094 1.511718 35.355469 10.605469 17.347656 33.257813 22.824218 50.621094 12.242187 4.863281-2.996093 8.941406-7.109375 11.898438-12 30.253906 10.804688 62.480468 14.980469 94.488281 12.246094-14.15625 16.300781-30.75 30.3125-49.191407 41.542969zm-232.5625-219.273438c-19.894531-4.808594-39.917968 7.417969-44.726562 27.308594-4.8125 19.890625 7.414062 39.914062 27.304688 44.726562 2.875.695313 5.820312 1.050782 8.777343 1.050782 18.761719-.03125 34.539063-14.078125 36.742188-32.710938 2.203125-18.628906-9.867188-35.96875-28.101563-40.375zm13.699219 41.4375c-2.191406 9.066406-9.625 15.917969-18.839843 17.359375-9.210938 1.445313-18.386719-2.804687-23.246094-10.761719-4.335938-7.113281-4.5-16.007812-.433594-23.277343 4.070312-7.265625 11.738281-11.777344 20.066406-11.800781 1.839844.003906 3.675782.222656 5.464844.65625 12.371094 2.996093 19.976562 15.453124 16.988281 27.828124zm180.226563-93.175781 28.945312-3.601563 19.363282 21.808594c1.769531 1.992188 4.515624 2.804688 7.082031 2.101563 2.570312-.703125 4.515625-2.804688 5.023437-5.421875l5.535156-28.632813 26.726563-11.675781c2.441406-1.070312 4.066406-3.429688 4.191406-6.089844.121094-2.660156-1.273437-5.164062-3.605469-6.453125l-25.527343-14.105469-2.851563-29.03125c-.257812-2.648437-2.003906-4.925781-4.496094-5.863281-2.492187-.941406-5.304687-.382812-7.25 1.4375l-21.304687 19.914063-28.480469-6.253906c-2.601562-.570313-5.300781.382812-6.964844 2.460937-1.664062 2.082031-2.003906 4.925781-.878906 7.339844l12.355469 26.398437-14.757813 25.15625c-1.347656 2.296875-1.273437 5.164063.191407 7.390625 1.464843 2.222657 4.0625 3.425781 6.707031 3.101563zm22.105468-38.226563-7.910156-16.921874 18.230469 4c2.25.496093 4.601563-.148438 6.28125-1.722657l13.632813-12.746093 1.824218 18.578124c.222656 2.292969 1.5625 4.328126 3.582032 5.441407l16.332031 9.03125-17.101563 7.46875c-2.113281.921875-3.636718 2.824219-4.070312 5.085937l-3.546875 18.324219-12.398438-13.953125c-1.527343-1.722656-3.808593-2.582031-6.09375-2.300781l-18.523437 2.296875 9.445312-16.09375c1.160156-1.980469 1.28125-4.40625.316406-6.488282zm-79.316406 144 20.328125 8.984376 4.125 21.8125c.492188 2.617187 2.433594 4.726562 4.996094 5.441406 2.566406.714844 5.316406-.085938 7.09375-2.070313l14.824219-16.5625 22.042968 2.824219c2.636719.335938 5.234376-.851562 6.710938-3.0625 1.472656-2.210938 1.566406-5.066406.242188-7.367188l-11.164063-19.203124 9.496094-20.089844c1.140625-2.410156.8125-5.257813-.84375-7.34375-1.65625-2.089844-4.355469-3.054688-6.960938-2.492188l-21.726562 4.660156-16.171875-15.242187c-1.941406-1.828125-4.753906-2.394531-7.25-1.457031-2.5.933594-4.25 3.207031-4.515625 5.859375l-2.265625 22.105469-19.496094 10.675781c-2.339844 1.277343-3.746094 3.773437-3.632812 6.4375.113281 2.660156 1.730468 5.027343 4.167968 6.105469zm28.914063-12.703124c2.019531-1.105469 3.367187-3.136719 3.601562-5.425782l1.199219-11.660156 8.527344 8.035156c1.675781 1.582032 4.023437 2.238282 6.277344 1.753906l11.457031-2.472656-5.007813 10.59375c-.988281 2.085938-.882812 4.519532.273438 6.507813l5.890625 10.136719-11.625-1.492188c-2.285157-.296875-4.570313.558594-6.105469 2.277344l-7.839844 8.730468-2.175781-11.515624c-.425781-2.261719-1.941406-4.171876-4.050781-5.101563l-10.71875-4.742187zm0 0"/></svg>