<svg height="469pt" viewBox="0 -38 469.70154 469" width="469pt" xmlns="http://www.w3.org/2000/svg"><path d="m265.832031 102.273438c0-3.863282 3.136719-7 7-7 36.398438.070312 70.019531 19.476562 88.289063 50.957031 1.292968 2.167969 1.320312 4.863281.070312 7.054687s-3.582031 3.539063-6.105468 3.53125c-2.523438-.007812-4.84375-1.375-6.082032-3.574218-15.757812-27.15625-44.753906-43.898438-76.148437-43.96875-1.863281.007812-3.648438-.726563-4.964844-2.042969-1.316406-1.3125-2.058594-3.097657-2.058594-4.957031zm7.023438-56.722657c3.863281 0 7-3.132812 7-7v-31.199219c0-3.867187-3.136719-7-7-7-3.867188 0-7 3.132813-7 7v31.199219c0 3.867188 3.132812 7 7 7zm-85.414063 17.757813c1.242188 2.183594 3.558594 3.53125 6.070313 3.539062 2.511719.003906 4.832031-1.335937 6.085937-3.515625 1.25-2.175781 1.238282-4.859375-.03125-7.023437l-15.601562-27.03125c-1.945313-3.316406-6.207032-4.445313-9.539063-2.519532-3.332031 1.921876-4.484375 6.175782-2.585937 9.519532zm222.800782 61.574218c1.226562 0 2.429687-.324218 3.492187-.941406l27.03125-15.597656c3.320313-1.945312 4.445313-6.207031 2.523437-9.539062-1.925781-3.332032-6.179687-4.488282-9.523437-2.585938l-27.03125 15.601562c-2.746094 1.582032-4.085937 4.816407-3.265625 7.878907.824219 3.0625 3.601562 5.1875 6.773438 5.183593zm-61.582032-59.011718c1.609375.929687 3.519532 1.183594 5.316406.699218 1.792969-.480468 3.320313-1.652343 4.25-3.261718l15.597657-27.03125c1.902343-3.34375.75-7.597656-2.582031-9.519532-3.335938-1.925781-7.59375-.796874-9.539063 2.519532l-15.601563 27.03125c-1.933593 3.347656-.789062 7.628906 2.558594 9.5625zm-75.804687 282.992187c-3.867188 0-7 3.132813-7 7v31.199219c0 3.867188 3.132812 7 7 7 3.863281 0 7-3.132812 7-7v-31.199219c0-3.867187-3.136719-7-7-7zm189.847656-158.65625h-31.203125c-3.863281 0-7 3.132813-7 7 0 3.867188 3.136719 7 7 7h31.203125c3.863281 0 7-3.132812 7-7 0-3.867187-3.136719-7-7-7zm-104.476563 140.898438c-1.242187-2.183594-3.558593-3.535157-6.070312-3.539063s-4.835938 1.335938-6.085938 3.511719c-1.25 2.179687-1.238281 4.863281.03125 7.027344l15.601563 27.03125c1.945313 3.316406 6.203125 4.445312 9.539063 2.519531 3.332031-1.921875 4.484374-6.175781 2.582031-9.519531zm82.539063-45.027344-27.03125-15.597656c-2.167969-1.273438-4.847656-1.285157-7.027344-.03125-2.179687 1.25-3.519531 3.570312-3.515625 6.082031.007813 2.511719 1.359375 4.828125 3.542969 6.070312l27.03125 15.601563c3.34375 1.902344 7.597656.746094 9.523437-2.585937 1.921876-3.332032.796876-7.59375-2.523437-9.539063zm-243.761719 42.464844c-3.347656-1.933594-7.628906-.785157-9.5625 2.5625l-15.601562 27.03125c-1.269532 2.164062-1.28125 4.847656-.03125 7.023437 1.253906 2.179688 3.574218 3.519532 6.085937 3.515625 2.511719-.007812 4.828125-1.355469 6.070313-3.539062l15.601562-27.03125c1.933594-3.347657.789063-7.628907-2.5625-9.5625zm-61.566406 4.085937c-27.703125.027344-54.738281-8.492187-77.421875-24.398437-.105469-.066407-.230469-.089844-.335937-.164063-.679688-.480468-1.324219-1.003906-2-1.496094-.796876-.585937-1.597657-1.179687-2.398438-1.785156-1.15625-.882812-2.304688-1.773437-3.433594-2.699218-.652344-.535157-1.296875-1.089844-1.941406-1.644532-4.046875-3.429687-7.886719-7.097656-11.503906-10.980468-.503906-.539063-1.015625-1.070313-1.511719-1.617188-.402344-.433594-.800781-.835938-1.199219-1.273438-.105468-.121093-.160156-.265624-.257812-.398437-30.378906-34.6875-40.949219-82.488281-28.023438-126.75 0-.058594 0-.117187.03125-.179687.066406-.226563.148438-.457032.214844-.683594.359375-1.199219.742188-2.398438 1.136719-3.601563.285156-.855469.574219-1.710937.867187-2.5625.339844-.972656.6875-1.941406 1.054688-2.898437.480468-1.277344.984375-2.542969 1.5-3.796875.21875-.53125.429687-1.070313.65625-1.601563.914062-2.152344 1.863281-4.277344 2.878906-6.355468.050781-.101563.136719-.183594.195312-.289063 16.605469-33.835937 46.574219-59.210937 82.6875-70.003906 36.113282-10.792969 75.089844-6.03125 107.539063 13.140625 56.878906-33.582032 129.6875-21.230469 172.308594 29.230468 42.621093 50.460938 42.621093 124.308594 0 174.769532-42.621094 50.464844-115.429688 62.8125-172.308594 29.234375-20.804687 12.332031-44.546875 18.828125-68.734375 18.804687zm81.769531-243.285156c6.726563 5.109375 12.96875 10.828125 18.636719 17.089844.140625.132812.292969.246094.421875.402344 6.984375 7.796874 13.039063 16.375 18.042969 25.570312.1875.34375.367187.691406.554687 1.035156.757813 1.421875 1.496094 2.859375 2.207031 4.308594.328126.671875.648438 1.347656.964844 2.023438.53125 1.132812 1.046875 2.273437 1.546875 3.421874.390625.894532.773438 1.796876 1.148438 2.703126.171875.398437.359375.820312.523437 1.242187.046875.117187.0625.238281.105469.359375 4.023437 10.15625 6.792969 20.769531 8.246094 31.597656v.175782c.367187 2.765624.652343 5.558593.851562 8.375.023438.347656.054688.695312.082031 1.042968.175782 2.832032.296876 5.679688.296876 8.550782 0 .800781-.027344 1.601562-.050782 2.378906l-.035156 1.007812c-1.03125 41.148438-20.738281 79.585938-53.542969 104.441406 51.085938 26.410157 113.695313 13.363282 149.976563-31.261718 36.28125-44.621094 36.28125-108.578125 0-153.199219-36.28125-44.625-98.890625-57.675781-149.976563-31.261719zm39.199219 97.6875h-28.296875c-1.765625 0-3.199219 1.433594-3.199219 3.199219 0 1.769531 1.433594 3.199219 3.199219 3.199219h28.652344c0-.316407 0-.636719-.023438-.953126-.070312-1.601562-.160156-3.203124-.292969-4.832031-.011718-.214843-.027343-.414062-.042968-.613281zm-27.910156-57.132812c.011718 8.570312 6.957031 15.515624 15.53125 15.523437.398437 0 .796875 0 1.199218-.042969-.066406-.136718-.125-.277344-.1875-.398437-.605468-1.269531-1.257812-2.507813-1.902343-3.75-1.054688-2.023438-2.15625-4-3.320313-5.972657-.203125-.34375-.398437-.699218-.605468-1.042968-.839844-1.375-1.722657-2.726563-2.609376-4.066406-.230468-.355469-.460937-.710938-.695312-1.058594-.925781-1.359375-1.878906-2.691406-2.859375-4l-.632813-.847656c-.566406-.742188-1.152343-1.46875-1.734374-2.203126-1.417969 2.378907-2.171876 5.089844-2.183594 7.859376zm-206.597656 24.308593h22.910156c1.769531 0 3.199218-1.433593 3.199218-3.199219 0-1.769531-1.429687-3.199218-3.199218-3.199218h-20.265625c-.183594.398437-.382813.796875-.5625 1.234375-.507813 1.179687-.992188 2.371093-1.464844 3.570312-.203125.542969-.417969 1.066407-.617187 1.59375zm-7.894532 43c-.023437 28.425781 9.976563 55.953125 28.238282 77.738281h96.371093c9.5 0 17.199219 7.703126 17.199219 17.203126 0 9.496093-7.699219 17.199218-17.199219 17.199218h-49.757812c35.796875 14.886719 76.558593 11.773438 109.683593-8.378906s54.625-54.917969 57.863282-93.554688h-28.292969c-9.5 0-17.199219-7.699218-17.199219-17.199218s7.699219-17.199219 17.199219-17.199219h26.34375c-.996094-4.867187-2.292969-9.667969-3.882813-14.371094-12.273437 2.828125-24.988281-2.464843-31.628906-13.167969-6.644531-10.707031-5.742187-24.449218 2.242188-34.191406-26.285156-26.285156-63.179688-39.066406-100.09375-34.671875-36.914063 4.390625-69.777344 25.472657-89.164063 57.195313h12.898438c9.5 0 17.203125 7.699218 17.203125 17.199218s-7.703125 17.199219-17.203125 17.199219h-27.289063c-2.34375 9.488281-3.527344 19.226563-3.53125 29zm49.308594 97.601563c.238281.175781.480469.335937.71875.507812h74.582031c1.765625 0 3.199219-1.433594 3.199219-3.203125 0-1.765625-1.433594-3.199219-3.199219-3.199219h-82.589843c.316406.277344.632812.558594.953124.828126 2.0625 1.78125 4.164063 3.464843 6.335938 5.066406zm60.585938-156.042969c0-13.578125 11.007812-24.585937 24.585937-24.585937 13.582031 0 24.589844 11.007812 24.589844 24.585937 0 13.582031-11.007813 24.589844-24.589844 24.589844-13.566406-.019531-24.558594-11.007813-24.585937-24.574219zm14 0c0 5.847656 4.738281 10.589844 10.585937 10.589844s10.589844-4.742188 10.589844-10.589844-4.742188-10.585937-10.589844-10.585937c-5.851563.003906-10.589844 4.753906-10.585937 10.601562zm-85.722657 82.839844c0-21.191407 17.179688-38.371094 38.375-38.371094 21.191407 0 38.371094 17.179687 38.371094 38.371094 0 21.195312-17.179687 38.375-38.371094 38.375-21.1875-.015625-38.359375-17.1875-38.375-38.375zm14 0c.015625 13.457031 10.9375 24.355469 24.390625 24.34375 13.457032-.007813 24.359375-10.921875 24.355469-24.378907-.003906-13.457031-10.914063-24.363281-24.371094-24.363281-13.464843.015625-24.375 10.933594-24.375 24.398438zm109.671875 17.730469c0-13.65625 11.070313-24.726563 24.730469-24.730469 13.65625 0 24.726563 11.070312 24.726563 24.726562.003906 13.65625-11.066407 24.730469-24.722657 24.730469-13.65625-.011719-24.722656-11.082031-24.734375-24.738281zm14 0c0 5.921874 4.804688 10.726562 10.730469 10.726562 5.921875 0 10.726563-4.800781 10.726563-10.726562.003906-5.921876-4.796876-10.726563-10.722657-10.730469-5.917969.003906-10.71875 4.796875-10.734375 10.71875zm0 0"/></svg>