<svg height="461pt" viewBox="-102 0 461 461.78" width="461pt" xmlns="http://www.w3.org/2000/svg"><path d="m216.257812 0h-175.601562c-22.226562.0195312-40.238281 18.03125-40.265625 40.257812v381.261719c.027344 22.222657 18.03125 40.230469 40.253906 40.261719h175.601563c22.222656-.027344 40.230468-18.039062 40.257812-40.261719v-381.261719c-.027344-22.21875-18.027344-40.226562-40.246094-40.257812zm26.257813 421.523438c-.015625 14.496093-11.761719 26.242187-26.257813 26.261718h-175.601562c-14.492188-.019531-26.238281-11.765625-26.253906-26.261718v-381.265626c.015625-14.496093 11.761718-26.238281 26.253906-26.257812h175.601562c14.496094.015625 26.242188 11.761719 26.257813 26.257812zm-77.84375-92.722657v-209.378906c-.210937-19.855469-16.363281-35.835937-36.214844-35.835937-19.855469 0-36.007812 15.980468-36.214843 35.835937v209.359375c-20.136719 15.503906-28.167969 42.101562-19.980469 66.160156 8.1875 24.054688 30.78125 40.230469 56.195312 40.230469 25.410157 0 48.003907-16.175781 56.191407-40.230469 8.191406-24.058594.15625-50.65625-19.976563-66.160156zm-36.21875 92.386719c-19.957031 0-37.570313-13.042969-43.390625-32.132812-5.820312-19.089844 1.523438-39.742188 18.085938-50.875 1.933593-1.300782 3.089843-3.476563 3.089843-5.804688v-212.953125c.164063-12.152344 10.058594-21.917969 22.214844-21.917969 12.152344 0 22.050781 9.765625 22.210937 21.917969v212.953125c0 2.328125 1.160157 4.503906 3.089844 5.804688 16.5625 11.132812 23.90625 31.78125 18.089844 50.871093-5.820312 19.09375-23.433594 32.136719-43.390625 32.136719zm7-78.167969v-121.402343c0-3.867188-3.132813-7-7-7-3.863281 0-7 3.132812-7 7v121.402343c-16.785156 3.582031-28.164063 19.257813-26.363281 36.328125 1.800781 17.070313 16.199218 30.03125 33.363281 30.03125 17.167969 0 31.5625-12.960937 33.363281-30.03125 1.800782-17.070312-9.574218-32.746094-26.363281-36.328125zm-7 52.351563c-10.792969 0-19.539063-8.753906-19.539063-19.546875s8.75-19.539063 19.546876-19.539063c10.792968 0 19.542968 8.75 19.542968 19.542969-.011718 10.789063-8.757812 19.535156-19.550781 19.542969zm-86.101563-296.652344c0-3.863281 3.132813-7 7-7h19.019532c3.863281 0 7 3.136719 7 7 0 3.867188-3.136719 7-7 7h-19.019532c-3.867187 0-7-3.132812-7-7zm0 30.726562c0-3.867187 3.132813-7 7-7h19.019532c3.863281 0 7 3.132813 7 7 0 3.863282-3.136719 7-7 7h-19.019532c-3.867187 0-7-3.136718-7-7zm0 30.722657c0-3.867188 3.132813-7 7-7h19.019532c3.863281 0 7 3.132812 7 7 0 3.867187-3.136719 7-7 7h-19.019532c-3.867187 0-7-3.132813-7-7zm0 30.722656c0-3.863281 3.132813-7 7-7h19.019532c3.863281 0 7 3.136719 7 7 0 3.867187-3.136719 7-7 7h-19.019532c-3.867187 0-7.003906-3.136719-7-7.003906zm0 30.730469c0-3.867188 3.132813-7 7-7h19.019532c3.863281 0 7 3.132812 7 7 0 3.863281-3.136719 7-7 7h-19.019532c-3.867187 0-7.003906-3.136719-7-7.003906zm0 30.722656c0-3.867188 3.132813-7 7-7h19.019532c3.863281 0 7 3.132812 7 7s-3.136719 7-7 7h-19.019532c-1.859374 0-3.640624-.738281-4.953124-2.054688-1.3125-1.3125-2.050782-3.09375-2.046876-4.953124zm0 30.722656c0-3.863281 3.132813-7 7-7h19.019532c3.863281 0 7 3.136719 7 7 0 3.867188-3.136719 7-7 7h-19.019532c-1.859374 0-3.640624-.738281-4.953124-2.050781-1.3125-1.316406-2.050782-3.097656-2.046876-4.957031zm26 37.730469h-19c-3.867187 0-7-3.136719-7-7 0-3.867187 3.132813-7 7-7h19.019532c3.863281 0 7 3.132813 7 7 0 3.863281-3.136719 7-7 7zm132.253907-246.402344c-13.4375 0-24.332031 10.894531-24.332031 24.332031 0 13.441407 10.894531 24.332032 24.332031 24.332032s24.332031-10.890625 24.332031-24.332032c-.007812-13.425781-10.882812-24.3125-24.3125-24.339843zm0 34.660157c-5.707031 0-10.332031-4.625-10.332031-10.332032 0-5.707031 4.628906-10.332031 10.335937-10.332031 5.707031.003906 10.332031 4.628906 10.328125 10.335937-.011719 5.691407-4.621094 10.304688-10.3125 10.320313zm-94.953125-58.097657c8.269531.074219 15.082031-6.472656 15.332031-14.738281-.324219-8.207031-7.074219-14.695312-15.289063-14.695312-8.21875 0-14.96875 6.488281-15.292968 14.695312.25 8.234375 7.015625 14.769531 15.25 14.738281zm0-23.007812c3.386718-.125 6.503906 1.820312 7.882812 4.914062s.738282 6.714844-1.613281 9.148438c-2.355469 2.433593-5.953125 3.195312-9.089844 1.921875-3.136719-1.273438-5.1875-4.328125-5.179687-7.714844.003906-4.460938 3.542968-8.121094 8-8.269531zm33.449218 46.136719h-12.109374v-48.726563h38.371093v10.859375h-26.242187v8.726562h23.832031v10.851563h-23.832031zm0 0"/></svg>