<svg height="461pt" viewBox="-31 0 461 461.78" width="461pt" xmlns="http://www.w3.org/2000/svg"><path d="m43.039062 124.945312c-2.734374-2.734374-2.734374-7.167968 0-9.902343 2.734376-2.734375 7.164063-2.734375 9.898438 0l18.226562 18.25c2.730469 2.734375 2.730469 7.164062 0 9.898437-2.734374 2.734375-7.167968 2.734375-9.902343 0zm-8.929687 65.265626-24.902344-6.671876c-3.734375-1-7.574219 1.214844-8.574219 4.949219s1.214844 7.574219 4.949219 8.574219l24.902344 6.667969c3.734375 1.003906 7.570313-1.214844 8.570313-4.949219 1.003906-3.734375-1.214844-7.574219-4.949219-8.574219zm-3.625 67.839843-24.90625 6.671875c-3.734375 1.003906-5.949219 4.839844-4.949219 8.574219s4.839844 5.953125 8.574219 4.949219l24.902344-6.671875c3.734375-1 5.953125-4.835938 4.949219-8.570313-1-3.738281-4.835938-5.953125-8.570313-4.953125zm87.71875-151.933593c1 3.734374 4.839844 5.949218 8.574219 4.949218s5.949218-4.839844 4.949218-8.574218l-6.671874-24.902344c-1-3.738282-4.839844-5.953125-8.574219-4.953125-3.734375 1.003906-5.949219 4.839843-4.949219 8.574219zm-56.9375 212.496093-18.226563 18.226563c-2.734374 2.734375-2.734374 7.167968 0 9.898437 2.734376 2.734375 7.164063 2.734375 9.898438 0l18.226562-18.246093c2.730469-2.734376 2.730469-7.167969 0-9.898438-2.734374-2.734375-7.167968-2.734375-9.902343 0zm65.511719 32.101563c-1.792969-.484375-3.707032-.234375-5.316406.695312-1.609376.929688-2.78125 2.460938-3.257813 4.257813l-6.671875 24.902343c-1 3.734376 1.214844 7.574219 4.949219 8.574219 3.734375 1.003907 7.574219-1.214843 8.574219-4.949219l6.671874-24.902343c1-3.734375-1.214843-7.570313-4.949218-8.574219zm273.238281-310.457032v381.261719c-.023437 22.222657-18.035156 40.234375-40.257813 40.261719h-167.597656c-22.226562-.027344-40.234375-18.039062-40.257812-40.261719v-77.78125c-59.617188-3.6875-106.078125-53.117187-106.078125-112.847656s46.460937-109.15625 106.078125-112.847656v-77.78125c.023437-22.21875 18.023437-40.2265628 40.238281-40.261719h167.601563c22.226562.0195312 40.242187 18.03125 40.269531 40.261719zm-248.128906 289.472657v-197.679688c-51.886719 3.664063-92.109375 46.828125-92.109375 98.84375s40.222656 95.179688 92.109375 98.839844zm234.125-289.472657c-.015625-14.496093-11.761719-26.246093-26.257813-26.261718h-167.597656c-14.496094.015625-26.242188 11.765625-26.257812 26.261718v381.261719c.015624 14.496094 11.761718 26.242188 26.257812 26.261719h167.597656c14.496094-.019531 26.242188-11.765625 26.257813-26.261719zm-50.710938 315.257813c.003907 27.820313-19.316406 51.910156-46.472656 57.949219-27.15625 6.035156-54.863281-7.597656-66.648437-32.796875-11.785157-25.199219-4.488282-55.203125 17.554687-72.175781v-225.367188c.207031-19.851562 16.359375-35.835938 36.214844-35.835938 19.851562 0 36.003906 15.984376 36.214843 35.835938v225.367188c14.59375 11.230468 23.144532 28.605468 23.136719 47.023437zm-14 0c.007813-15.105469-7.511719-29.222656-20.050781-37.648437-1.929688-1.300782-3.089844-3.476563-3.085938-5.804688v-228.9375c-.164062-12.152344-10.0625-21.917969-22.214843-21.917969-12.152344 0-22.050781 9.765625-22.214844 21.917969v228.9375c0 2.328125-1.15625 4.503906-3.085937 5.804688-17.949219 12.0625-24.890626 35.117187-16.578126 55.082031 8.3125 19.964843 29.558594 31.285156 50.765626 27.046875 21.207031-4.238282 36.472656-22.855469 36.46875-44.480469zm-11.808593 0c0 17.617187-13.621094 32.230469-31.191407 33.46875-17.574219 1.234375-33.105469-11.332031-35.570312-28.773437-2.460938-17.445313 8.988281-33.820313 26.214843-37.496094v-237.382813c0-3.867187 3.136719-7 7-7 3.867188 0 7 3.132813 7 7v237.386719c15.464844 3.324219 26.519532 16.980469 26.546876 32.796875zm-14 0c0-10.792969-8.75-19.542969-19.546876-19.542969-10.792968 0-19.542968 8.75-19.542968 19.542969s8.75 19.542969 19.542968 19.542969c10.789063-.007813 19.535157-8.753906 19.546876-19.542969zm-98.648438-274.292969h19.019531c3.867188 0 7-3.132812 7-7 0-3.863281-3.132812-7-7-7h-19.019531c-3.867188 0-7 3.136719-7 7 0 3.867188 3.132812 7 7 7zm0 30.726563h19.019531c3.867188 0 7-3.136719 7-7 0-3.867188-3.132812-7-7-7h-19.019531c-3.867188 0-7 3.132812-7 7 0 3.863281 3.132812 7 7 7zm0 30.722656h19.019531c3.867188 0 7-3.132813 7-7s-3.132812-7-7-7h-19.019531c-3.867188 0-7 3.132813-7 7s3.132812 7 7 7zm0 30.722656h19.019531c3.867188 0 7-3.132812 7-7 0-3.863281-3.132812-7-7-7h-19.019531c-3.867188 0-7 3.136719-7 7 0 3.867188 3.132812 7 7 7zm0 30.726563h19.019531c3.867188 0 7-3.136719 7-7 0-3.867188-3.132812-7-7-7h-19.019531c-3.867188 0-7 3.132812-7 7 0 3.863281 3.132812 7 7 7zm0 30.722656h19.019531c3.867188 0 7-3.132812 7-7s-3.132812-7-7-7h-19.019531c-3.867188 0-7 3.132812-7 7s3.132812 7 7 7zm0 30.722656h19.019531c3.867188 0 7-3.132812 7-7 0-3.863281-3.132812-7-7-7h-19.019531c-3.867188 0-7 3.136719-7 7 0 3.867188 3.132812 7 7 7zm26 23.726563c0-3.867188-3.136719-7-7-7h-19c-3.867188 0-7 3.132812-7 7 0 3.863281 3.132812 7 7 7h19.019531c3.867188 0 7-3.136719 7-7zm149.597656-215.070313c0 13.441406-10.894531 24.335938-24.332031 24.332032-13.4375 0-24.332031-10.894532-24.332031-24.332032.003906-13.441406 10.898437-24.332031 24.335937-24.332031 13.4375.011719 24.324219 10.898437 24.335938 24.332031zm-14 0c0-5.707031-4.625-10.332031-10.332031-10.332031-5.707031.003906-10.332031 4.628906-10.332031 10.335937.003906 5.707032 4.628906 10.332032 10.335937 10.328126 5.707031 0 10.332031-4.625 10.335938-10.332032zm0 0"/></svg>