<svg height="434pt" viewBox="-38 0 434 434.18834" width="434pt" xmlns="http://www.w3.org/2000/svg"><path d="m94.972656 256.894531c16.269532-.007812 30.265625-11.507812 33.429688-27.464843 3.164062-15.957032-5.382813-31.925782-20.414063-38.144532-15.035156-6.21875-32.363281-.949218-41.394531 12.582032s-7.25 31.554687 4.261719 43.054687c6.390625 6.402344 15.070312 9.992187 24.117187 9.972656zm-14.222656-48.320312c7.855469-7.859375 20.59375-7.859375 28.449219-.003907 7.855469 7.859376 7.855469 20.59375 0 28.449219s-20.59375 7.855469-28.449219 0c-3.785156-3.765625-5.917969-8.882812-5.917969-14.222656s2.132813-10.460937 5.917969-14.222656zm246.269531-39.386719c0 3.867188-3.136719 7-7 7-3.867187 0-7-3.132812-7-7 0-20.753906-35.0625-75.972656-48.570312-95.492188-2.199219-3.179687-1.40625-7.539062 1.773437-9.742187 3.179688-2.199219 7.542969-1.40625 9.742188 1.773437 5.226562 7.554688 51.054687 74.605469 51.054687 103.460938zm31.402344 13.5c0-50.195312-85.570313-174.398438-89.199219-179.671875-1.308594-1.886719-3.460937-3.015625-5.757812-3.015625s-4.449219 1.128906-5.757813 3.015625c-.300781.4375-28.132812 40.777344-52.371093 84.351563-27.179688-44.628907-50.703126-78.765626-53.027344-82.128907-1.308594-1.890625-3.457032-3.019531-5.757813-3.019531-2.296875 0-4.449219 1.128906-5.757812 3.019531-5.742188 8.296875-140.699219 204.195313-140.699219 282.492188 0 80.886719 65.570312 146.457031 146.457031 146.457031s146.457031-65.570312 146.457031-146.457031c-.050781-4.835938-.476562-9.660157-1.277343-14.429688 39.746093-12.238281 66.820312-49.019531 66.691406-90.605469zm-211.871094 237.5c-73.121093-.082031-132.371093-59.335938-132.457031-132.457031 0-65.199219 106.289062-227.167969 132.457031-266.054688 11.390625 16.929688 37.960938 57.199219 64.339844 102.621094l.898437 1.554687c1.566407 2.703126 3.128907 5.425782 4.6875 8.160157 1.285157 2.253906 2.546876 4.488281 3.785157 6.699219.679687 1.203124 1.363281 2.402343 2.042969 3.625 29.882812 53.625 48.585937 96.511718 54.554687 125.367187l.023437.074219c1.292969 5.902344 2 11.914062 2.113282 17.953125-.085938 73.117187-59.332032 132.367187-132.445313 132.457031zm142.34375-160.625c-6-23.636719-18.542969-53.96875-37.4375-90.601562-11.851562-23.066407-25-46.265626-37.800781-67.71875 18.253906-33.675782 39.714844-66.660157 49.78125-81.742188 19.375 29.023438 80.96875 124.339844 80.96875 163.199219.117188 34.949219-22.300781 65.988281-55.511719 76.863281zm-90.769531 47.453125c-16.273438-.003906-30.289062 11.488281-33.46875 27.449219-3.179688 15.964844 5.359375 31.949218 20.394531 38.183594 15.03125 6.230468 32.378907.976562 41.425781-12.554688 9.046876-13.527344 7.273438-31.566406-4.230468-43.078125-6.382813-6.421875-15.066406-10.023437-24.121094-10zm14.226562 48.339844c-7.855468 7.855469-20.59375 7.855469-28.449218 0-7.855469-7.855469-7.855469-20.589844 0-28.449219 7.855468-7.855469 20.59375-7.855469 28.449218.003906 3.804688 3.753906 5.945313 8.875 5.945313 14.222656 0 5.347657-2.144531 10.46875-5.949219 14.222657zm7.652344-166.148438c-1.3125-1.3125-3.09375-2.050781-4.953125-2.050781-1.855469 0-3.636719.738281-4.949219 2.050781l-156.308593 156.308594c-1.3125 1.3125-2.050781 3.09375-2.050781 4.949219 0 1.859375.738281 3.640625 2.050781 4.953125l19.304687 19.304687c1.3125 1.316406 3.09375 2.054688 4.949219 2.054688 1.859375 0 3.640625-.738282 4.953125-2.054688l156.308594-156.308594c1.316406-1.3125 2.054687-3.09375 2.054687-4.953124 0-1.855469-.738281-3.636719-2.054687-4.949219zm-141.945312 170.6875-9.410156-9.410156 146.402343-146.398437 9.40625 9.378906zm0 0"/></svg>