<svg height="467pt" viewBox="0 -14 467.06067 467" width="467pt" xmlns="http://www.w3.org/2000/svg"><path d="m441.734375.03125h-416.097656c-9.121094-.1132812-17.597657 4.6875-22.191407 12.566406-4.59375 7.882813-4.59375 17.625 0 25.503906 4.59375 7.882813 13.070313 12.679688 22.191407 12.566407h3.359375l58.289062 178.710937c2.8125 9.257813 11.460938 15.492188 21.128906 15.234375 9.644532.046875 18.167969-6.273437 20.925782-15.515625l17.765625-57.117187c1.007812-3.238281 3.929687-5.503907 7.316406-5.667969s6.515625 1.808594 7.828125 4.9375l65.308594 155.066406c3.363281 8.25 11.421875 13.613282 20.332031 13.527344h.101563c8.9375.054688 17-5.371094 20.316406-13.675781l56.914062-138.359375c1.148438-3.136719 4.203125-5.164063 7.539063-5 3.3125-.019532 6.285156 2.035156 7.445312 5.140625 3.238281 8.300781 11.152344 13.839843 20.0625 14.042969 8.90625.203124 17.066407-4.972657 20.675781-13.121094l61.257813-138.226563c13.890625-.246093 24.984375-11.644531 24.855469-25.539062-.128906-13.890625-11.429688-25.0820315-25.324219-25.074219zm-73.601563 183.152344c-1.230468 3.054687-4.269531 4.984375-7.558593 4.800781-3.269531-.035156-6.183594-2.078125-7.328125-5.140625-3.253906-8.421875-11.328125-14-20.359375-14.050781h-.214844c-8.953125-.023438-17.023437 5.382812-20.402344 13.671875l-56.910156 138.355468c-1.199219 3.046876-4.148437 5.046876-7.425781 5.023438-3.261719.027344-6.21875-1.925781-7.472656-4.9375l-65.316407-155.097656c-3.386719-8.207032-11.410156-13.546875-20.289062-13.503906-.375 0-.746094 0-1.117188.027343-9.28125.390625-17.300781 6.601563-20 15.488281l-17.777343 57.121094c-.972657 3.402344-4.109376 5.730469-7.652344 5.671875-3.546875.144531-6.738282-2.15625-7.722656-5.570312l-56.863282-174.375h118.363282l23.398437 71.757812c2.546875 8.132813 10.128906 13.632813 18.648437 13.535157h.144532c8.578125.042968 16.15625-5.574219 18.609375-13.792969.703125-2.253907 2.738281-3.832031 5.097656-3.945313 2.359375-.113281 4.535156 1.257813 5.453125 3.433594l14.085938 33.445312c3.304687 8.039063 11.121093 13.300782 19.816406 13.34375h.304687c8.582031.066407 16.386719-4.972656 19.859375-12.820312l47.542969-104.957031h57.199219l-24.105469 54.375c-1.566406 3.535156.03125 7.671875 3.566406 9.238281 3.535157 1.566406 7.667969-.03125 9.234375-3.566406l26.617188-60.054688h19.328125zm-191.300781-132.515625h142.855469l-44.925781 99.175781c-1.277344 2.835938-4.117188 4.640625-7.222657 4.597656-3.109374-.042968-5.898437-1.921875-7.101562-4.789062l-14.082031-33.445313c-3.019531-7.292969-10.152344-12.039062-18.046875-12-.328125 0-.660156.007813-.996094.023438-8.25.347656-15.382812 5.871093-17.78125 13.773437-.730469 2.335938-2.886719 3.933594-5.335938 3.949219-2.445312.015625-4.625-1.550781-5.386718-3.875zm264.90625-14h-416.101562c-4.09375.078125-7.910157-2.0625-9.980469-5.597657-2.066406-3.53125-2.066406-7.90625 0-11.441406 2.070312-3.535156 5.886719-5.671875 9.980469-5.597656h416.097656c4.09375-.074219 7.910156 2.0625 9.980469 5.597656 2.070312 3.535156 2.070312 7.910156 0 11.441406-2.070313 3.535157-5.886719 5.675782-9.980469 5.597657zm-229.859375 308.988281c-.007812 3.859375-3.132812 6.984375-6.992187 6.988281h-14.402344l11.949219 11.949219c2.734375 2.730469 2.734375 7.164062 0 9.898438-2.734375 2.734374-7.164063 2.734374-9.898438 0l-21.855468-21.847657h-34.304688l15.277344 15.28125h22.972656c3.867188 0 7 3.132813 7 7 0 3.863281-3.132812 7-7 7h-8.964844l4.988282 4.992188c2.734374 2.730469 2.734374 7.164062 0 9.898437-2.730469 2.734375-7.164063 2.734375-9.898438 0l-4.992188-4.972656v8.976562c0 3.867188-3.132812 7-7 7-3.867187 0-7-3.132812-7-7v-22.976562l-15.28125-15.28125v34.304688l21.851563 21.847656c2.730469 2.734375 2.730469 7.167968 0 9.902344-2.734375 2.734374-7.167969 2.734374-9.902344 0l-11.941406-11.972657v14.398438c0 3.867187-3.132813 7-7 7-3.863281 0-7-3.132813-7-7v-14.398438l-11.957031 11.960938c-2.734375 2.734375-7.167969 2.734375-9.902344 0s-2.734375-7.167969 0-9.902344l21.847656-21.847656v-34.304688l-15.277344 15.28125v22.976563c0 3.867187-3.136718 7-7 7-3.867187 0-7-3.132813-7-7v-8.964844l-4.996093 4.996094c-2.734375 2.734375-7.167969 2.734375-9.902344 0s-2.734375-7.164063 0-9.898438l4.992187-4.992187h-8.96875c-3.863281 0-7-3.136719-7-7 0-3.867188 3.136719-7 7-7h22.964844l15.28125-15.28125h-34.292968l-21.847657 21.847656c-2.734375 2.734375-7.164062 2.734375-9.898437 0s-2.734375-7.164063 0-9.898437l11.957031-11.972657h-14.398437c-3.867188 0-7-3.132812-7-7 0-3.867187 3.132812-7 7-7h14.398437l-11.945313-11.949219c-2.734374-2.734374-2.734374-7.164062 0-9.898437 2.734376-2.734375 7.164063-2.734375 9.898438 0l21.835938 21.847656h34.304687l-15.28125-15.28125h-22.976563c-3.863281 0-7-3.132812-7-7 0-3.863281 3.136719-7 7-7h8.964844l-4.996094-4.996093c-2.734374-2.734376-2.734374-7.164063 0-9.898438 2.734376-2.734375 7.167969-2.734375 9.902344 0l4.996094 4.996094v-8.960938c0-3.867187 3.132812-7 7-7 3.863281 0 7 3.132813 7 7v22.972656l15.277344 15.28125v-34.300781l-21.847656-21.847656c-2.734376-2.734375-2.734376-7.167969 0-9.902344 2.734374-2.734375 7.167968-2.734375 9.902343 0l11.964844 11.9375v-14.398437c0-3.867188 3.136719-7 7-7 3.867187 0 7 3.132812 7 7v14.398437l11.949219-11.949219c2.734375-2.734374 7.167968-2.734374 9.902344 0 2.730468 2.734376 2.730468 7.167969 0 9.902344l-21.851563 21.859375v34.304688l15.28125-15.28125v-22.976563c0-3.867187 3.132813-7 7-7s7 3.132813 7 7v8.972656l4.996094-4.996093c2.734375-2.734375 7.167969-2.734375 9.902343 0 2.730469 2.734375 2.730469 7.167969 0 9.898437l-4.996093 4.996094h8.972656c3.867187 0 7 3.136719 7 7 0 3.867188-3.132813 7-7 7h-22.988281l-15.277344 15.28125h34.304688l21.847656-21.847656c2.734375-2.734375 7.164062-2.734375 9.898437 0s2.734375 7.164062 0 9.898437l-11.941406 11.9375h14.402344c3.867187.003907 7 3.144531 6.992187 7.011719zm246.890625-29.28125c0 3.867188-3.132812 7-7 7h-8.882812l7.726562 7.730469c2.734375 2.734375 2.734375 7.164062 0 9.898437s-7.164062 2.734375-9.898437 0l-17.628906-17.625h-24.746094l17.917968 17.921875c2.734376 2.734375 2.734376 7.164063 0 9.898438-2.734374 2.734375-7.164062 2.734375-9.898437 0l-17.921875-17.921875v24.746094l17.628906 17.628906c2.734375 2.734375 2.734375 7.167968 0 9.898437-2.734375 2.734375-7.167968 2.734375-9.898437 0l-7.730469-7.726562v8.875c0 3.867187-3.132812 7-7 7s-7-3.132813-7-7v-8.875l-7.726562 7.726562c-2.734376 2.734375-7.167969 2.734375-9.902344 0-2.730469-2.730469-2.730469-7.164062 0-9.898437l17.628906-17.628906v-24.75l-17.910156 17.921874c-2.734375 2.734376-7.167969 2.734376-9.902344 0-2.734375-2.734374-2.734375-7.164062 0-9.898437l17.921875-17.921875h-24.746094l-17.625 17.625c-2.734375 2.734375-7.167969 2.734375-9.902343 0-2.734376-2.734375-2.734376-7.164062 0-9.898438l7.730468-7.730468h-8.875c-3.863281 0-7-3.132813-7-7 0-3.863282 3.136719-7 7-7h8.878906l-7.734374-7.726563c-2.734376-2.734375-2.734376-7.167969 0-9.898437 2.734374-2.734375 7.167968-2.734375 9.902343 0l17.625 17.625h24.753907l-17.929688-17.925782c-2.734375-2.734374-2.734375-7.167968 0-9.902343s7.167969-2.734375 9.902344 0l17.921875 17.925781v-24.742188l-17.628907-17.625c-2.730468-2.734374-2.730468-7.167968 0-9.902343 2.734376-2.734375 7.167969-2.734375 9.902344 0l7.726563 7.730469v-8.875c0-3.863282 3.136719-7 7-7 3.867187 0 7 3.136718 7 7v8.878906l7.730469-7.730469c2.730468-2.734375 7.164062-2.734375 9.898437 0s2.734375 7.167969 0 9.902344l-17.628906 17.625v24.75l17.921875-17.925781c2.734375-2.730469 7.164062-2.730469 9.898437 0 2.734375 2.734374 2.734375 7.167968 0 9.902343l-17.921875 17.921875h24.75l17.628906-17.625c2.734376-2.734375 7.164063-2.734375 9.898438 0 2.734375 2.730469 2.734375 7.164063 0 9.898438l-7.738281 7.722656h8.875c1.859375 0 3.640625.734375 4.957031 2.046875 1.3125 1.316406 2.050781 3.097656 2.050781 4.953125zm-218.308593-67.105469c1.503906 3.5625-.167969 7.667969-3.734376 9.167969-3.5625 1.5-7.667968-.167969-9.167968-3.734375l-35.152344-83.453125c-1.5-3.566406.171875-7.671875 3.734375-9.171875s7.667969.171875 9.167969 3.734375zm0 0"/></svg>