<svg height="472pt" viewBox="0 -44 472.0961 472" width="472pt" xmlns="http://www.w3.org/2000/svg"><path d="m426.226562 111.835938c.054688-1.039063.078126-2.042969.078126-3.039063-.046876-41.773437-33.898438-75.625-75.667969-75.671875-14.707031-.054688-29.101563 4.238281-41.375 12.335938-26.304688-34.121094-69.28125-50.960938-111.761719-43.785157-42.484375 7.175781-77.546875 37.1875-91.1875 78.054688-8.714844-3.234375-17.933594-4.882813-27.226562-4.875-41.488282.039062-75.910157 32.105469-78.882813 73.488281s26.507813 78.039062 67.566406 84.007812l-34.4375 27.640626c-2.320312 1.859374-3.210937 4.984374-2.21875 7.789062.988281 2.804688 3.644531 4.679688 6.617188 4.671875h74.210937l-48.863281 102.183594c-1.441406 3.007812-.558594 6.613281 2.105469 8.617187 2.664062 2.003906 6.375 1.847656 8.863281-.371094l167.867187-149.597656h52.421876l-62.753907 50.339844c-2.324219 1.859375-3.21875 4.984375-2.226562 7.792969.992187 2.808593 3.648437 4.679687 6.625 4.671875h56.261719l-37.566407 78.550781c-1.441406 3.011719-.554687 6.621094 2.117188 8.621094 2.671875 2.003906 6.386719 1.839843 8.871093-.390625l133.253907-119.519532c2.15625-1.9375 2.898437-5.003906 1.863281-7.710937-1.035156-2.710937-3.636719-4.5-6.535156-4.5h-53.601563l8.570313-17.867187h61.074218c31.015626.023437 57.238282-22.960938 61.28125-53.714844 4.039063-30.753906-15.355468-59.734375-45.324218-67.722656zm-335.496093 237.429687 38.628906-80.773437c1.027344-2.167969.875-4.710938-.40625-6.738282s-3.511719-3.257812-5.910156-3.261718h-65.421875l122.527344-98.363282-30.277344 63.117188c0 .035156 0 .070312-.03125.101562-.238282.503906-.414063 1.03125-.523438 1.578125v.085938c-.082031.414062-.125.835937-.128906 1.261719 0 .082031.019531.164062.023438.242187 0 .164063.035156.320313.050781.480469.035156.386718.105469.765625.207031 1.140625.042969.160156.089844.3125.144531.472656.140625.394531.320313.777344.53125 1.144531.046875.078125.066407.171875.117188.25.046875.078125.039062.042969.058593.070313.289063.4375.625.839843 1.003907 1.203125.105469.097656.21875.179687.328125.269531.292968.253906.609375.484375.941406.683594.15625.097656.316406.179687.480469.261719.324219.160156.664062.292968 1.015625.398437.167968.054687.324218.113281.496094.152344.476562.113281.964843.179687 1.457031.1875h.140625 64.679687zm232.851562-87.394531c1.28125 2.035156 3.515625 3.269531 5.921875 3.269531h46.441406l-93.488281 83.863281 27.199219-56.898437c1.027344-2.167969.875-4.710938-.40625-6.738281-1.28125-2.03125-3.511719-3.261719-5.910156-3.261719h-47.457032l60.800782-48.800781h16.976562l-10.476562 21.839843c-1.027344 2.164063-.875 4.699219.398437 6.726563zm86.695313-42.597656h-242.96875l38.777344-80.839844c1.40625-2.945313.589843-6.472656-1.96875-8.5-2.558594-2.03125-6.175782-2.019532-8.726563.019531l-111.300781 89.320313h-5c-36.011719 0-65.203125-29.191407-65.203125-65.203126 0-36.007812 29.191406-65.199218 65.203125-65.199218 8.179687.023437 16.285156 1.613281 23.871094 4.679687-2.753907 17.054688-1.75 34.507813 2.949218 51.132813 1.230469 3.664062 5.199219 5.636718 8.863282 4.40625 3.664062-1.230469 5.636718-5.199219 4.40625-8.867188-4.371094-16.109375-4.902344-33.023437-1.554688-49.378906 10.136719-39.023438 42.1875-68.488281 81.921875-75.316406s79.785156 10.25 102.367187 43.648437c1.09375 1.617188 2.820313 2.703125 4.75 2.992188 1.933594.289062 3.902344-.238281 5.425782-1.464844 10.902344-8.824219 24.515625-13.621094 38.542968-13.578125 17.738282-.117188 34.660157 7.460938 46.386719 20.773438 11.722657 13.316406 17.101563 31.058593 14.742188 48.640624-.46875 3.757813 2.132812 7.203126 5.871093 7.785157 24.664063 3.824219 42.222657 25.996093 40.296876 50.882812-1.929688 24.886719-22.699219 44.085938-47.65625 44.066407zm0 0"/></svg>