<svg height="461pt" viewBox="-102 0 461 461.78" width="461pt" xmlns="http://www.w3.org/2000/svg"><path d="m216.257812 0h-175.601562c-22.226562.0195312-40.238281 18.03125-40.265625 40.257812v381.261719c.027344 22.222657 18.03125 40.230469 40.253906 40.261719h175.601563c22.222656-.03125 40.230468-18.039062 40.257812-40.261719v-381.261719c-.027344-22.21875-18.027344-40.226562-40.246094-40.257812zm26.257813 421.523438c-.015625 14.496093-11.761719 26.242187-26.257813 26.261718h-175.601562c-14.492188-.019531-26.238281-11.765625-26.253906-26.261718v-381.265626c.015625-14.496093 11.761718-26.238281 26.253906-26.257812h175.601562c14.492188.019531 26.238282 11.761719 26.257813 26.257812zm-77.84375-92.722657v-209.378906c-.210937-19.855469-16.363281-35.835937-36.214844-35.835937-19.855469 0-36.007812 15.980468-36.214843 35.835937v209.359375c-20.132813 15.5-28.164063 42.101562-19.976563 66.15625s30.78125 40.226562 56.191406 40.226562c25.410157 0 48-16.171874 56.1875-40.226562s.15625-50.65625-19.972656-66.15625zm-36.21875 92.386719c-19.957031 0-37.570313-13.042969-43.390625-32.132812-5.820312-19.089844 1.523438-39.742188 18.085938-50.875 1.933593-1.300782 3.089843-3.476563 3.089843-5.804688v-212.953125c.164063-12.152344 10.058594-21.917969 22.214844-21.917969 12.152344 0 22.050781 9.765625 22.210937 21.917969v212.953125c.003907 2.328125 1.160157 4.503906 3.089844 5.804688 16.5625 11.132812 23.90625 31.78125 18.089844 50.871093-5.820312 19.09375-23.433594 32.136719-43.390625 32.136719zm7-78.167969v-29.230469c0-3.867187-3.132813-7-7-7-3.863281 0-7 3.132813-7 7v29.230469c-16.785156 3.582031-28.160156 19.257813-26.359375 36.324219 1.800781 17.070312 16.195312 30.027344 33.359375 30.027344s31.558594-12.957032 33.359375-30.027344c1.800781-17.066406-9.574219-32.742188-26.359375-36.324219zm-7 52.351563c-10.792969 0-19.542969-8.75-19.542969-19.542969s8.75-19.542969 19.542969-19.542969 19.542969 8.75 19.542969 19.542969c-.007813 10.789063-8.753906 19.53125-19.542969 19.542969zm-86.101563-296.652344c0-3.863281 3.132813-7 7-7h19.019532c3.863281 0 7 3.136719 7 7 0 3.867188-3.136719 7-7 7h-19.019532c-3.867187 0-7-3.132812-7-7zm0 30.726562c0-3.867187 3.132813-7 7-7h19.019532c3.863281 0 7 3.132813 7 7 0 3.863282-3.136719 7-7 7h-19.019532c-3.867187 0-7-3.136718-7-7zm0 30.722657c0-3.867188 3.132813-7 7-7h19.019532c3.863281 0 7 3.132812 7 7 0 3.867187-3.136719 7-7 7h-19.019532c-3.867187 0-7-3.132813-7-7zm0 30.722656c0-3.863281 3.132813-7 7-7h19.019532c3.863281 0 7 3.136719 7 7 0 3.867187-3.136719 7-7 7h-19.019532c-3.867187 0-7.003906-3.136719-7-7.003906zm0 30.730469c0-3.867188 3.132813-7 7-7h19.019532c3.863281 0 7 3.132812 7 7 0 3.863281-3.136719 7-7 7h-19.019532c-3.867187 0-7.003906-3.136719-7-7.003906zm0 30.722656c0-3.867188 3.132813-7 7-7h19.019532c3.863281 0 7 3.132812 7 7s-3.136719 7-7 7h-19.019532c-1.859374 0-3.640624-.738281-4.953124-2.054688-1.3125-1.3125-2.050782-3.09375-2.046876-4.953124zm0 30.722656c0-3.863281 3.132813-7 7-7h19.019532c3.863281 0 7 3.136719 7 7 0 3.867188-3.136719 7-7 7h-19.019532c-1.859374 0-3.640624-.738281-4.953124-2.050781-1.3125-1.316406-2.050782-3.097656-2.046876-4.957031zm26 37.730469h-19c-3.867187 0-7-3.136719-7-7 0-3.867187 3.132813-7 7-7h19.019532c3.863281 0 7 3.132813 7 7 0 3.863281-3.136719 7-7 7zm132.253907-246.402344c-13.4375 0-24.332031 10.894531-24.332031 24.332031 0 13.441407 10.894531 24.332032 24.332031 24.332032s24.332031-10.890625 24.332031-24.332032c-.007812-13.425781-10.882812-24.3125-24.3125-24.339843zm0 34.660157c-5.707031 0-10.332031-4.625-10.332031-10.332032 0-5.707031 4.628906-10.332031 10.335937-10.332031 5.707031.003906 10.332031 4.628906 10.328125 10.335937-.011719 5.691407-4.621094 10.304688-10.3125 10.320313zm-88.972657-34.117188c13.203126 0 22.402344-10.425781 22.402344-25.25 0-14.746094-9.226562-25.175781-22.402344-25.175781-13.117187 0-22.398437 10.425781-22.398437 25.175781-.011719 14.820312 9.28125 25.25 22.398437 25.25zm0-39.433594c5.890626 0 10 5.886719 10 14.183594s-4.109374 14.257812-10 14.257812c-5.8125 0-9.925781-5.957031-9.925781-14.257812s4.113281-14.183594 9.925781-14.183594zm42.105469 15.453125c8.257813.0625 15.054688-6.480469 15.308594-14.738281-.296875-8.226562-7.054687-14.746094-15.289063-14.746094-8.238281 0-14.992187 6.519532-15.292968 14.746094.253906 8.242188 7.027344 14.78125 15.273437 14.738281zm0-23.007812c3.382813-.109375 6.492188 1.84375 7.859375 4.9375 1.367188 3.097656.71875 6.710937-1.636718 9.140625-2.355469 2.425781-5.953126 3.179687-9.085938 1.902344-3.132812-1.273438-5.179688-4.324219-5.167969-7.710938 0-4.472656 3.558594-8.136719 8.03125-8.269531zm0 0"/></svg>