<svg height="421pt" viewBox="0 0 421 421.77146" width="421pt" xmlns="http://www.w3.org/2000/svg"><path d="m107.847656 108.886719c-19.410156 0-35.144531 15.734375-35.144531 35.144531s15.734375 35.144531 35.144531 35.144531c19.40625 0 35.140625-15.734375 35.140625-35.144531-.03125-19.394531-15.746093-35.113281-35.140625-35.144531zm0 56.285156c-11.679687 0-21.144531-9.464844-21.144531-21.144531 0-11.675782 9.464844-21.144532 21.144531-21.144532 11.675782 0 21.140625 9.46875 21.140625 21.144532-.011719 11.671875-9.46875 21.132812-21.140625 21.144531zm314.300782 45.714844c0-17.046875-2.074219-34.03125-6.171876-50.578125-.050781-.3125-.121093-.617188-.210937-.917969-3.273437-12.96875-7.785156-25.59375-13.46875-37.699219-.164063-.523437-.390625-1.023437-.675781-1.492187-5.285156-11.011719-11.515625-21.542969-18.625-31.476563-.324219-.675781-.757813-1.292968-1.28125-1.832031l-.050782-.039063c-6.878906-9.429687-14.527343-18.277343-22.863281-26.453124-.199219-.28125-.417969-.550782-.65625-.796876-.351562-.351562-.738281-.664062-1.160156-.933593-4.4375-4.25-9.054687-8.308594-13.847656-12.167969-.460938-.484375-.992188-.902344-1.570313-1.238281-2.738281-2.15625-5.53125-4.25-8.378906-6.273438-.453125-.429687-.957031-.792969-1.503906-1.089843-1.046875-2.003907-3.039063-3.34375-5.289063-3.558594-9.683593-6.335938-19.871093-11.863282-30.460937-16.527344-.472656-.289062-.980469-.519531-1.511719-.683594-12.515625-5.390625-25.53125-9.542968-38.855469-12.402344-.261718-.078124-.53125-.140624-.800781-.1875-61.28125-12.925781-125.140625 2.066407-174.269531 40.914063-49.125 38.851563-78.433594 97.535156-79.976563 160.148437v.027344l-.054687 1.699219c-.039063 1.199219-.078125 2.367187-.078125 3.558594 0 2.941406.089843 5.933593.226562 8.9375.054688 1.332031.125 2.648437.203125 3.953125.085938 1.304687.191406 2.621094.300782 3.9375.28125 3.535156.648437 7.039062 1.101562 10.519531.035156.28125.058594.5625.097656.84375v.085937c2.265625 16.863282 6.582032 33.382813 12.851563 49.199219.058593.179688.089843.359375.15625.535157.25.625.535156 1.234374.800781 1.851562.597656 1.453125 1.210938 2.902344 1.839844 4.339844.769531 1.765625 1.5625 3.519531 2.382812 5.257812.5 1.058594.992188 2.121094 1.511719 3.171875 1.109375 2.273438 2.265625 4.519531 3.457031 6.742188.277344.519531.546875 1.042969.828125 1.558593 7.792969 14.320313 17.226563 27.683594 28.105469 39.824219.183594.1875.382812.363281.585938.527344 52.964843 58.773437 134.402343 82.894531 210.828124 62.445313.492188-.082032.976563-.21875 1.4375-.402344 91.496094-25.242188 154.917969-108.414063 155.046876-203.328125zm-168.355469 192.203125c-1.566407.351562-3.140625.691406-4.722657.996094-1.585937.308593-3.199218.59375-4.828124.867187-1.628907.269531-3.171876.53125-4.769532.761719-1.59375.234375-3.289062.4375-4.941406.632812-1.652344.195313-3.203125.375-4.800781.527344-1.675781.15625-3.363281.273438-5.054688.402344l-.796875.046875 183.835938-183.835938c0 .285157-.046875.566407-.066406.847657-.148438 2.15625-.273438 4.3125-.492188 6.449218-.132812 1.34375-.335938 2.667969-.5 4-.230469 1.914063-.441406 3.839844-.730469 5.734375-.210937 1.414063-.492187 2.800781-.734375 4.199219-.3125 1.800781-.605468 3.601562-.964844 5.386719-.292968 1.445312-.648437 2.871093-.976562 4.308593-.398438 1.707032-.753906 3.417969-1.199219 5.105469-.082031.3125-.175781.617188-.257812.925781l-140.871094 140.921876c-.800781.210937-1.601563.4375-2.398437.636718-1.582032.382813-3.152344.738282-4.730469 1.085938zm-49.527344-333.941406c-4.1875-.953126-7.15625-4.675782-7.15625-8.972657 0-4.292969 2.96875-8.015625 7.15625-8.96875zm20.398437-54.636719c1.691407.117187 3.378907.226562 5.054688.398437 1.597656.152344 3.199219.339844 4.800781.53125 1.597657.1875 3.113281.375 4.664063.59375l-20.917969 20.917969v-22.769531c.523437 0 1.050781 0 1.570313.039062 1.621093.070313 3.226562.179688 4.832031.289063zm38.511719 6.488281c1.535157.398438 3.0625.847656 4.582031 1.304688 1.519532.453124 3.082032.953124 4.621094 1.453124 1.535156.5 2.980469.988282 4.449219 1.511719.984375.347657 1.957031.71875 2.933594 1.082031l-61.496094 61.464844v-31.070312l37.601563-37.597656c.882812.203124 1.769531.398437 2.648437.609374 1.550781.402344 3.113281.816407 4.667969 1.246094zm35.554688 13.566406c1.371093.683594 2.734375 1.382813 4.085937 2.097656 1.429688.753907 2.847656 1.523438 4.253906 2.3125 1.332032.742188 2.652344 1.503907 3.960938 2.277344.96875.574219 1.929688 1.164063 2.890625 1.753906l-95.65625 95.703126v-31.101563l75.476563-75.429687.640624.289062c1.460938.683594 2.910157 1.386719 4.351563 2.101562zm62.230469 48.652344c1.039062 1.199219 2.085937 2.4375 3.097656 3.679688.960937 1.203124 1.886718 2.402343 2.824218 3.601562l.570313.75-149.1875 149.238281v-31.113281l134.832031-134.832031c.535156.570312 1.074219 1.136719 1.628906 1.707031 1.097657 1.171875 2.199219 2.34375 3.269532 3.546875 1.007812 1.125 1.988281 2.289063 2.972656 3.425781zm21.558593 30.726562c.773438 1.367188 1.566407 2.730469 2.308594 4.117188.746094 1.390625 1.449219 2.800781 2.164063 4.222656l.109374.214844-168.835937 168.847656v-31.0625l157.441406-157.488281c.667969 1.015625 1.320313 2.042969 1.96875 3.070313.847657 1.335937 1.703125 2.664062 2.519531 4.023437.8125 1.359375 1.558594 2.699219 2.332032 4.058594zm18.3125 43.9375c.132813.46875.265625.9375.402344 1.40625l-182.96875 182.964844v-31.109375l175.074219-175.078125c.488281 1.203125.945312 2.378906 1.410156 3.570313.5625 1.441406 1.144531 2.875 1.671875 4.335937.558594 1.542969 1.0625 3.109375 1.601563 4.671875.484374 1.457031.996093 2.902344 1.449218 4.375.480469 1.613281.914063 3.242188 1.367188 4.867188zm-13.839843 141.601563c-.714844 1.410156-1.414063 2.828125-2.164063 4.21875-.746094 1.390625-1.53125 2.753906-2.308594 4.121094-.78125 1.367187-1.535156 2.71875-2.335937 4.054687-.804688 1.335938-1.667969 2.6875-2.519532 4.023438-.847656 1.335937-1.644531 2.621094-2.507812 3.910156-.859375 1.289062-1.792969 2.613281-2.707031 3.910156-.910157 1.296875-1.757813 2.519532-2.671875 3.753906-.910156 1.230469-1.925782 2.539063-2.902344 3.800782-.976562 1.257812-1.867188 2.398437-2.824219 3.597656-1.011719 1.246094-2.054687 2.460938-3.097656 3.679688-.984375 1.148437-1.964844 2.300781-2.972656 3.429687-1.070313 1.199219-2.171875 2.371094-3.269531 3.542969-1.035157 1.101562-2.066407 2.199218-3.125 3.277344-1.128907 1.148437-2.28125 2.265624-3.433594 3.382812-1.082032 1.046875-2.167969 2.097656-3.269532 3.121094-1.199218 1.09375-2.402343 2.164062-3.601562 3.230468-1.128906.996094-2.257812 2-3.410156 2.957032-1.234375 1.035156-2.484375 2.050781-3.742188 3.054687-1.179687.945313-2.359375 1.886719-3.5625 2.800781-1.28125.976563-2.578125 1.933594-3.875 2.878907-1.226562.890625-2.453125 1.773437-3.699218 2.632812-1.324219.917969-2.664063 1.8125-4 2.695313-1.265626.832031-2.542969 1.652344-3.832032 2.460937-1.367187.851563-2.746094 1.6875-4.132812 2.503907-1.3125.773437-2.632813 1.535156-3.960938 2.28125-1.410156.800781-2.824218 1.570312-4.253906 2.3125-1.351562.714843-2.714844 1.410156-4.085938 2.09375-1.445312.71875-2.894531 1.417968-4.351562 2.105468-.976562.457032-1.960938.890625-2.945312 1.332032l99.601562-99.644532c-.644531 1.4375-1.273438 2.882813-1.949219 4.300782-.675781 1.414062-1.375 2.78125-2.082031 4.1875zm-168.726563 62.570313 186.625-186.621094c.097656.53125.195313 1.074218.292969 1.628906.242187 1.402344.523437 2.800781.734375 4.199219.289062 1.902343.5 3.820312.730469 5.738281.164062 1.335938.367187 2.65625.5 4 .21875 2.136719.34375 4.292969.492187 6.449219.078125 1.140625.199219 2.277343.257813 3.429687.042968.839844.03125 1.695313.0625 2.539063l-189.695313 189.699219zm124.777344-297.25-124.777344 124.773437v-31.0625l107.554687-107.601563c.296876.214844.597657.421876.894532.636719 1.304687.949219 2.597656 1.902344 3.875 2.882813 1.199218.914062 2.398437 1.855468 3.5625 2.796875 1.257812 1.007812 2.507812 2.019531 3.742187 3.058593 1.152344.964844 2.28125 1.957032 3.410157 2.953126.582031.511718 1.160156 1.039062 1.738281 1.5625zm-138.777344 254.589843c-8.429687 7.363281-21.15625 6.789063-28.886719-1.300781-7.734375-8.085938-7.734375-20.828125 0-28.917969 7.730469-8.085937 20.457032-8.660156 28.886719-1.300781zm-189.730469-102.5625c-.042968-1.34375-.089844-2.6875-.105468-4.035156h49.707031c5.070312 0 9.179687 4.109375 9.179687 9.179687 0 5.070313-4.109375 9.179688-9.179687 9.179688h-48.671875c-.503906-4.84375-.777344-9.617188-.929688-14.324219zm45.671875 120.152344c-1.167969-1.398437-2.292969-2.828125-3.421875-4.257813-1.199218-1.539062-2.445312-3.066406-3.597656-4.644531-1.261719-1.691406-2.46875-3.421875-3.671875-5.160156-1.144531-1.648437-2.265625-3.316406-3.359375-5.003906-1.011719-1.554688-2.039062-3.097657-3.007812-4.683594-1.890626-3.101563-3.695313-6.253906-5.410157-9.457031-.621093-1.148438-1.199219-2.324219-1.789062-3.488282-1.421875-2.800781-2.800781-5.621093-4.089844-8.488281-.261719-.582031-.53125-1.15625-.800781-1.738281 12.332031-3.5 25.488281 1.59375 32.25 12.480469 6.765625 10.890625 5.496094 24.941406-3.105469 34.445312zm9.359375 10.398437c13.746094-14.023437 16.121094-35.628906 5.753906-52.308593-10.367187-16.675781-30.792968-24.105469-49.453124-17.988281-3.710938-10.386719-6.53125-21.070313-8.4375-31.933594h46.707031c12.804687 0 23.179687-10.378906 23.179687-23.179688 0-12.804687-10.375-23.179687-23.179687-23.179687h-49.347657c6.347657-101.078125 88.269532-180.894531 189.476563-184.609375v22.917968c-12.003906 1-21.238281 11.03125-21.238281 23.078126 0 12.046874 9.234375 22.078124 21.238281 23.078124v21.359376.203124 166.746094c-14.628906-6.304687-31.671875-1.910156-41.429687 10.679688-9.757813 12.59375-9.757813 30.191406 0 42.785156 9.757812 12.59375 26.800781 16.984375 41.429687 10.679688v71.882812c-51.023437-1.789062-99.34375-23.394531-134.699219-60.226562zm0 0"/></svg>