<svg height="465pt" viewBox="0 -17 465.94796 465" width="465pt" xmlns="http://www.w3.org/2000/svg"><path d="m373.269531 76.859375c-.113281-.199219-.238281-.390625-.371093-.578125-.558594-.636719-1.164063-1.222656-1.730469-1.851562-.796875-.878907-1.597657-1.730469-2.421875-2.597657-5.273438-5.648437-10.867188-10.988281-16.753906-16-1.046876-.890625-2.085938-1.792969-3.15625-2.667969-1.617188-1.324218-3.269532-2.605468-4.929688-3.878906-1.234375-.945312-2.480469-1.878906-3.738281-2.800781-.964844-.703125-1.894531-1.460937-2.875-2.148437-.148438-.101563-.328125-.140626-.480469-.234376-60.730469-42.46875-139.90625-48.074218-206.015625-14.585937-66.113281 33.484375-108.433594 100.632813-110.128906 174.722656l-.046875 1.4375c-.035156 1.121094-.070313 2.242188-.070313 3.371094 0 2.796875.085938 5.648437.214844 8.511719.054687 1.269531.117187 2.539062.195313 3.804687.078124 1.199219.179687 2.441407.28125 3.671875.265624 3.410156.621093 6.800782 1.0625 10.164063.03125.246093.058593.496093.089843.746093v.070313c2.160157 16.085937 6.277344 31.84375 12.257813 46.929687.054687.171876.085937.34375.152344.515626.242187.601562.511718 1.199218.757812 1.78125.566406 1.378906 1.148438 2.753906 1.742188 4.117187.734374 1.6875 1.492187 3.359375 2.273437 5.019531.476563 1.011719.953125 2.023438 1.445313 3.027344 1.066406 2.164062 2.164062 4.304688 3.292968 6.421875.269532.5.527344 1.003906.800782 1.5 7.429687 13.664063 16.425781 26.417969 26.800781 38 .175781.179687.363281.347656.558593.503906 44.675782 49.558594 111.023438 73.71875 177.105469 64.5 66.078125-9.222656 123.277344-50.628906 152.675781-110.523437.085938-.148438.207032-.265625.289063-.421875 1.519531-3.101563 2.929687-6.277344 4.289063-9.480469.316406-.742188.613281-1.488281.917968-2.234375.800782-1.925781 1.5625-3.859375 2.300782-5.816406.519531-1.382813 1.015624-2.773438 1.507812-4.164063.453125-1.304687.898438-2.609375 1.328125-3.921875.585937-1.78125 1.148437-3.570312 1.6875-5.371093.09375-.320313.207031-.636719.300781-.957032.023438-.078125.019532-.167968.039063-.246094 19.203125-65.773437 3.496093-136.796874-41.648438-188.335937zm-40.742187-18.621094c2.628906 1.933594 5.207031 3.933594 7.738281 6 1.199219.992188 2.398437 2.027344 3.566406 3.050781 1.839844 1.601563 3.65625 3.199219 5.4375 4.855469.625.582031 1.230469 1.171875 1.847657 1.765625h-134.140626c-4.644531 0-8.410156-3.765625-8.410156-8.414062 0-4.644532 3.765625-8.410156 8.410156-8.410156h113.925782c.535156.382812 1.085937.757812 1.625 1.152343zm-297.820313 156.960938c-.046875-1.328125-.085937-2.65625-.101562-4h47.007812c4.648438 0 8.414063 3.765625 8.414063 8.414062 0 4.644531-3.765625 8.414063-8.414063 8.414063h-46.0625c-.449219-4.316406-.695312-8.605469-.84375-12.828125zm43.167969 113.476562c-1.203125-1.421875-2.320312-2.882812-3.464844-4.34375-1.015625-1.292969-2.046875-2.582031-3.027344-3.902343-1.203124-1.621094-2.359374-3.277344-3.511718-4.9375-1.066406-1.523438-2.101563-3.066407-3.097656-4.621094-.96875-1.484375-1.949219-2.960938-2.871094-4.476563-1.78125-2.933593-3.484375-5.90625-5.109375-8.917969-.574219-1.066406-1.109375-2.164062-1.664063-3.242187-1.328125-2.597656-2.605468-5.222656-3.816406-7.886719-.246094-.546875-.5-1.09375-.742188-1.644531 11.515626-3.097656 23.695313 1.71875 29.984376 11.847656 6.289062 10.128907 5.199218 23.183594-2.679688 32.128907zm143.894531 67.601563c-50.753906.019531-99.324219-20.636719-134.523437-57.199219 12.988281-13.488281 15.164062-34.074219 5.28125-49.976563-9.886719-15.902343-29.304688-23.066406-47.148438-17.390624-3.433594-9.660157-6.058594-19.585938-7.851562-29.675782h44.085937c12.378907 0 22.414063-10.035156 22.414063-22.414062s-10.035156-22.414063-22.414063-22.414063h-46.636719c3.960938-63.207031 39.632813-120.113281 94.792969-151.226562 55.160157-31.113281 122.316407-32.203125 178.457031-2.898438h-91.25c-12.375 0-22.410156 10.035157-22.410156 22.410157 0 12.378906 10.035156 22.414062 22.410156 22.414062h147.355469c39.652344 46.515625 54.046875 109.480469 38.546875 168.601562h-44.0625c-12.375 0-22.410156 10.035157-22.410156 22.414063s10.035156 22.410156 22.410156 22.410156h25.761719c-33.234375 58.632813-95.40625 94.894531-162.800781 94.945313zm176.398438-124.59375c-.527344 1.488281-1.089844 2.957031-1.65625 4.429687-.597657 1.558594-1.199219 3.121094-1.839844 4.660157-.398437.941406-.796875 1.867187-1.199219 2.800781-.546875 1.257812-1.125 2.507812-1.699218 3.75h-32.957032c-4.644531 0-8.410156-3.765625-8.410156-8.410157 0-4.644531 3.765625-8.414062 8.410156-8.414062h39.761719c-.136719.410156-.261719.808594-.402344 1.179688zm-196.136719-7.875c-18.558594 0-33.601562 15.042968-33.601562 33.601562 0 18.554688 15.042968 33.597656 33.601562 33.597656 18.554688 0 33.597656-15.042968 33.597656-33.597656-.019531-18.546875-15.050781-33.578125-33.597656-33.601562zm0 53.199218c-10.828125 0-19.601562-8.773437-19.601562-19.597656 0-10.824218 8.773437-19.601562 19.601562-19.601562 10.824219 0 19.597656 8.777344 19.597656 19.601562-.011718 10.820313-8.777344 19.589844-19.597656 19.601563zm87.597656-199.277343c-30.070312-.003907-54.445312 24.371093-54.449218 54.441406 0 30.070313 24.378906 54.445313 54.445312 54.445313 30.070312 0 54.445312-24.378907 54.445312-54.449219-.039062-30.039063-24.382812-54.386719-54.425781-54.429688zm0 94.882812c-22.335937.003907-40.445312-18.105469-40.449218-40.441406 0-22.335937 18.105468-40.445313 40.445312-40.445313 22.335938 0 40.445312 18.105469 40.445312 40.441407-.019531 22.324219-18.101562 40.417969-40.425781 40.453125zm-166.398437-101.058593c-18.671875 0-33.808594 15.136718-33.808594 33.808593 0 18.667969 15.136719 33.804688 33.808594 33.804688s33.808593-15.136719 33.808593-33.804688c-.027343-18.652343-15.136718-33.769531-33.789062-33.800781zm0 53.597656c-10.941407 0-19.808594-8.867188-19.808594-19.808594 0-10.9375 8.867187-19.804688 19.808594-19.804688 10.9375 0 19.808593 8.867188 19.808593 19.804688s-8.855468 19.808594-19.789062 19.832031zm342.574219-127.660156c-.496094-2.617188-2.4375-4.726563-5.007813-5.433594l-21.382813-5.921875-7.238281-20.945313c-.867187-2.519531-3.09375-4.328125-5.734375-4.660156-2.644531-.335938-5.25.859375-6.71875 3.082031l-12.226562 18.496094-22.1875.398437c-2.664063.050782-5.066406 1.609376-6.203125 4.019532-1.132813 2.410156-.800781 5.253906.855469 7.339844l13.820312 17.359374-6.460938 21.226563c-.777343 2.546875-.039062 5.316406 1.902344 7.140625s4.753906 2.386719 7.246094 1.453125l20.800781-7.78125 18.1875 12.707031c2.183594 1.523438 5.042969 1.679688 7.378907.394532 2.332031-1.28125 3.738281-3.777344 3.621093-6.4375l-.972656-22.167969 17.707031-13.371094c2.105469-1.609375 3.128906-4.269531 2.632813-6.875zm-31.734376 11.316406c-1.839843 1.386718-2.875 3.59375-2.773437 5.894531l.511719 11.675781-9.558594-6.667968c-1.890625-1.316407-4.308594-1.613282-6.460938-.800782l-10.945312 4.09375 3.40625-11.175781c.675781-2.199219.226562-4.59375-1.199219-6.398437l-7.277343-9.144532 11.683593-.214844c2.304688-.042968 4.441407-1.214843 5.710938-3.136718l6.441406-9.75 3.816406 11.046875c.753907 2.175781 2.53125 3.84375 4.75 4.460937l11.261719 3.113282zm-365.828124 340.726562 8.226562-18.207031c1.097656-2.425781.722656-5.265625-.96875-7.324219s-4.402344-2.980468-7-2.375l-19.453125 4.539063-14.769531-13.449219c-1.972656-1.800781-4.792969-2.320312-7.277344-1.347656-2.484375.976562-4.199219 3.277344-4.421875 5.9375l-1.6875 19.910156-17.355469 9.890625c-2.316406 1.320313-3.679687 3.839844-3.5234372 6.5.1601562 2.660156 1.8164062 4.996094 4.2695312 6.03125l18.398438 7.761719 4.042968 19.5625c.539063 2.609375 2.511719 4.6875 5.089844 5.359375 2.578125.667969 5.3125-.179688 7.058594-2.195313l13.070312-15.105468 19.859375 2.199218c2.648438.289063 5.230469-.945312 6.667969-3.1875 1.433594-2.246094 1.46875-5.109375.09375-7.390625zm-18.402344 11.15625c-2.289063-.257812-4.558594.632813-6.0625 2.378906l-6.199219 7.164063-1.917969-9.277344c-.464844-2.257812-2.011718-4.140625-4.132812-5.035156l-8.734375-3.679687 8.234375-4.691407c2-1.140625 3.316406-3.195312 3.511718-5.492187l.796876-9.441406 7 6.378906c1.707031 1.550781 4.0625 2.164062 6.304687 1.640625l9.234375-2.15625-3.90625 8.636719c-.945312 2.101562-.792969 4.53125.402344 6.5l4.898437 8.109374zm0 0"/></svg>