<svg height="471pt" viewBox="0 -28 471.56892 471" width="471pt" xmlns="http://www.w3.org/2000/svg"><path d="m471.566406 152.875c.023438-34.335938-12.449218-67.503906-35.082031-93.324219-.105469-.132812-.164063-.292969-.277344-.425781-.398437-.46875-.859375-.90625-1.28125-1.367188-.480469-.539062-.984375-1.058593-1.476562-1.601562-3.789063-4.066406-7.808594-7.910156-12.042969-11.507812-.722656-.617188-1.4375-1.234376-2.171875-1.835938-1.164063-.953125-2.351563-1.871094-3.542969-2.800781-.832031-.632813-1.667968-1.261719-2.511718-1.878907-.707032-.515624-1.386719-1.074218-2.105469-1.578124-.105469-.074219-.242188-.101563-.355469-.175782-42.863281-29.96875-98.734375-33.933594-145.402344-10.320312-46.664062 23.613281-76.5625 70.980468-77.804687 123.265625l-.035157 1.109375c-.027343.796875-.058593 1.617187-.058593 2.433594.035156 4.785156.3125 9.566406.828125 14.324218-35.46875 9.429688-64.183594 35.433594-77.070313 69.796875-33.84375-8.039062-69.296875 4.078125-91.144531 31.148438-21.847656 27.070312-26.203125 64.28125-11.199219 95.664062 15.003907 31.386719 46.699219 51.363281 81.484375 51.359375h254.511719c31.402344.035156 58.945313-20.953125 67.242187-51.242187 8.296876-30.289063-4.707031-62.386719-31.746093-78.359375 55.128906-20.84375 91.507812-73.742188 91.242187-132.683594zm-25.152344 52.304688h-21.597656c-2.054687 0-3.722656-1.664063-3.722656-3.71875 0-2.054688 1.667969-3.722657 3.722656-3.722657h24.648438c-.941406 2.523438-1.957032 5-3.050782 7.441407zm-40.972656-155.351563c2.585938 1.910156 5.089844 3.9375 7.53125 6.039063.339844.292968.679688.585937 1.019532.886718h-87.839844c-2.054688 0-3.722656-1.667968-3.722656-3.722656s1.667968-3.71875 3.722656-3.71875h78.5625c.242187.171875.484375.339844.726562.515625zm-203.964844 106.671875h30.546876c2.054687 0 3.71875 1.664062 3.71875 3.71875s-1.664063 3.722656-3.71875 3.722656h-1.515626c-4.152343-.460937-8.328124-.695312-12.507812-.703125-5.355469.019531-10.699219.402344-16 1.15625-.261719-2.671875-.449219-5.292969-.523438-7.894531zm199.0625 188.953125c-.035156 30.753906-24.957031 55.675781-55.710937 55.707031h-254.511719c-30.09375.003906-57.378906-17.675781-69.667968-45.144531-12.289063-27.46875-7.285157-59.597656 12.773437-82.027344 20.058594-22.433593 51.425781-30.980469 80.09375-21.828125 1.773437.5625 3.699219.394532 5.351563-.464844 1.652343-.859374 2.890624-2.34375 3.449218-4.117187 14.730469-47.289063 61.800782-76.71875 110.765625-69.253906 48.960938 7.460937 85.128907 49.574219 85.105469 99.105469 0 2.464843-.117188 5.101562-.355469 8.066406v.101562c0 .03125 0 .085938-.019531.132813 0 .25-1.265625 25.125-8.484375 42-1.113281 2.320312-.867187 5.066406.648437 7.148437 1.511719 2.082032 4.046876 3.164063 6.597657 2.820313s4.707031-2.058594 5.613281-4.46875c5.078125-13.421875 8.195312-27.511719 9.253906-41.828125 4.375-1.105469 8.871094-1.667969 13.386719-1.679688 30.757813.039063 55.679687 24.96875 55.707031 55.730469zm-81.070312-120.292969c-3.414062-6.597656-7.457031-12.847656-12.082031-18.664062 3.253906-3.507813 8.34375-4.628906 12.765625-2.8125 4.425781 1.816406 7.257812 6.191406 7.109375 10.972656-.152344 4.78125-3.257813 8.96875-7.789063 10.5zm40.082031 52.164063c-4.835937-1.054688-9.773437-1.59375-14.722656-1.601563-4.242187.003906-8.472656.394532-12.640625 1.175782-.046875-13.277344-2.421875-26.449219-7.015625-38.910157 9.605469-3.78125 15.984375-12.984375 16.144531-23.304687.164063-10.324219-5.917968-19.722656-15.402344-23.804688-9.484374-4.082031-20.492187-2.035156-27.875 5.179688-13.882812-13.667969-31.03125-23.5625-49.816406-28.734375 2.425782-5.472657 1.914063-11.804688-1.355468-16.816407-3.273438-5.015624-8.859376-8.03125-14.847657-8.015624h-30.144531c3.320312-41.140626 26.273438-78.152344 61.648438-99.414063s78.835937-24.160156 116.71875-7.785156h-54.089844c-9.789063 0-17.722656 7.933593-17.722656 17.71875 0 9.785156 7.933593 17.71875 17.722656 17.71875h101.523437c19.332031 23 29.917969 52.085937 29.894531 82.128906 0 10.402344-1.246093 20.761719-3.71875 30.863281h-29.035156c-9.789062 0-17.722656 7.933594-17.722656 17.722656 0 9.785157 7.933594 17.71875 17.722656 17.71875h14.460938c-17.679688 29.316407-46.414063 50.277344-79.726563 58.160157zm17.15625-190.109375c-22.089843 0-40 17.910156-40 40 0 22.09375 17.910157 40 40 40 22.09375 0 40-17.90625 40-40-.03125-22.078125-17.925781-39.960938-40.003906-39.984375zm0 66c-14.359375 0-26-11.640625-26-26s11.640625-26 26-26 26 11.640625 26 26c-.007812 14.359375-11.644531 26-26.003906 26.007812zm-115.71875-70.289063c-14.164062 0-25.644531 11.480469-25.644531 25.640625 0 14.164063 11.480469 25.644532 25.644531 25.644532 14.160157 0 25.644531-11.480469 25.644531-25.644532-.015624-14.15625-11.488281-25.625-25.644531-25.640625zm0 37.285157c-6.429687 0-11.644531-5.210938-11.644531-11.644532 0-6.429687 5.214844-11.640625 11.644531-11.640625 6.429688 0 11.644531 5.210938 11.644531 11.640625 0 6.433594-5.210937 11.652344-11.644531 11.65625zm-220.582031 43.1875-4.519531 26.363281c-.449219 2.625.628906 5.277343 2.785156 6.84375 2.15625 1.566406 5.011719 1.773437 7.371094.535156l23.671875-12.445313 23.671875 12.445313c2.359375 1.238281 5.21875 1.03125 7.371093-.535156 2.15625-1.566407 3.234376-4.21875 2.785157-6.84375l-4.519531-26.363281 19.164062-18.667969c1.90625-1.859375 2.589844-4.640625 1.765625-7.171875-.820313-2.535156-3.011719-4.378906-5.644531-4.765625l-26.46875-3.84375-11.835938-24c-1.179687-2.390625-3.613281-3.90625-6.277344-3.90625-2.667968 0-5.101562 1.515625-6.277343 3.90625l-11.835938 24-26.46875 3.84375c-2.636719.386719-4.824219 2.230469-5.648437 4.765625-.820313 2.53125-.136719 5.3125 1.765625 7.171875zm16.851562-21.125c2.28125-.335938 4.25-1.765626 5.269532-3.832032l7.199218-14.566406 7.199219 14.566406c1.019531 2.066406 2.992188 3.496094 5.269531 3.832032l16.078126 2.332031-11.632813 11.335937c-1.644531 1.609375-2.394531 3.925782-2 6.195313l2.746094 16-14.398438-7.546875c-2.039062-1.074219-4.476562-1.074219-6.515625 0l-14.378906 7.554687 2.75-16c.390625-2.269531-.355469-4.585937-2-6.195312l-11.65625-11.339844zm62-89.09375-3.597656 21.003906c-.453125 2.625.628906 5.28125 2.785156 6.847656 2.152344 1.566406 5.011719 1.773438 7.371094.53125l18.863282-9.914062 18.863281 9.914062c2.359375 1.242188 5.21875 1.035156 7.371093-.53125 2.15625-1.566406 3.234376-4.222656 2.785157-6.847656l-3.601563-21.003906 15.289063-14.875c1.910156-1.859376 2.59375-4.640626 1.773437-7.175782-.824218-2.535156-3.015625-4.382812-5.652344-4.765625l-21.089843-3.0625-9.429688-19.113281c-1.179687-2.390625-3.613281-3.902344-6.277343-3.902344-2.667969 0-5.101563 1.511719-6.28125 3.902344l-9.441407 19.113281-21.09375 3.0625c-2.632812.386719-4.824219 2.234375-5.644531 4.765625-.824219 2.535156-.140625 5.3125 1.765625 7.175782zm15.371094-16.554688c2.277344-.335938 4.246094-1.765625 5.265625-3.832031l4.800781-9.691407 4.800782 9.691407c1.019531 2.066406 2.988281 3.496093 5.265625 3.832031l10.699219 1.554688-7.757813 7.542968c-1.644531 1.613282-2.394531 3.929688-2 6.199219l1.824219 10.648437-9.566406-5.027343c-2.039063-1.070313-4.476563-1.070313-6.515626 0l-9.570312 5.027343 1.828125-10.648437c.390625-2.269531-.355469-4.585937-2-6.199219l-7.742187-7.542968zm0 0"/></svg>