<svg height="476pt" viewBox="-59 0 476 476.84977" width="476pt" xmlns="http://www.w3.org/2000/svg"><path d="m142.472656 241.109375c1.410156 3.601563-.363281 7.664063-3.964844 9.078125-11.074218 4.320312-20.527343 11.980469-27.058593 21.914062-1.097657 1.660157-2.847657 2.773438-4.816407 3.066407-1.964843.292969-3.964843-.269531-5.496093-1.539063-46.015625-38.089844-57.886719-103.800781-28.105469-155.582031.0625-.121094.097656-.246094.160156-.359375.066406-.117188.152344-.207031.226563-.3125 10.710937-18.324219 25.960937-33.582031 44.277343-44.304688.144532-.101562.273438-.214843.425782-.308593s.328125-.144531.488281-.21875c37.707031-21.636719 84.0625-21.636719 121.765625 0 .160156.074219.328125.125.484375.214843.15625.089844.28125.203126.425781.304688 18.320313 10.722656 33.566406 25.984375 44.28125 44.3125.070313.105469.15625.195312.222656.308594.066407.109375.101563.238281.160157.355468 29.789062 51.785157 17.921875 117.503907-28.105469 155.597657-1.527344 1.273437-3.527344 1.832031-5.492188 1.539062-1.96875-.292969-3.71875-1.40625-4.816406-3.066406-6.53125-9.933594-15.984375-17.589844-27.058594-21.914063-2.382812-.875-4.105468-2.972656-4.503906-5.476562-.398437-2.507812.59375-5.035156 2.585938-6.605469 1.996094-1.566406 4.683594-1.9375 7.027344-.960937 11.21875 4.382812 21.144531 11.539062 28.847656 20.800781 5.863281-5.582031 11.089844-11.800781 15.574218-18.539063l-18.601562-10.742187c-3.320312-1.945313-4.445312-6.203125-2.523438-9.535156 1.925782-3.335938 6.175782-4.488281 9.523438-2.585938l18.628906 10.753907c6.363282-12.886719 10.101563-26.914063 10.992188-41.257813h-21.457032c-3.867187 0-7-3.136719-7-7 0-3.867187 3.132813-7 7-7h21.453126c-.90625-14.332031-4.667969-28.339844-11.058594-41.199219l-18.554688 10.714844c-2.167968 1.269531-4.851562 1.28125-7.027344.03125-2.179687-1.25-3.519531-3.574219-3.515624-6.085938.007812-2.511718 1.359374-4.828124 3.542968-6.070312l18.542969-10.707031c-7.984375-11.921875-18.226563-22.160157-30.152344-30.136719l-10.707031 18.554688c-1.945312 3.320312-6.207031 4.445312-9.539062 2.523437-3.332032-1.925781-4.488282-6.175781-2.585938-9.523437l10.703125-18.542969c-12.863281-6.382813-26.867187-10.136719-41.199219-11.039063v21.417969c0 3.867187-3.132812 7-7 7-3.867187 0-7-3.132813-7-7v-21.417969c-14.332031.902344-28.335937 4.65625-41.199218 11.039063l10.707031 18.542969c1.902343 3.347656.746093 7.597656-2.585938 9.523437-3.332031 1.921875-7.589843.796875-9.539062-2.523437l-10.699219-18.535157c-11.925781 7.976563-22.167969 18.214844-30.152344 30.136719l18.546875 10.707031c3.316407 1.945313 4.445313 6.207031 2.519531 9.539063-1.921874 3.332031-6.175781 4.488281-9.519531 2.585937l-18.558593-10.714843c-6.390626 12.859374-10.148438 26.867187-11.058594 41.199218h21.453125c3.863281 0 7 3.132813 7 7 0 3.867188-3.136719 7-7 7h-21.429688c.898438 14.335938 4.632813 28.351563 10.992188 41.230469l18.632812-10.753906c2.164063-1.273438 4.847657-1.285157 7.027344-.03125 2.175781 1.25 3.515625 3.574219 3.511719 6.085937-.003906 2.511719-1.355469 4.828125-3.539063 6.066406l-18.605469 10.742188c4.484376 6.738281 9.710938 12.957031 15.574219 18.539062 7.699219-9.261718 17.628907-16.417968 28.851563-20.800781 3.597656-1.410156 7.660156.367188 9.070312 3.964844zm37.019532 87.714844c-82.6875 0-149.722657-67.03125-149.722657-149.722657 0-82.6875 67.03125-149.722656 149.71875-149.722656 82.691407-.003906 149.726563 67.027344 149.730469 149.71875-.09375 82.652344-67.074219 149.632813-149.726562 149.726563zm0-14c74.957031 0 135.722656-60.761719 135.726562-135.722657 0-74.957031-60.765625-135.722656-135.722656-135.722656-74.957032-.003906-135.726563 60.761719-135.726563 135.71875.082031 74.925782 60.800781 135.640625 135.722657 135.726563zm6.9375-176.539063 15.648437 115.664063c.042969.3125.0625.625.0625.9375 0 12.507812-10.140625 22.648437-22.648437 22.648437-12.511719 0-22.652344-10.140625-22.652344-22.648437 0-.3125.023437-.625.066406-.9375l15.652344-115.664063c.464844-3.476562 3.429687-6.070312 6.9375-6.070312 3.503906 0 6.472656 2.59375 6.9375 6.070312zm1.703124 117.003906-8.640624-63.859374-8.640626 63.859374c.199219 4.628907 4.011719 8.277344 8.640626 8.277344 4.632812 0 8.441406-3.648437 8.640624-8.277344zm156.023438 171.003907v43.558593c0 3.863282-3.132812 7-7 7h-315.328125c-3.863281 0-7-3.136718-7-7v-43.558593c0-3.863281 3.136719-7 7-7h100.023437c1.761719-11.445313 7.773438-21.804688 16.832032-29.015625v-36.867188c-88.554688-20.722656-147.507813-104.539062-137.078125-194.886718 10.429687-90.347657 86.933593-158.523438 177.878906-158.523438 90.949219 0 167.449219 68.175781 177.878906 158.523438 10.429688 90.347656-48.523437 174.164062-137.078125 194.886718v36.863282c9.0625 7.210937 15.074219 17.574218 16.835938 29.019531h100.023437c1.859375-.003907 3.640625.734375 4.957031 2.046875 1.316407 1.3125 2.054688 3.09375 2.054688 4.953125zm-194.363281-84.863281c1.71875.3125 3.441406.640624 5.171875.894531.472656.074219.953125.117187 1.425781.179687 15.316406 2.140625 30.859375 2.140625 46.179687 0 .484376-.066406.972657-.109375 1.457032-.1875 1.730468-.253906 3.441406-.582031 5.160156-.894531 83.988281-15.363281 142.398438-92.238281 134.6875-177.273437-7.714844-85.03125-79-150.144532-164.382812-150.144532-85.378907 0-156.667969 65.113282-164.378907 150.144532-7.714843 85.035156 50.695313 161.910156 134.683594 177.273437zm49.027343 15.667968c-1.03125.113282-2.066406.195313-3.101562.292969-1.714844.152344-3.429688.289063-5.144531.398437-1.042969.066407-2.085938.128907-3.128907.175782-2.265624.097656-4.53125.15625-6.800781.171875-.398437 0-.769531.027343-1.15625.027343s-.769531-.027343-1.160156-.027343c-2.261719-.011719-4.53125-.070313-6.800781-.171875-1.046875-.042969-2.085938-.109375-3.128906-.175782-1.71875-.105468-3.433594-.238281-5.144532-.398437-1.03125-.09375-2.070312-.179687-3.101562-.289063-2.5-.269531-4.996094-.578124-7.484375-.953124v26.460937c.191406-.0625.402343-.109375.589843-.171875.398438-.132812.820313-.238281 1.230469-.359375.9375-.273437 1.875-.515625 2.828125-.726563.484375-.109374.972656-.210937 1.464844-.300781.957031-.179687 1.914062-.324219 2.882812-.441406.453126-.054687.90625-.125 1.359376-.164063 1.421874-.132812 2.851562-.214843 4.289062-.214843h24.320312c1.445313 0 2.871094.082031 4.296876.214843.441406.039063.882812.109376 1.324218.160157.984375.121093 1.957032.265625 2.929688.449219.480468.089843.953125.1875 1.425781.292968.960937.210938 1.90625.457032 2.851563.734375.398437.121094.828124.226563 1.230468.359375.195313.058594.402344.105469.582032.167969v-26.464844c-2.460938.375-4.957032.703125-7.453126.953125zm-62.800781 62.195313h86.921875c-2.175781-9.542969-8.566406-17.585938-17.371094-21.863281-.132812-.0625-.257812-.136719-.402343-.199219-1.246094-.578125-2.53125-1.070313-3.84375-1.480469-.242188-.082031-.488281-.160156-.734375-.230469-1.300782-.382812-2.625-.679687-3.960938-.890625-.242187-.039062-.492187-.0625-.738281-.09375-1.414063-.199218-2.835937-.304687-4.261719-.3125h-24.296875c-1.425781.007813-2.847656.113282-4.257812.3125-.25.03125-.496094.058594-.746094.097656-1.332031.210938-2.652344.507813-3.953125.886719-.25.070313-.503906.152344-.75.234375-1.304688.40625-2.582031.898438-3.824219 1.472656-.144531.066407-.28125.148438-.425781.214844-8.789062 4.28125-15.167969 12.316406-17.34375 21.847656zm194.125 14h-301.316406v7.777343h63.601563c3.863281 0 7 3.132813 7 7 0 3.867188-3.136719 7-7 7h-63.601563v7.777344h301.328125v-7.777344h-63.597656c-3.867188 0-7-3.132812-7-7 0-3.867187 3.132812-7 7-7h63.597656zm-120.800781-138.890625c0-3.867188-3.132812-7-7-7h-45.707031c-3.867188 0-7 3.132812-7 7 0 3.867187 3.132812 7 7 7h45.710937c3.867188 0 7-3.132813 7-7zm0 0"/></svg>