<svg height="477pt" viewBox="0 -61 477.15557 477" width="477pt" xmlns="http://www.w3.org/2000/svg"><path d="m203.921875 212.699219c-3.1875 0-6.359375.472656-9.40625 1.398437-7.972656-16.847656-25.550781-26.992187-44.128906-25.464844-18.578125 1.523438-34.265625 14.40625-39.375 32.332032-15.742188.128906-28.398438 12.996094-28.269531 28.738281.128906 15.742187 12.996093 28.398437 28.738281 28.269531h92.441406c18.023437 0 32.636719-14.613281 32.636719-32.636718 0-18.023438-14.613282-32.636719-32.636719-32.636719zm0 51.273437h-92.457031c-8.011719 0-14.503906-6.496094-14.503906-14.507812 0-8.011719 6.492187-14.503906 14.503906-14.503906 1.164062.003906 2.320312.148437 3.445312.433593 1.945313.476563 4 .097657 5.644532-1.039062 1.648437-1.136719 2.730468-2.925781 2.972656-4.914063 1.683594-13.792968 12.421875-24.738281 26.183594-26.683594 13.761718-1.949218 27.117187 5.585938 32.5625 18.375-5.164063 5.488282-8.140626 12.679688-8.367188 20.214844 0 3.867188 3.132812 7 7 7s7-3.132812 7-7c.128906-4.699218 2.429688-9.074218 6.230469-11.84375l.039062-.027344h.023438c6.726562-4.125 15.320312-3.558593 21.449219 1.40625 6.132812 4.964844 8.46875 13.253907 5.835937 20.691407-2.636719 7.4375-9.667969 12.40625-17.558594 12.40625zm231.015625 10.4375c-1.582031-6.636718-4.207031-12.984375-7.78125-18.800781v-58c.027344-.230469.039062-.46875.039062-.703125.011719-76.238281-44.015624-145.628906-112.996093-178.09375s-150.511719-22.167969-209.253907 26.429688c-22.054687.664062-41.734374 14.027343-50.488281 34.28125-15.320312-5.429688-32.402343-1.25-43.488281 10.636718-11.085938 11.886719-14.0625 29.21875-7.582031 44.125 6.480469 14.902344 21.1875 24.542969 37.445312 24.542969h122c10.800781.03125 21.019531-4.886719 27.734375-13.351563 6.714844-8.460937 9.183594-19.535156 6.695313-30.046874 27.113281-11 57.921875-7.796876 82.191406 8.546874s38.820313 43.6875 38.820313 72.945313v55.160156c-2.769532 3.941407-5.085938 8.179688-6.914063 12.636719-17.40625-6.636719-37.09375-2.234375-50.011719 11.1875-12.917968 13.421875-16.570312 33.261719-9.277344 50.402344 7.292969 17.140625 24.125 28.265625 42.75 28.257812h142.300782c14.570312-.023437 27.980468-7.945312 35.03125-20.699218 7.046875-12.75 6.625-28.324219-1.105469-40.671876-7.734375-12.351562-21.554687-19.535156-36.105469-18.765624zm-204.582031-260.3125c100.648437.109375 182.328125 81.464844 182.835937 182.113282-.019531.226562-.035156.460937-.035156.691406v42.496094c-5.285156-4.390626-11.234375-7.917969-17.625-10.453126v-32.023437c-.003906-60.246094-32.804688-115.714844-85.59375-144.746094-52.792969-29.03125-117.199219-27.019531-168.078125 5.242188-5.257813-4.144531-11.207031-7.328125-17.574219-9.402344 30.925782-22.144531 68.03125-34.011719 106.070313-33.917969zm0 49.257813c-24.757813-.0625-49.035157 6.800781-70.097657 19.8125-1.960937-5.574219-4.785156-10.808594-8.367187-15.507813 46.683594-28.332031 105.019531-29.285156 152.605469-2.5 47.589844 26.789063 77.035156 77.152344 77.035156 131.761719v28.230469c-5.832031-.957032-11.769531-1.058594-17.628906-.300782v-27.929687c-.074219-73.726563-59.820313-133.484375-133.546875-133.566406zm-67.511719 81.46875h-122c-11.382812.03125-21.550781-7.125-25.359375-17.847657-3.8125-10.726562-.441406-22.691406 8.410156-29.847656 8.851563-7.160156 21.257813-7.953125 30.949219-1.980468h.027344l.03125.023437c9.042968 5.433594 9.304687 17.472656 9.304687 17.546875 0 3.867188 3.132813 7 7 7 3.863281 0 7-3.132812 7-7-.28125-9.871094-4.402343-19.242188-11.488281-26.121094 7.050781-18.332031 25.675781-29.515625 45.171875-27.117187 19.496094 2.398437 34.859375 17.761719 37.253906 37.257812.246094 1.988281 1.324219 3.773438 2.972657 4.910157 1.644531 1.136718 3.699218 1.515624 5.640624 1.042968 8.011719-1.96875 16.441407.855469 21.65625 7.25 5.214844 6.394532 6.277344 15.222656 2.738282 22.675782-3.542969 7.449218-11.058594 12.199218-19.308594 12.195312zm67.511719-49.839844c-13.339844.007813-26.546875 2.644531-38.871094 7.753906-3.960937-5.496093-9.414063-9.742187-15.714844-12.238281 37.074219-18.992188 81.359375-17.328125 116.902344 4.394531 35.542969 21.722657 57.222656 60.375 57.230469 102.027344v31.203125c-6.328125 2.238281-12.277344 5.441406-17.628906 9.496094v-40.699219c-.050782-56.269531-45.648438-101.875-101.917969-101.9375zm206.761719 245.5625h-142.296876c-13.765624.035156-26.058593-8.625-30.664062-21.597656-4.609375-12.976563-.527344-27.449219 10.179688-36.105469 10.707031-8.65625 25.710937-9.613281 37.433593-2.390625h.023438l.039062.027344c11.125 6.6875 11.414063 21.355469 11.414063 21.464843 0 3.867188 3.132812 7 7 7 3.867187 0 7-3.132812 7-7-.316406-11.460937-5.226563-22.316406-13.628906-30.121093 1.285156-3.488281 2.949218-6.824219 4.960937-9.949219.128906-.195312.238281-.398438.367187-.597656.507813-.765625 1.058594-1.503906 1.601563-2.238282.25-.339843.488281-.6875.746094-1.019531.515625-.660156 1.0625-1.289062 1.601562-1.921875.328125-.378906.644531-.761718.984375-1.132812.53125-.582032 1.085938-1.136719 1.644532-1.691406.398437-.398438.769531-.773438 1.175781-1.148438.546875-.515625 1.109375-1 1.679687-1.488281.441406-.402344.890625-.761719 1.351563-1.128907.558593-.449218 1.136719-.878906 1.714843-1.304687.5-.363281 1-.722656 1.511719-1.066406.574219-.390625 1.15625-.765625 1.746094-1.128907.589844-.363281 1.148437-.695312 1.675781-.992187.578125-.332031 1.167969-.652344 1.757813-.960937.59375-.308594 1.203125-.601563 1.828125-.890626.628906-.289062 1.175781-.550781 1.773437-.800781.597657-.253906 1.3125-.523437 1.972657-.773437.585937-.21875 1.171874-.441406 1.769531-.644532.707031-.234374 1.421875-.433593 2.136719-.636718.578124-.164063 1.152343-.339844 1.738281-.484375.769531-.191407 1.554687-.339844 2.339843-.496094.546876-.109375 1.085938-.234375 1.644532-.324219.886718-.144531 1.785156-.242187 2.6875-.339844.464844-.054687.925781-.125 1.394531-.164062 1.375-.113281 2.765625-.175781 4.164063-.175781 25.800781.007812 47.546874 19.242187 50.710937 44.847656.246094 1.984375 1.324219 3.769531 2.96875 4.90625s3.699219 1.519531 5.640625 1.046875c9.78125-2.402344 20.070312 1.042969 26.433594 8.847656 6.367187 7.808594 7.667968 18.582032 3.34375 27.679688-4.324219 9.09375-13.496094 14.890625-23.570313 14.886718zm0 0"/></svg>