<svg height="465pt" viewBox="0 -40 465.68 465" width="465pt" xmlns="http://www.w3.org/2000/svg"><path d="m232.839844 234.21875c-21.4375-.023438-38.808594-17.398438-38.832032-38.835938 0-18.796874 27.554688-59.578124 33.082032-67.558593 1.375-1.785157 3.5-2.832031 5.753906-2.832031s4.378906 1.046874 5.757812 2.832031c5.523438 8 33.078126 48.75 33.078126 67.558593-.023438 21.441407-17.398438 38.816407-38.839844 38.835938zm0-89.808594c-11.320313 17.484375-24.832032 41.460938-24.832032 50.96875 0 13.71875 11.117188 24.835938 24.835938 24.835938 13.714844 0 24.832031-11.117188 24.832031-24.835938-.003906-9.503906-13.515625-33.476562-24.835937-50.96875zm-174.324219 89.808594c-21.4375-.023438-38.808594-17.398438-38.832031-38.835938 0-18.796874 27.550781-59.578124 33.078125-67.558593 1.375-1.785157 3.5-2.832031 5.753906-2.832031s4.378906 1.046874 5.757813 2.832031c5.523437 8 33.078124 48.75 33.078124 67.558593-.023437 21.441407-17.398437 38.8125-38.835937 38.835938zm0-89.804688c-11.320313 17.488282-24.832031 41.460938-24.832031 50.96875 0 13.71875 11.117187 24.835938 24.835937 24.835938 13.714844 0 24.832031-11.117188 24.832031-24.835938-.003906-9.507812-13.515624-33.480468-24.835937-50.972656zm348.648437 89.804688c-21.4375-.023438-38.808593-17.398438-38.832031-38.835938 0-18.796874 27.554688-59.578124 33.078125-67.558593 1.308594-1.886719 3.460938-3.015625 5.757813-3.015625s4.449219 1.128906 5.757812 3.015625c5.523438 8 33.074219 48.75 33.074219 67.558593-.023438 21.441407-17.398438 38.8125-38.835938 38.835938zm0-89.804688c-11.320312 17.488282-24.832031 41.460938-24.832031 50.96875 0 13.71875 11.117188 24.835938 24.832031 24.835938 13.71875 0 24.835938-11.117188 24.835938-24.835938-.003906-9.507812-13.515625-33.480468-24.835938-50.972656zm-267.285156-34.664062c-21.433594-.027344-38.808594-17.398438-38.832031-38.832031 0-18.800781 27.558594-59.582031 33.082031-67.5625 1.304688-1.886719 3.457032-3.015625 5.753906-3.015625 2.296876 0 4.449219 1.128906 5.757813 3.015625 5.523437 8 33.078125 48.746093 33.078125 67.5625-.023438 21.4375-17.398438 38.8125-38.839844 38.832031zm0-89.808594c-11.320312 17.507813-24.832031 41.46875-24.832031 50.976563 0 13.714843 11.121094 24.832031 24.835937 24.832031 13.714844 0 24.832032-11.117188 24.832032-24.832031 0-9.507813-13.515625-33.46875-24.835938-50.976563zm185.921875 89.808594c-21.4375-.027344-38.808593-17.398438-38.832031-38.832031 0-18.800781 27.554688-59.582031 33.078125-67.5625 1.308594-1.886719 3.460937-3.015625 5.757813-3.015625 2.296874 0 4.449218 1.128906 5.753906 3.015625 5.527344 8 33.082031 48.746093 33.082031 67.5625-.023437 21.4375-17.402344 38.8125-38.839844 38.832031zm0-89.808594c-11.320312 17.507813-24.835937 41.46875-24.835937 50.976563 0 13.714843 11.117187 24.832031 24.832031 24.832031s24.835937-11.117188 24.835937-24.832031c0-9.507813-13.511718-33.46875-24.832031-50.976563zm25.5 365.011719h-183.878906c-11.070313 0-20.042969-8.972656-20.042969-20.039063 0-11.070312 8.972656-20.042968 20.042969-20.042968h183.878906c11.066407 0 20.039063 8.972656 20.039063 20.042968 0 11.066407-8.972656 20.039063-20.039063 20.039063zm-183.878906-26.082031c-3.335937 0-6.042969 2.707031-6.042969 6.042968 0 3.335938 2.707032 6.039063 6.042969 6.039063h183.878906c3.335938 0 6.039063-2.703125 6.039063-6.039063 0-3.335937-2.703125-6.042968-6.039063-6.042968zm225.367187-39.6875h-51.335937c-11.070313 0-20.042969-8.972656-20.042969-20.042969 0-11.066406 8.972656-20.039063 20.042969-20.039063h51.332031c11.066406 0 20.039063 8.972657 20.039063 20.039063 0 11.070313-8.972657 20.042969-20.039063 20.042969zm-51.335937-26.078125c-3.339844 0-6.042969 2.703125-6.042969 6.039062 0 3.339844 2.703125 6.042969 6.042969 6.042969h51.332031c3.335938 0 6.039063-2.703125 6.039063-6.042969 0-3.335937-2.703125-6.039062-6.039063-6.039062zm-54 26.082031h-210.675781c-11.070313 0-20.042969-8.972656-20.042969-20.042969 0-11.066406 8.972656-20.039062 20.042969-20.039062h210.667968c11.066407 0 20.039063 8.972656 20.039063 20.039062 0 11.070313-8.972656 20.042969-20.039063 20.042969zm-210.675781-26.082031c-3.339844 0-6.042969 2.703125-6.042969 6.039062 0 3.339844 2.703125 6.042969 6.042969 6.042969h210.667968c3.335938 0 6.039063-2.703125 6.039063-6.042969 0-3.335937-2.703125-6.039062-6.039063-6.039062zm35.855468 91.847656h-92.59375c-11.066406 0-20.039062-8.972656-20.039062-20.039063 0-11.070312 8.972656-20.042968 20.039062-20.042968h92.59375c11.066407 0 20.039063 8.972656 20.039063 20.042968 0 11.066407-8.972656 20.039063-20.039063 20.039063zm-92.59375-26.078125c-3.335937 0-6.039062 2.707031-6.039062 6.042969 0 3.335937 2.703125 6.039062 6.039062 6.039062h92.59375c3.335938 0 6.039063-2.703125 6.039063-6.039062 0-3.335938-2.703125-6.042969-6.039063-6.042969zm425.621094 26.082031h-39.824218c-11.066407 0-20.039063-8.972656-20.039063-20.039062 0-11.070313 8.972656-20.042969 20.039063-20.042969h39.804687c11.066406 0 20.039063 8.972656 20.039063 20.042969 0 11.066406-8.972657 20.039062-20.039063 20.039062zm-39.824218-26.082031c-3.335938 0-6.039063 2.707031-6.039063 6.042969 0 3.335937 2.703125 6.039062 6.039063 6.039062h39.804687c3.335937 0 6.039063-2.703125 6.039063-6.039062 0-3.335938-2.703126-6.042969-6.039063-6.042969zm0 0"/></svg>