<svg height="444pt" viewBox="0 -3 444.30693 444" width="444pt" xmlns="http://www.w3.org/2000/svg"><path d="m369.507812 70.402344c-8.644531-.007813-17.222656 1.511718-25.339843 4.480468-12.945313-38.339843-45.914063-66.460937-85.816407-73.195312-39.898437-6.738281-80.273437 9.003906-105.085937 40.96875-11.523437-7.507812-24.996094-11.480469-38.75-11.433594-39.460937.042969-71.4375 32.019532-71.480469 71.480469 0 .832031 0 1.671875.054688 2.527344-28.265625 7.6875-46.46875 35.121093-42.570313 64.152343 3.898438 29.035157 28.699219 50.691407 57.992188 50.648438h86.722656c4.484375 11.738281 15.746094 19.496094 28.316406 19.496094 12.566407 0 23.828125-7.757813 28.3125-19.496094h167.644531c41.308594 0 74.800782-33.492188 74.800782-74.800781 0-41.3125-33.492188-74.800781-74.800782-74.800781zm-195.957031 155.105468c-9.035156 0-16.359375-7.324218-16.359375-16.359374 0-9.035157 7.324219-16.359376 16.359375-16.359376 9.035157 0 16.359375 7.324219 16.359375 16.359376-.011718 9.03125-7.328125 16.351562-16.359375 16.359374zm195.957031-19.496093h-165.761718c-1.59375-15.476563-14.636719-27.246094-30.199219-27.246094s-28.605469 11.769531-30.199219 27.246094h-84.835937c-23.300781.152343-42.757813-17.734375-44.558594-40.964844s14.664063-43.902344 37.710937-47.34375c3.738282-.582031 6.339844-4.03125 5.875-7.785156-2.195312-16.386719 2.820313-32.921875 13.746094-45.332031 10.929688-12.40625 26.695313-19.472657 43.230469-19.367188 13.074219-.039062 25.765625 4.429688 35.929687 12.65625 1.527344 1.21875 3.492188 1.75 5.421876 1.460938 1.933593-.292969 3.65625-1.378907 4.75-2.996094 21.105468-31.214844 58.539062-47.183594 95.679687-40.808594s67.105469 33.90625 76.59375 70.375c3.089844 15.292969 2.59375 31.097656-1.445313 46.167969-1.167968 3.644531.808594 7.558593 4.441407 8.773437 3.628906 1.21875 7.566406-.707031 8.832031-4.320312 4.410156-15.597656 5.375-31.964844 2.828125-47.96875 6.992187-2.753906 14.441406-4.164063 21.957031-4.15625 33.578125 0 60.800782 27.21875 60.800782 60.800781 0 33.578125-27.222657 60.796875-60.800782 60.796875zm-273.601562 54c.007812-14.628907-11.847656-26.496094-26.476562-26.507813-14.628907-.007812-26.5 11.839844-26.515626 26.472656-.011718 14.628907 11.835938 26.503907 26.464844 26.519532 14.632813-.003906 26.496094-11.859375 26.511719-26.496094zm-26.527344 12.484375c-6.902344 0-12.496094-5.59375-12.496094-12.496094 0-6.898438 5.59375-12.496094 12.496094-12.496094s12.496094 5.597656 12.496094 12.496094c-.007812 6.898438-5.597656 12.492188-12.496094 12.496094zm42.613282 113.121094c-14.636719 0-26.496094 11.863281-26.496094 26.496093 0 14.636719 11.863281 26.496094 26.496094 26.496094 14.636718 0 26.496093-11.867187 26.496093-26.5-.015625-14.625-11.871093-26.476563-26.496093-26.492187zm0 38.988281c-6.902344 0-12.496094-5.59375-12.496094-12.496094s5.59375-12.496094 12.496094-12.496094c6.898437 0 12.496093 5.59375 12.496093 12.496094-.007812 6.898437-5.597656 12.488281-12.496093 12.496094zm161.960937-73.929688c-14.632813 0-26.496094 11.867188-26.496094 26.5.003907 14.632813 11.867188 26.496094 26.5 26.492188 14.632813 0 26.496094-11.863281 26.492188-26.5-.015625-14.625-11.867188-26.476563-26.496094-26.492188zm0 38.988281c-6.898437 0-12.496094-5.59375-12.496094-12.496093 0-6.898438 5.597657-12.496094 12.496094-12.496094 6.902344 0 12.496094 5.597656 12.496094 12.496094-.003907 6.898437-5.59375 12.492187-12.496094 12.496093zm27.808594-161.597656c-17.628907 0-31.921875 14.292969-31.921875 31.921875 0 17.632813 14.292968 31.925781 31.921875 31.925781 17.632812 0 31.925781-14.292968 31.925781-31.925781-.027344-17.609375-14.296875-31.882812-31.910156-31.910156zm0 49.851563c-9.898438 0-17.921875-8.023438-17.921875-17.925781 0-9.898438 8.023437-17.921876 17.921875-17.921876 9.898437 0 17.925781 8.023438 17.925781 17.921876-.007812 9.894531-8.015625 17.914062-17.910156 17.9375zm-126.652344 28.605469c-11.632813 0-21.066406 9.429687-21.066406 21.066406 0 11.636718 9.433593 21.066406 21.066406 21.066406 11.636719 0 21.070313-9.429688 21.070313-21.066406-.011719-11.632813-9.4375-21.058594-21.070313-21.066406zm0 28.132812c-3.902344 0-7.066406-3.164062-7.066406-7.066406s3.164062-7.066406 7.066406-7.066406c3.90625 0 7.070313 3.164062 7.070313 7.066406-.003907 3.902344-3.167969 7.0625-7.070313 7.066406zm205.277344-32.59375c-11.632813 0-21.066407 9.433594-21.0625 21.070312 0 11.632813 9.429687 21.0625 21.066406 21.066407 11.632813 0 21.066406-9.429688 21.066406-21.066407-.007812-11.628906-9.433593-21.058593-21.066406-21.070312zm0 28.136719c-3.902344-.003907-7.066407-3.167969-7.0625-7.070313 0-3.90625 3.164062-7.066406 7.066406-7.066406 3.90625 0 7.066406 3.164062 7.066406 7.066406-.003906 3.902344-3.164062 7.0625-7.066406 7.070313zm0 0"/></svg>