<svg height="480pt" viewBox="0 0 480 480.47208" width="480pt" xmlns="http://www.w3.org/2000/svg"><path d="m240.582031 480.402344c-11.621093-.011719-21.039062-9.429688-21.050781-21.050782v-3.578124l-18.460938 18.460937c-5.308593 5.359375-13.082031 7.46875-20.371093 5.527344-7.289063-1.9375-12.984375-7.632813-14.925781-14.925781-1.9375-7.289063.171874-15.0625 5.53125-20.371094l48.230468-48.230469v-9.84375l-18.460937 18.460937c-5.308594 5.359376-13.082031 7.46875-20.371094 5.527344s-12.984375-7.636718-14.925781-14.925781c-1.9375-7.292969.171875-15.0625 5.53125-20.371094l48.222656-48.222656v-20.65625c-2.097656-1.390625-4.046875-2.984375-5.824219-4.761719l-2.230469-2.226562-66.242187 66.242187v68.214844c0 11.621094-9.421875 21.046875-21.046875 21.046875s-21.050781-9.425781-21.050781-21.046875v-26.125l-2.53125 2.53125c-5.292969 5.429687-13.097657 7.589844-20.429688 5.660156-7.335937-1.933593-13.0625-7.660156-14.992187-14.992187-1.933594-7.332032.230468-15.136719 5.660156-20.433594l2.53125-2.53125h-26.117188c-11.625 0-21.046874-9.421875-21.046874-21.046875s9.421874-21.046875 21.046874-21.046875h68.210938l66.246094-66.242188-2.230469-2.226562c-1.773437-1.777344-3.371094-3.730469-4.757813-5.824219h-20.65625l-48.230468 48.230469c-5.308594 5.363281-13.082032 7.472656-20.371094 5.53125-7.292969-1.941406-12.988281-7.636719-14.925781-14.925781-1.941407-7.292969.167969-15.0625 5.53125-20.371094l18.460937-18.460937h-9.84375l-48.230468 48.226562c-8.230469 8.152344-21.5 8.117188-29.691407-.074219-8.191406-8.191406-8.222656-21.460937-.070312-29.691406l18.460937-18.460937h-3.582031c-7.589844.105468-14.648437-3.882813-18.472656-10.441407-3.824219-6.554687-3.824219-14.664062 0-21.21875 3.824219-6.554687 10.882812-10.542969 18.472656-10.441406h3.582031l-18.464844-18.460937c-7.992187-8.257813-7.886718-21.398438.238282-29.527344 8.125-8.125 21.265625-8.238282 29.523437-.246094l48.234375 48.230469h9.84375l-18.460937-18.457031c-8.152344-8.234376-8.117188-21.503907.070312-29.695313 8.191407-8.191406 21.460938-8.222656 29.695313-.074219l48.230468 48.226563h20.65625c1.386719-2.09375 2.984376-4.046875 4.757813-5.824219l2.230469-2.226562-66.246094-66.242188h-68.210938c-11.625 0-21.046874-9.425781-21.046874-21.050781s9.421874-21.046875 21.046874-21.046875h26.125l-2.53125-2.53125c-5.363281-5.308594-7.472656-13.082032-5.53125-20.371094 1.941407-7.292969 7.636719-12.984375 14.925782-14.925781 7.292968-1.941407 15.0625.171875 20.371094 5.53125l2.527343 2.53125v-26.113281c0-11.625 9.425781-21.050782 21.050781-21.050782s21.046876 9.425782 21.046876 21.050782v68.210937l66.238281 66.242187 2.230469-2.226562c1.777343-1.777344 3.726562-3.371094 5.824218-4.761719v-20.652343l-48.230468-48.234376c-5.425782-5.292968-7.589844-13.097656-5.65625-20.429687 1.929687-7.335937 7.65625-13.0625 14.988281-14.992187 7.335937-1.933594 15.140625.230468 20.433593 5.660156l18.460938 18.457031v-9.84375l-48.226562-48.226563c-5.425782-5.292968-7.589844-13.097656-5.65625-20.433593 1.929687-7.332031 7.65625-13.058594 14.988281-14.988281 7.335937-1.933594 15.140625.226562 20.433593 5.65625l18.460938 18.460937v-3.578125c-.105469-7.589844 3.882812-14.648438 10.4375-18.476562 6.558594-3.824219 14.664062-3.824219 21.222656 0 6.554688 3.828124 10.542969 10.886718 10.4375 18.476562v3.578125l18.460938-18.460937c5.292968-5.429688 13.097656-7.589844 20.433594-5.65625 7.332031 1.929687 13.058593 7.65625 14.988281 14.988281 1.933593 7.335937-.226563 15.140625-5.65625 20.433593l-48.222657 48.226563v9.84375l18.460938-18.457031c5.308594-5.363282 13.082031-7.472656 20.371094-5.53125 7.292968 1.941406 12.984375 7.636718 14.925781 14.925781 1.941406 7.292969-.171875 15.0625-5.53125 20.371094l-48.226563 48.230469v20.652343c2.097657 1.390625 4.046876 2.984375 5.824219 4.761719l2.230469 2.226562 66.242188-66.242187v-68.210937c0-11.625 9.425781-21.050782 21.046874-21.050782 11.625 0 21.050782 9.425782 21.050782 21.050782v26.121093l2.53125-2.53125c5.308594-5.359375 13.082031-7.46875 20.371094-5.527343 7.289062 1.941406 12.984374 7.636718 14.925781 14.925781 1.9375 7.289062-.171875 15.0625-5.535157 20.371093l-2.53125 2.527344h26.113282c11.625 0 21.046875 9.421875 21.046875 21.046875s-9.421875 21.050781-21.046875 21.050781h-68.207032l-66.246093 66.238282 2.230469 2.226562c1.777343 1.777344 3.371093 3.730469 4.757812 5.824219h20.65625l48.234375-48.230469c5.308594-5.359375 13.078125-7.46875 20.371094-5.53125 7.289062 1.941406 12.984375 7.636719 14.921875 14.929688 1.941406 7.289062-.167969 15.0625-5.53125 20.371094l-18.460938 18.457031h9.84375l48.230469-48.226563c8.230469-8.148437 21.5-8.117187 29.691406.074219 8.191407 8.191406 8.222657 21.460937.070313 29.695313l-18.457032 18.457031h3.578126c11.511718.160156 20.761718 9.539062 20.761718 21.050781 0 11.515625-9.25 20.890625-20.761718 21.050781h-3.578126l18.457032 18.460938c7.992187 8.257812 7.886718 21.398437-.238282 29.523437-8.125 8.128906-21.265624 8.238282-29.523437.246094l-48.230469-48.226562h-9.84375l18.460938 18.460937c8.152344 8.230469 8.117187 21.5-.070313 29.691406-8.191406 8.191407-21.460937 8.226563-29.691406.074219l-48.234375-48.226562h-20.65625c-1.386719 2.09375-2.980469 4.046874-4.757812 5.824218l-2.230469 2.226563 66.246093 66.246093h68.210938c11.625 0 21.046875 9.421876 21.046875 21.046876s-9.421875 21.046874-21.046875 21.046874h-26.125l2.53125 2.53125c5.363281 5.308594 7.472656 13.082032 5.53125 20.375-1.941406 7.289063-7.636719 12.984376-14.925781 14.921876-7.292969 1.941406-15.0625-.167969-20.371094-5.53125l-2.527344-2.53125v26.113281c0 11.621093-9.425781 21.046875-21.050781 21.046875-11.621094 0-21.046875-9.425782-21.046875-21.046875v-68.210938l-66.238281-66.242187-2.230469 2.226562c-1.777344 1.777344-3.726563 3.371094-5.824219 4.761719v20.65625l48.230469 48.230469c5.429687 5.292968 7.589844 13.097656 5.65625 20.433594-1.929687 7.332031-7.65625 13.058593-14.988281 14.988281-7.335938 1.933593-15.140625-.226563-20.433594-5.65625l-18.460938-18.460938v9.84375l48.226563 48.226563c7.992187 8.257812 7.886719 21.398437-.238281 29.527344-8.125 8.125-21.265625 8.234374-29.527344.246093l-18.460938-18.464843v3.578124c-.007812 11.621094-9.429687 21.039063-21.050781 21.050782zm-14.050781-48.527344c1.855469 0 3.636719.734375 4.949219 2.046875s2.050781 3.09375 2.050781 4.953125v20.476562c.089844 3.828126 3.21875 6.882813 7.050781 6.882813 3.828125 0 6.957031-3.054687 7.046875-6.882813v-20.476562c.003906-2.832031 1.707032-5.382812 4.324219-6.464844 2.613281-1.082031 5.625-.484375 7.625 1.515625l30.398437 30.402344c1.769532 1.851563 4.398438 2.605469 6.878907 1.960937 2.480469-.644531 4.414062-2.578124 5.054687-5.058593.644532-2.480469-.109375-5.109375-1.964844-6.875l-50.273437-50.28125c-1.316406-1.3125-2.050781-3.09375-2.054687-4.949219v-29.640625c0-2.832031 1.707031-5.390625 4.328124-6.472656 2.621094-1.082031 5.636719-.476563 7.636719 1.535156l30.398438 30.398437c2.785156 2.671876 7.179687 2.671876 9.964843 0 1.324219-1.320312 2.070313-3.113281 2.070313-4.980468 0-1.871094-.746094-3.664063-2.070313-4.984375l-50.261718-50.273438c-1.3125-1.3125-2.050782-3.09375-2.054688-4.949219v-27.5625c0-2.636718 1.480469-5.046874 3.828125-6.242187 2.253907-1.136719 4.308594-2.621094 6.097657-4.398437l7.179687-7.207032c1.3125-1.316406 3.09375-2.054687 4.949219-2.054687 1.859375 0 3.636718.738281 4.949218 2.054687l73.246094 73.261719c1.3125 1.3125 2.050782 3.09375 2.050782 4.949219v71.109375c0 3.890625 3.15625 7.046875 7.046874 7.046875 3.894532 0 7.050782-3.15625 7.050782-7.046875v-43.011719c0-2.828125 1.707031-5.378906 4.320312-6.460938 2.613282-1.082031 5.625-.484374 7.625 1.515626l14.480469 14.480468c2.785156 2.667969 7.179687 2.667969 9.964844 0 1.324219-1.320312 2.066406-3.113281 2.066406-4.984375 0-1.871093-.742187-3.664062-2.066406-4.984375l-14.480469-14.480468c-2-2-2.597656-5.011719-1.515625-7.625 1.082031-2.617188 3.632813-4.320313 6.464844-4.324219h43.011719c3.890624 0 7.046874-3.152344 7.046874-7.046875 0-3.890625-3.15625-7.046875-7.046874-7.046875h-71.101563c-1.855469-.003907-3.632813-.738281-4.945313-2.054688l-73.269531-73.246093c-1.3125-1.3125-2.050781-3.09375-2.050781-4.949219 0-1.859375.738281-3.640625 2.050781-4.949219l7.199219-7.179688c1.777344-1.785156 3.265625-3.84375 4.402344-6.09375 1.191406-2.351562 3.605468-3.828124 6.238281-3.828124h27.5625c1.859375 0 3.636719.738281 4.949219 2.050781l50.28125 50.28125c1.765625 1.855469 4.398437 2.605469 6.875 1.960937 2.480468-.640625 4.417968-2.578125 5.058594-5.054687.640624-2.480469-.109376-5.113281-1.964844-6.878907l-30.402344-30.398437c-2-2.003906-2.597656-5.011719-1.515625-7.628906 1.082031-2.613281 3.632813-4.320313 6.464844-4.320313h29.640625c1.855468 0 3.636718.738282 4.945312 2.050782l50.28125 50.28125c2.757813 2.757812 7.226563 2.757812 9.984375 0 2.757813-2.757813 2.757813-7.226563 0-9.984376l-30.398437-30.398437c-2-2.003906-2.601563-5.011719-1.515625-7.628906 1.082031-2.613281 3.632812-4.320313 6.460937-4.320313h20.476563c3.828125-.089844 6.886719-3.21875 6.886719-7.050781 0-3.828125-3.058594-6.957031-6.886719-7.050781h-20.476563c-2.828125 0-5.378906-1.707032-6.460937-4.320313-1.085938-2.613281-.484375-5.625 1.515625-7.625l30.398437-30.402343c2.753907-2.75 2.753907-7.214844 0-9.964844-2.753906-2.753906-7.214843-2.753906-9.96875 0l-50.277343 50.273437c-1.3125 1.3125-3.09375 2.050781-4.949219 2.050781h-29.640625c-2.84375.019532-5.417969-1.6875-6.507813-4.316406-1.089843-2.628906-.480469-5.65625 1.542969-7.65625l30.402344-30.402344c2.636718-2.769531 2.585937-7.140624-.121094-9.847656-2.707031-2.707031-7.074219-2.761718-9.847656-.125l-50.273438 50.273438c-1.3125 1.3125-3.089844 2.050781-4.945312 2.050781h-27.5625c-2.632813 0-5.042969-1.472656-6.238282-3.820313-1.140624-2.25-2.625-4.3125-4.402343-6.101562l-7.210938-7.179688c-1.3125-1.3125-2.050781-3.09375-2.050781-4.949218 0-1.859375.738281-3.640625 2.050781-4.953125l73.265625-73.242188c1.3125-1.3125 3.089844-2.050781 4.945313-2.050781h71.109375c3.890625 0 7.046875-3.15625 7.046875-7.050781 0-3.890625-3.15625-7.046875-7.046875-7.046875h-43.007813c-2.832031 0-5.382812-1.707032-6.464843-4.320313-1.082032-2.617187-.484376-5.625 1.515624-7.628906l14.480469-14.480469c1.324219-1.320312 2.066407-3.113281 2.066407-4.980468 0-1.867188-.742188-3.660157-2.066407-4.980469-2.785156-2.671875-7.179687-2.671875-9.964843 0l-14.484376 14.476562c-2 2.003907-5.011718 2.601563-7.625 1.519531-2.613281-1.085937-4.320312-3.636718-4.320312-6.464843v-43.019531c0-3.894532-3.15625-7.050782-7.050781-7.050782-3.890625 0-7.046875 3.15625-7.046875 7.050782v71.105468c0 1.859375-.738282 3.636719-2.050782 4.949219l-73.25 73.269531c-1.3125 1.3125-3.089843 2.050782-4.949218 2.050782-1.855469 0-3.636719-.738282-4.949219-2.050782l-7.175781-7.203125c-1.789063-1.777343-3.84375-3.261719-6.097656-4.398437-2.347657-1.191406-3.828126-3.605469-3.828126-6.238282v-27.574218c.003907-1.855469.742188-3.636719 2.054688-4.949219l50.273438-50.277344c1.324218-1.320312 2.066406-3.113281 2.066406-4.984375 0-1.867187-.742188-3.660156-2.066406-4.980468-2.785157-2.671876-7.179688-2.671876-9.964844 0l-30.402344 30.398437c-2 2.003906-5.011719 2.601563-7.625 1.515625-2.617188-1.082031-4.320312-3.632812-4.324219-6.460938v-29.648437c.003907-1.855469.742188-3.636719 2.054688-4.949219l50.261719-50.25c1.324218-1.320312 2.066406-3.113281 2.066406-4.984375 0-1.867187-.742188-3.660156-2.066406-4.980469-2.785157-2.671874-7.179688-2.671874-9.964844 0l-30.402344 30.398438c-2 2-5.011719 2.601562-7.625 1.515625-2.617188-1.082031-4.320312-3.632813-4.324219-6.460937v-20.492188c.0625-2.558594-1.269531-4.953125-3.472656-6.25-2.207031-1.296875-4.945313-1.296875-7.148437 0-2.207032 1.296875-3.539063 3.691406-3.476563 6.25v20.472656c-.003906 2.832032-1.707031 5.382813-4.324219 6.464844-2.613281 1.082031-5.621094.484375-7.625-1.515625l-30.425781-30.417969c-2.785156-2.671875-7.179687-2.671875-9.964844 0-1.324219 1.320313-2.070312 3.113282-2.070312 4.984375 0 1.867188.746093 3.660157 2.070312 4.980469l50.273438 50.28125c1.316406 1.3125 2.054687 3.09375 2.054687 4.949219v29.640625c.003906 2.832031-1.699218 5.390625-4.316406 6.480468-2.617188 1.085938-5.632812.488282-7.636719-1.519531l-30.398437-30.398437c-2.785156-2.667969-7.179688-2.667969-9.964844 0-1.324219 1.320312-2.066406 3.113281-2.066406 4.980468 0 1.871094.742187 3.664063 2.066406 4.984376l50.261719 50.273437c1.316406 1.3125 2.054687 3.09375 2.054687 4.949219v27.566406c0 2.632812-1.480468 5.046875-3.828125 6.238281-2.25 1.136719-4.308593 2.621094-6.097656 4.398438l-7.179687 7.210937c-1.3125 1.3125-3.09375 2.050782-4.949219 2.050782s-3.636719-.738282-4.949219-2.050782l-73.246094-73.265625c-1.3125-1.3125-2.050781-3.089843-2.050781-4.949219v-71.109374c0-3.894532-3.15625-7.050782-7.046875-7.050782-3.894531 0-7.050781 3.15625-7.050781 7.050782v43.011718c0 2.828125-1.707031 5.378906-4.320313 6.460938-2.613281 1.085937-5.625.488281-7.625-1.515625l-14.480468-14.476563c-2.785157-2.671875-7.179688-2.671875-9.964844 0-1.324219 1.316406-2.066406 3.109375-2.066406 4.980469s.742187 3.660156 2.066406 4.980469l14.480468 14.484375c2 2.003906 2.597657 5.011719 1.515626 7.628906-1.082032 2.613281-3.632813 4.320313-6.464844 4.320313h-43.019532c-3.890624 0-7.046874 3.15625-7.046874 7.046874 0 3.894532 3.15625 7.050782 7.046874 7.050782h71.109376c1.855468 0 3.636718.738281 4.945312 2.050781l73.269531 73.246094c1.3125 1.3125 2.050781 3.09375 2.050781 4.953125 0 1.855468-.738281 3.636718-2.050781 4.949218l-7.199219 7.175782c-1.777343 1.789062-3.261718 3.851562-4.402343 6.101562-1.195313 2.347656-3.605469 3.820313-6.238281 3.820313h-27.558594c-1.859375 0-3.636719-.738281-4.949219-2.050781l-50.292969-50.28125c-1.765625-1.851563-4.398437-2.605469-6.875-1.960938-2.480468.640625-4.417968 2.578125-5.058594 5.058594-.640624 2.476562.109376 5.109375 1.964844 6.875l30.402344 30.402344c2 2 2.597656 5.007812 1.515625 7.625-1.082031 2.613281-3.632813 4.320312-6.464844 4.320312h-29.644531c-1.855469 0-3.636719-.738281-4.945312-2.050781l-50.253907-50.269531c-2.753906-2.761719-7.222656-2.765626-9.984375-.011719-2.761718 2.753906-2.769531 7.222656-.015625 9.984375l30.398438 30.402344c2.003906 2 2.601562 5.007812 1.519531 7.625-1.085938 2.613281-3.636719 4.320312-6.464844 4.320312h-20.457031c-2.558594-.058594-4.949219 1.269531-6.246094 3.476562-1.296875 2.207032-1.296875 4.941407 0 7.148438s3.6875 3.535156 6.246094 3.476562h20.476563c2.828124 0 5.378906 1.707032 6.464843 4.320313 1.082031 2.617187.484375 5.625-1.515625 7.628906l-30.421875 30.425781c-2.753906 2.761719-2.746093 7.230469.015625 9.984376 2.761719 2.753906 7.230469 2.746093 9.984375-.015626l50.28125-50.277343c1.3125-1.3125 3.089844-2.050781 4.945313-2.050781h29.640625c2.828125.007812 5.375 1.714843 6.453125 4.328124 1.078125 2.613282.476562 5.621094-1.519532 7.621094l-30.402343 30.398438c-2.636719 2.773437-2.585938 7.140625.121093 9.847656 2.707032 2.707031 7.074219 2.761719 9.847657.125l50.28125-50.28125c1.3125-1.3125 3.089843-2.050781 4.949219-2.050781h27.5625c2.636718 0 5.046874 1.476562 6.238281 3.828125 1.136719 2.25 2.625 4.308594 4.402343 6.09375l7.199219 7.191406c1.3125 1.308594 2.050781 3.089844 2.050781 4.949219 0 1.855469-.738281 3.636719-2.050781 4.949219l-73.265625 73.242187c-1.308594 1.316406-3.089844 2.050781-4.945312 2.054687h-71.113282c-3.890624 0-7.046874 3.15625-7.046874 7.046876 0 3.890624 3.15625 7.046874 7.046874 7.046874h43.011719c2.832031.003907 5.382813 1.707032 6.464844 4.324219 1.082031 2.613281.484375 5.621094-1.515625 7.625l-14.480469 14.480469c-1.324219 1.320312-2.066406 3.113281-2.066406 4.980469 0 1.871093.742187 3.664062 2.066406 4.984375 2.785157 2.667968 7.179688 2.667968 9.964844 0l14.484375-14.480469c2-2 5.011719-2.601563 7.625-1.515625 2.613281 1.082031 4.320312 3.632812 4.320312 6.460938v43.015624c0 3.890626 3.15625 7.046876 7.050782 7.046876 3.890625 0 7.046875-3.15625 7.046875-7.046876v-71.101562c0-1.855469.738281-3.636719 2.050781-4.949219l73.25-73.265625c1.3125-1.316406 3.09375-2.054687 4.949219-2.054687s3.636719.738281 4.949219 2.054687l7.175781 7.199219c1.789062 1.777344 3.847656 3.261719 6.097656 4.398437 2.347656 1.195313 3.828125 3.605469 3.828125 6.242188v27.5625c-.003906 1.855469-.738281 3.636719-2.054688 4.949219l-50.273437 50.285156c-1.324219 1.324219-2.066406 3.113281-2.066406 4.984375 0 1.867188.742187 3.660156 2.066406 4.980469 2.785156 2.671875 7.179687 2.671875 9.96875 0l30.398437-30.398438c2-2 5.011719-2.597656 7.625-1.515625 2.617188 1.082032 4.320313 3.632813 4.324219 6.464844v29.636719c-.003906 1.859375-.742187 3.636719-2.054687 4.949219l-50.261719 50.261718c-2.761719 2.75-2.769531 7.222656-.015625 9.984375 2.75 2.757813 7.222656 2.765625 9.984375.015625l30.398437-30.402344c1.3125-1.324218 3.097657-2.070312 4.960938-2.070312zm14.050781-156.894531c-5.347656.015625-10.476562-2.109375-14.242187-5.902344l-14.492188-14.492187c-7.855468-7.867188-7.855468-20.609376 0-28.476563l14.496094-14.496094c3.773438-3.777343 8.898438-5.902343 14.238281-5.902343 5.34375 0 10.464844 2.125 14.238281 5.902343l14.492188 14.496094c7.855469 7.867187 7.855469 20.609375 0 28.476563l-14.492188 14.496093c-3.765624 3.789063-8.894531 5.914063-14.238281 5.898438zm0-55.269531c-1.628906-.003907-3.191406.644531-4.335937 1.800781l-14.5 14.496093c-2.394532 2.394532-2.394532 6.28125 0 8.679688l14.496094 14.496094c2.425781 2.320312 6.25 2.320312 8.675781 0l14.496093-14.496094c2.394532-2.398438 2.394532-6.285156 0-8.679688l-14.496093-14.496093c-1.148438-1.15625-2.707031-1.804688-4.335938-1.800781zm0 0"/></svg>