<svg height="477pt" viewBox="-40 0 477 477.00857" width="477pt" xmlns="http://www.w3.org/2000/svg"><path d="m83.492188 43.5625c-2.734376-2.734375-2.734376-7.167969 0-9.902344 2.734374-2.734375 7.167968-2.734375 9.898437 0l14.199219 14.195313c2.730468 2.734375 2.730468 7.167969 0 9.902343-2.734375 2.734376-7.167969 2.734376-9.902344 0zm-28.472657 56.5625 19.394531 5.199219c3.734376 1 7.570313-1.214844 8.570313-4.949219 1.003906-3.734375-1.214844-7.574219-4.949219-8.574219l-19.390625-5.199219c-3.734375-1-7.574219 1.214844-8.574219 4.949219s1.214844 7.574219 4.949219 8.574219zm1.808594 63.460938c.613281 0 1.222656-.082032 1.816406-.242188l19.390625-5.199219c3.734375-1 5.953125-4.839843 4.949219-8.574219-1-3.734374-4.835937-5.949218-8.570313-4.949218l-19.394531 5.199218c-3.390625.910157-5.578125 4.191407-5.121093 7.671876.457031 3.480468 3.417968 6.082031 6.929687 6.089843zm142.582031-130.433594c3.734375 1 7.570313-1.214844 8.574219-4.949219l5.199219-19.390625c1-3.734375-1.214844-7.574219-4.949219-8.574219s-7.574219 1.214844-8.574219 4.949219l-5.199218 19.394531c-1 3.730469 1.214843 7.570313 4.949218 8.570313zm-57.78125-4.949219c1 3.734375 4.839844 5.953125 8.574219 4.953125 3.734375-1.003906 5.949219-4.839844 4.949219-8.574219l-5.199219-19.394531c-1-3.734375-4.839844-5.949219-8.574219-4.949219s-5.953125 4.839844-4.949218 8.574219zm105.339844 31.601563c1.855469 0 3.636719-.738282 4.949219-2.050782l14.199219-14.199218c2.734374-2.730469 2.734374-7.164063 0-9.898438-2.734376-2.734375-7.167969-2.734375-9.902344 0l-14.199219 14.195312c-2 2.003907-2.597656 5.011719-1.515625 7.628907 1.082031 2.613281 3.632812 4.320312 6.464844 4.320312zm47.621094 90-19.394532-5.199219c-3.734374-1-7.574218 1.214843-8.574218 4.949219-1 3.734374 1.214844 7.574218 4.953125 8.574218l19.390625 5.199219c3.734375 1 7.574218-1.214844 8.574218-4.949219s-1.214843-7.574218-4.949218-8.574218zm-27.964844-49.433594c1.007812 3.726562 4.847656 5.933594 8.574219 4.933594l19.394531-5.199219c3.734375-1 5.949219-4.839844 4.949219-8.574219s-4.839844-5.953125-8.574219-4.949219l-19.390625 5.199219c-1.800781.480469-3.332031 1.65625-4.261719 3.265625-.929687 1.613281-1.179687 3.53125-.691406 5.324219zm53.3125 238.933594h-155.929688l8.476563 8.476562c2.742187 2.734375 2.746094 7.171875.011719 9.910156-2.734375 2.742188-7.171875 2.746094-9.910156.011719l-18.375-18.398437h-15.253907v15.261718l18.371094 18.375c2.734375 2.734375 2.734375 7.164063 0 9.898438s-7.167969 2.734375-9.898437 0l-8.472657-8.476563v11.800781c0 3.867188-3.132812 7-7 7-3.867187 0-7-3.132812-7-7v-11.800781l-8.476562 8.476563c-2.734375 2.734375-7.167969 2.734375-9.898438 0-2.734375-2.734375-2.734375-7.164063 0-9.898438l18.375-18.375v-15.261718h-15.257812l-18.375 18.398437c-2.734375 2.734375-7.167969 2.734375-9.898438 0-2.734375-2.730469-2.734375-7.164063 0-9.898437l8.476563-8.5h-13.847656c-36.476563 0-66.05078175-29.574219-66.05078175-66.050782 0-36.480468 29.57421875-66.054687 66.05078175-66.054687 2.757812.003906 5.507812.1875 8.242187.550781 3.277344-17.0625 10.550781-33.101562 21.230469-46.800781-15.941406-35-7.035156-76.3125 21.90625-101.636719 28.945312-25.324219 71.074218-28.664062 103.644531-8.214844 32.574219 20.445313 47.875 59.835938 37.648437 96.910156 12.914063 12.078126 22.730469 27.085938 28.625 43.753907 28.742188-13.351563 62.71875-7.824219 85.75 13.949219 23.027344 21.769531 30.449219 55.382812 18.734376 84.828124-11.71875 29.445313-40.207032 48.769532-71.898438 48.765626zm-214.070312-190c38.132812-37.132813 97.316406-41.808594 140.800781-11.121094 5.566406-30.207032-8.34375-60.671875-34.820313-76.246094-26.472656-15.578125-59.859375-12.941406-83.5625 6.597656-23.699218 19.539063-32.65625 51.808594-22.417968 80.769532zm277.464843 112.613281c.046875-22.964844-12.347656-44.148438-32.386719-55.363281-20.039062-11.210938-44.578124-10.691407-64.125 1.363281h-.03125l-.027343.019531c-22.597657 13.597656-23.035157 42.730469-23.035157 43.023438-.019531 3.851562-3.148437 6.964843-7 6.96875-3.855468-.003907-6.976562-3.132813-6.976562-6.988282 0-1.433594.335938-33.402344 25.199219-51.875-5.398438-16.820312-15.320313-31.832031-28.679688-43.386718-.078125-.0625-.152343-.117188-.226562-.1875-26.980469-23.324219-64.617188-29.878907-97.894531-17.046876-33.277344 12.835938-56.769532 42.964844-61.105469 78.363282-.238281 1.984375-1.320313 3.773437-2.964844 4.910156s-3.695313 1.515625-5.636719 1.042969c-19.507812-4.78125-40.023437 2.089843-52.714844 17.65625-12.6875 15.566406-15.285156 37.046875-6.671874 55.191406 8.613281 18.140625 26.902343 29.707031 46.984374 29.710937h13.847657l-8.472657-8.476562c-2.734374-2.734375-2.734374-7.164062 0-9.898438 2.730469-2.734374 7.164063-2.734374 9.898438 0l18.386719 18.359376h15.257812v-15.234376l-18.371093-18.367187c-2.734376-2.730469-2.734376-7.164063 0-9.898437 2.730468-2.734376 7.164062-2.734376 9.898437 0l8.476563 8.476562v-11.800781c0-3.867188 3.132812-7 7-7 3.867187 0 7 3.132812 7 7v11.800781l8.472656-8.476562c2.746094-2.652344 7.113281-2.613282 9.8125.085937 2.699218 2.703125 2.734375 7.066406.082031 9.8125l-18.371094 18.378906v15.222657h15.253907l18.378906-18.371094c2.730468-2.734375 7.164062-2.734375 9.898437 0s2.734375 7.164062 0 9.898437l-8.480469 8.472657h155.929688c34.992188-.039063 63.351562-28.390626 63.398438-63.382813zm-76.359375 149.171875c0 3.863281-3.132812 7-7 7h-14.503906l10.398438 10.398437c2.734374 2.734375 2.734374 7.167969 0 9.898438-2.734376 2.734375-7.164063 2.734375-9.898438 0l-20.296875-20.28125h-5.867187c-2.035157 5.433593-6.324219 9.71875-11.757813 11.753906v5.84375l20.296875 20.300781c2.734375 2.734375 2.734375 7.167969 0 9.902344-2.734375 2.730469-7.164062 2.730469-9.898438 0l-10.402343-10.402344v14.503906c0 3.867188-3.132813 7-7 7-3.863281 0-7-3.132812-7-7v-14.503906l-10.398438 10.402344c-2.734375 2.730469-7.167969 2.730469-9.898437 0-2.734375-2.734375-2.734375-7.167969 0-9.902344l20.292968-20.300781v-5.863281c-5.429687-2.035156-9.71875-6.324219-11.753906-11.753906h-5.863281l-20.296875 20.292968c-2.765625 2.496094-7 2.390625-9.636719-.238281-2.632812-2.632813-2.75-6.867187-.261719-9.636719l10.402344-10.398437h-14.503906c-3.867188 0-7-3.136719-7-7 0-3.867188 3.132812-7 7-7h14.503906l-10.402344-10.402344c-2.730468-2.730469-2.730468-7.164063 0-9.898437 2.734376-2.734376 7.167969-2.734376 9.902344 0l20.296875 20.300781h5.867188c2.035156-5.433594 6.324219-9.71875 11.753906-11.757813v-5.867187l-20.292969-20.296875c-2.734375-2.734375-2.734375-7.164063 0-9.898438 2.730469-2.734375 7.164063-2.734375 9.898438 0l10.398437 10.398438v-14.523438c0-3.867187 3.136719-7 7-7 3.867188 0 7 3.132813 7 7v14.503906l10.402344-10.398437c2.734375-2.734375 7.164063-2.734375 9.898437 0 2.734376 2.734375 2.734376 7.164063 0 9.898437l-20.296874 20.296876v5.867187c5.433593 2.035156 9.722656 6.324219 11.757812 11.757813h5.867188l20.296874-20.300782c2.734376-2.734375 7.164063-2.734375 9.898438 0s2.734375 7.164063 0 9.898438l-10.398438 10.402344h14.503907c3.863281.003906 6.992187 3.136718 6.992187 7.003906zm-59.839844 0c0-3.363282-2.722656-6.085938-6.085937-6.085938-3.359375 0-6.082031 2.722656-6.082031 6.085938 0 3.359375 2.722656 6.082031 6.082031 6.082031 3.359375-.003906 6.082031-2.726563 6.085937-6.082031zm5.679688-110.984375c0 11.089843-8.992188 20.082031-20.085938 20.082031-11.089843 0-20.082031-8.992188-20.082031-20.082031 0-11.09375 8.992188-20.085938 20.082031-20.085938 11.085938.015625 20.070313 9 20.085938 20.085938zm-14 0c0-3.359375-2.722656-6.085938-6.085938-6.085938-3.359374 0-6.082031 2.726563-6.082031 6.085938s2.722657 6.082031 6.082031 6.082031c3.359376-.003906 6.082032-2.726562 6.085938-6.082031zm138.023438 77.800781c0 13.53125-10.96875 24.503906-24.503907 24.503906-13.53125 0-24.503906-10.972656-24.503906-24.503906 0-13.535156 10.972656-24.503906 24.503906-24.503906 13.527344.011718 24.488281 10.976562 24.503907 24.503906zm-14 0c0-5.804688-4.703126-10.503906-10.503907-10.503906s-10.503906 4.699218-10.503906 10.503906c0 5.800781 4.703125 10.503906 10.503906 10.503906 5.796875-.007812 10.496094-4.707031 10.503907-10.503906zm-280.070313 55.527344c0 11.84375-9.601563 21.445312-21.445313 21.441406-11.84375 0-21.445312-9.601562-21.445312-21.445312.003906-11.84375 9.605469-21.441407 21.449219-21.441407 11.835937.011719 21.429687 9.605469 21.441406 21.445313zm-14 0c0-4.113282-3.332031-7.449219-7.445313-7.449219-4.109374 0-7.445312 3.332031-7.445312 7.445313.003906 4.113281 3.335938 7.445312 7.449219 7.441406 4.105469-.003906 7.433593-3.332032 7.441406-7.4375zm0 0"/></svg>