<svg height="469pt" viewBox="0 -8 469.01272 469" width="469pt" xmlns="http://www.w3.org/2000/svg"><path d="m390.308594 74.324219c-9.21875-.007813-18.359375 1.625-27 4.828125-13.554688-40.59375-48.386719-70.40625-90.585938-77.53125-42.199218-7.121094-84.886718 9.601562-111.015625 43.496094-12.1875-8.03125-26.476562-12.285157-41.074219-12.238282-41.511718.042969-75.15625 33.6875-75.199218 75.203125 0 .976563.023437 1.960938.074218 2.976563-29.765624 7.96875-49.011718 36.773437-44.980468 67.320312 4.03125 30.550782 30.085937 53.378906 60.898437 53.355469h190.09375l-6.96875 6.964844c-2.734375 2.734375-2.734375 7.167969 0 9.902343 2.734375 2.734376 7.167969 2.734376 9.898438 0l16.859375-16.867187h23.027344l-16.769532 16.765625c-2.734375 2.734375-2.734375 7.167969 0 9.902344 2.734375 2.730468 7.167969 2.730468 9.898438 0l16.769531-16.769532v23.027344l-16.867187 16.867188c-2.734376 2.734375-2.734376 7.167968 0 9.902344 2.734374 2.734374 7.164062 2.734374 9.898437 0l6.96875-6.96875v7.878906c0 3.867187 3.132813 7 7 7s7-3.132813 7-7v-7.878906l6.96875 6.96875c2.734375 2.734374 7.164063 2.734374 9.898437 0 2.734376-2.734376 2.734376-7.167969 0-9.902344l-16.867187-16.867188v-23.027344l16.769531 16.769532c2.730469 2.734375 7.164063 2.734375 9.898438.003906 2.734375-2.734375 2.738281-7.167969.003906-9.902344l-16.765625-16.769531h23.027344l16.867187 16.867187c2.734375 2.734376 7.164063 2.734376 9.898438 0 2.734375-2.734374 2.734375-7.167968 0-9.902343l-6.972656-6.964844h19.347656c43.464844 0 78.703125-35.238281 78.703125-78.707031s-35.238281-78.707032-78.703125-78.707032zm0 143.414062h-19.347656l6.96875-6.96875c2.734374-2.734375 2.734374-7.167969 0-9.902343-2.734376-2.734376-7.164063-2.734376-9.898438 0l-16.863281 16.867187h-23.027344l16.765625-16.761719c2.734375-2.734375 2.734375-7.167968 0-9.898437-2.734375-2.734375-7.164062-2.734375-9.898438 0l-16.769531 16.765625v-23.03125l16.867188-16.867188c2.734375-2.734375 2.734375-7.167968 0-9.902344-2.734375-2.730468-7.164063-2.730468-9.898438 0l-6.964843 6.972657v-7.882813c0-3.867187-3.132813-7-7-7-3.867188 0-7 3.132813-7 7v7.882813l-6.96875-6.96875c-2.734376-2.730469-7.164063-2.730469-9.898438 0-2.734375 2.734375-2.734375 7.167969 0 9.902343l16.867188 16.867188v23.027344l-16.765626-16.765625c-2.734374-2.734375-7.167968-2.734375-9.902343 0-2.734375 2.730469-2.734375 7.164062 0 9.898437l16.769531 16.769532h-23.035156l-16.871094-16.871094c-2.734375-2.734375-7.164062-2.734375-9.898438 0-2.734374 2.734375-2.734374 7.167968 0 9.902344l6.96875 6.96875h-190.082031c-24.757812.019531-45.359375-19.03125-47.269531-43.71875-1.914062-24.683594 15.503906-46.679688 39.96875-50.476563 3.742188-.582031 6.34375-4.03125 5.875-7.789063-3.167969-24.730468 9.003906-48.902343 30.753906-61.085937s48.722656-9.933594 68.152344 5.683594c1.523438 1.226562 3.488281 1.753906 5.421875 1.464843 1.929687-.289062 3.652344-1.375 4.75-2.992187 22.410156-33.148437 62.160156-50.101563 101.597656-43.324219s71.25 36.023438 81.3125 74.753906c3.273438 16.234376 2.746094 33.007813-1.546875 49.007813-1.082031 3.617187.898438 7.441406 4.476563 8.644531 3.582031 1.203125 7.46875-.652344 8.789062-4.191406 4.664063-16.5 5.667969-33.816406 2.945313-50.746094 7.515625-3.035156 15.546875-4.609375 23.65625-4.632812 35.734375 0 64.703125 28.96875 64.703125 64.707031 0 35.734375-28.96875 64.707031-64.703125 64.707031zm-268.050782 89.234375 10.800782 10.800782h26c3.867187 0 7 3.132812 7 7 0 3.863281-3.132813 7-7 7h-12l8.34375 8.34375c2.734375 2.734374 2.734375 7.164062 0 9.898437s-7.164063 2.734375-9.898438 0l-8.355468-8.355469v12c0 3.867188-3.136719 7-7 7-3.867188 0-7-3.132812-7-7v-26l-10.800782-10.800781-10.800781 10.800781v26c0 3.867188-3.132813 7-7 7s-7-3.132812-7-7v-12l-8.320313 8.34375c-2.734374 2.734375-7.167968 2.734375-9.898437 0-2.734375-2.734375-2.734375-7.164062 0-9.898437l8.347656-8.332031h-12c-3.867187 0-7-3.136719-7-7 0-3.867188 3.132813-7 7-7h26l10.800781-10.800782-10.800781-10.800781h-26c-3.867187 0-7-3.132813-7-7s3.132813-7 7-7h12l-8.34375-8.34375c-2.734375-2.734375-2.734375-7.164063 0-9.898437 2.734375-2.734376 7.164063-2.734376 9.898438 0l8.34375 8.34375v-12c0-3.867188 3.132812-7 7-7 3.867187 0 7 3.132812 7 7v26l10.800781 10.800781 10.800781-10.800781v-26c0-3.867188 3.132813-7 7-7 3.863281 0 7 3.132812 7 7v12l8.34375-8.34375c2.734375-2.734376 7.164063-2.734376 9.898438 0 2.734375 2.734374 2.734375 7.164062 0 9.898437l-8.375 8.34375h12c3.867187 0 7 3.132813 7 7s-3.132813 7-7 7h-26zm191.753907 74h-14.5l10.398437-10.398437c2.734375-2.734375 2.734375-7.167969 0-9.902344s-7.164062-2.734375-9.898437 0l-20.304688 20.300781h-5.859375c-2.039062-5.421875-6.316406-9.703125-11.742187-11.738281v-5.863281l20.296875-20.292969c2.738281-2.734375 2.738281-7.167969.007812-9.902344-2.734375-2.738281-7.167968-2.738281-9.902344-.007812l-10.402343 10.402343v-14.503906c0-3.867187-3.132813-7-7-7-3.863281 0-7 3.132813-7 7v14.5l-10.398438-10.402344c-2.734375-2.734374-7.167969-2.734374-9.898437 0-2.734375 2.734376-2.734375 7.167969 0 9.902344l20.296875 20.304688v5.871094c-5.429688 2.035156-9.71875 6.320312-11.753907 11.753906h-5.890624l-20.292969-20.304688c-2.761719-2.53125-7.027344-2.445312-9.679688.203125-2.652343 2.648438-2.75 6.914063-.222656 9.679688l10.402344 10.398437h-14.5c-3.867188 0-7 3.132813-7 7 0 3.867188 3.132812 7 7 7h14.5l-10.402344 10.398438c-2.734375 2.734375-2.734375 7.167968 0 9.902344 2.734375 2.734374 7.167969 2.734374 9.902344 0l20.292969-20.300782h5.871093c2.035157 5.433594 6.320313 9.71875 11.753907 11.753906v5.871094l-20.296876 20.292969c-2.730468 2.734375-2.730468 7.167969 0 9.902344 2.734376 2.734375 7.167969 2.734375 9.902344 0l10.398438-10.402344v14.503906c0 3.867188 3.136718 7 7 7 3.867187 0 7-3.132812 7-7v-14.503906l10.402344 10.402344c2.730468 2.734375 7.164062 2.734375 9.898437 0s2.734375-7.167969 0-9.902344l-20.285156-20.277344v-5.867187c5.429687-2.046875 9.710937-6.339844 11.742187-11.773438h5.859375l20.296875 20.296875c2.734375 2.734375 7.164063 2.734375 9.898438 0s2.734375-7.167969 0-9.902343l-10.398438-10.398438h14.5c3.863282 0 7-3.132812 7-7s-3.136718-7-7-7zm-58.921875 13.082032c-3.359375 0-6.082032-2.722657-6.082032-6.082032s2.722657-6.085937 6.082032-6.085937 6.085937 2.726562 6.085937 6.085937c.003907 3.363282-2.71875 6.09375-6.085937 6.101563zm-45.839844-96.953126c11.09375 0 20.085938-8.992187 20.085938-20.085937 0-11.089844-8.992188-20.082031-20.085938-20.082031-11.089844 0-20.082031 8.992187-20.082031 20.082031.011719 11.085937 8.996093 20.070313 20.082031 20.085937zm0-26.171874c3.359375 0 6.085938 2.722656 6.085938 6.082031s-2.726563 6.085937-6.085938 6.085937-6.082031-2.726562-6.082031-6.085937c.003906-3.359375 2.722656-6.078125 6.082031-6.082031zm163.734375 53.859374c-13.535156 0-24.503906 10.96875-24.503906 24.503907 0 13.53125 10.96875 24.503906 24.503906 24.503906 13.53125 0 24.503906-10.972656 24.503906-24.503906-.015625-13.527344-10.980469-24.488281-24.503906-24.503907zm0 35.007813c-5.804687 0-10.503906-4.703125-10.503906-10.503906s4.699219-10.503907 10.503906-10.503907c5.800781 0 10.503906 4.703126 10.503906 10.503907-.007812 5.796875-4.707031 10.496093-10.503906 10.503906zm-236.988281 29.09375c-11.84375 0-21.445313 9.601563-21.445313 21.445313s9.601563 21.445312 21.445313 21.445312c11.84375-.003906 21.445312-9.605469 21.441406-21.449219-.011719-11.835937-9.605469-21.429687-21.441406-21.441406zm0 28.890625c-4.113282 0-7.445313-3.332031-7.445313-7.445312 0-4.109376 3.332031-7.445313 7.445313-7.445313 4.109375 0 7.441406 3.335937 7.441406 7.445313-.007812 4.105468-3.335938 7.433593-7.441406 7.4375zm0 0"/></svg>