<svg height="438pt" viewBox="0 -14 438.82077 438" width="438pt" xmlns="http://www.w3.org/2000/svg"><path d="m228.671875 410.003906c-1.136719 0-2.253906-.273437-3.257813-.800781l-59.464843-31.261719-59.46875 31.261719c-2.355469 1.238281-5.214844 1.03125-7.371094-.535156-2.152344-1.566407-3.234375-4.21875-2.78125-6.847657l11.355469-66.21875-48.113282-46.902343c-1.90625-1.859375-2.589843-4.640625-1.765624-7.175781.820312-2.53125 3.011718-4.378907 5.644531-4.761719l66.484375-9.664063 29.738281-60.246094c1.175781-2.390624 3.609375-3.90625 6.273437-3.90625 2.664063 0 5.097657 1.515626 6.277344 3.90625l29.730469 60.246094 66.488281 9.664063c2.636719.382812 4.824219 2.230469 5.648438 4.761719.824218 2.535156.136718 5.316406-1.765625 7.175781l-48.101563 46.902343 11.359375 66.214844c.347657 2.035156-.214843 4.121094-1.546875 5.699219-1.332031 1.578125-3.289062 2.488281-5.351562 2.488281zm-62.726563-46.988281c1.136719 0 2.253907.273437 3.257813.796875l50.167969 26.378906-9.601563-55.867187c-.394531-2.265625.355469-4.582031 2-6.195313l40.589844-39.5625-56.0625-8.164062c-2.277344-.332032-4.25-1.761719-5.265625-3.828125l-25.085938-50.808594-25.085937 50.828125c-1.019531 2.066406-2.988281 3.496094-5.269531 3.828125l-56.085938 8.152344 40.585938 39.5625c1.644531 1.613281 2.394531 3.929687 2 6.199219l-9.597656 55.863281 50.167968-26.378907c1.011719-.53125 2.140625-.808593 3.285156-.804687zm-140.941406-118.402344c-2.066406 0-4.023437-.910156-5.355468-2.488281-1.328126-1.578125-1.894532-3.660156-1.546876-5.695312l4.921876-28.761719-20.914063-20.402344c-1.90625-1.859375-2.589844-4.640625-1.765625-7.171875.824219-2.535156 3.011719-4.378906 5.648438-4.761719l28.898437-4.203125 12.917969-26.183594c1.179687-2.390624 3.613281-3.902343 6.28125-3.902343 2.664062 0 5.097656 1.511719 6.277344 3.902343l12.917968 26.183594 28.902344 4.203125c2.632812.382813 4.824219 2.226563 5.644531 4.761719.824219 2.53125.140625 5.3125-1.765625 7.171875l-20.914062 20.402344 4.933594 28.773437c.449218 2.625-.628907 5.28125-2.785157 6.847656-2.152343 1.566407-5.011719 1.773438-7.371093.53125l-25.84375-13.597656-25.847657 13.597656c-.996093.527344-2.109375.800782-3.234375.804688zm-2.941406-57.472656 13.386719 13.058594c1.644531 1.609375 2.394531 3.925781 2 6.195312l-3.160157 18.421875 16.554688-8.699218c2.039062-1.070313 4.472656-1.070313 6.515625 0l16.546875 8.699218-3.160156-18.421875c-.394532-2.269531.355468-4.585937 2-6.195312l13.390625-13.058594-18.503907-2.6875c-2.277343-.328125-4.246093-1.761719-5.265624-3.828125l-8.273438-16.761719-8.269531 16.773438c-1.019531 2.066406-2.992188 3.5-5.269531 3.828125zm302.371094 222.863281c-2.0625 0-4.023438-.910156-5.351563-2.488281-1.332031-1.578125-1.898437-3.664063-1.546875-5.699219l4.929688-28.773437-20.910156-20.402344c-1.90625-1.859375-2.589844-4.640625-1.769532-7.171875.824219-2.53125 3.015625-4.378906 5.648438-4.761719l28.902344-4.199219 12.917968-26.1875c1.179688-2.386718 3.613282-3.902343 6.277344-3.902343 2.667969 0 5.101562 1.515625 6.277344 3.902343l12.921875 26.1875 28.898437 4.199219c2.636719.382813 4.824219 2.230469 5.648438 4.761719.824218 2.53125.140625 5.3125-1.765625 7.171875l-20.917969 20.402344 4.9375 28.773437c.449219 2.628906-.628906 5.28125-2.78125 6.847656-2.15625 1.566407-5.011719 1.777344-7.371094.539063l-25.84375-13.601563-25.84375 13.601563c-1.003906.527344-2.121094.800781-3.257812.800781zm-2.941406-57.472656 13.386718 13.054688c1.644532 1.609374 2.390625 3.925781 2 6.195312l-3.15625 18.425781 16.546875-8.699219c2.039063-1.070312 4.476563-1.070312 6.515625 0l16.550782 8.699219-3.160157-18.425781c-.394531-2.269531.351563-4.585938 2-6.195312l13.390625-13.054688-18.503906-2.6875c-2.269531-.34375-4.230469-1.777344-5.238281-3.839844l-8.273438-16.765625-8.289062 16.765625c-1.019531 2.0625-2.988281 3.496094-5.265625 3.828125zm-122.519532-208.613281 131.554688-131.554688c2.734375-2.734375 2.730468-7.167969-.003906-9.902343-2.734376-2.734376-7.167969-2.734376-9.902344 0l-131.546875 131.542968c-2.734375 2.730469-2.734375 7.164063 0 9.898438s7.167969 2.734375 9.898437 0zm-62.910156 62.90625 34.832031-34.820313c2.734375-2.734375 2.734375-7.167968 0-9.902344-2.734375-2.734374-7.167969-2.734374-9.898437 0l-34.832032 34.832032c-2.734374 2.734375-2.734374 7.167968 0 9.902344 2.730469 2.730468 7.164063 2.730468 9.898438 0zm-62.289062-68.636719 101.226562-101.226562c2.730469-2.734376 2.730469-7.164063 0-9.898438-2.734375-2.734375-7.167969-2.734375-9.902344 0l-101.222656 101.222656c-2.734375 2.734375-2.734375 7.167969 0 9.902344s7.164062 2.734375 9.898438 0zm176.492187 99.0625 176.492187-176.492188c2.734376-2.734374 2.734376-7.164062 0-9.898437-2.734374-2.734375-7.164062-2.734375-9.898437 0l-176.492187 176.492187c-2.734376 2.730469-2.734376 7.164063 0 9.898438 2.734374 2.734375 7.164062 2.734375 9.898437 0zm-40.09375-28.179688 88.242187-88.25c2.734376-2.730468 2.734376-7.164062 0-9.898437-2.734374-2.734375-7.164062-2.734375-9.898437 0l-88.246094 88.25c-2.734375 2.730469-2.734375 7.164063 0 9.898437 2.734375 2.734376 7.167969 2.734376 9.902344 0zm-96.140625-45.144531 31.632812-31.632812c1.863282-1.746094 2.628907-4.371094 1.996094-6.847657-.632812-2.476562-2.570312-4.410156-5.046875-5.042968-2.476562-.632813-5.101562.132812-6.847656 2l-31.632813 31.632812c-2.730468 2.734375-2.730468 7.164063 0 9.898438 2.734376 2.734375 7.167969 2.734375 9.902344 0zm51.488281-51.488281 14.925781-14.925781c2.738282-2.734375 2.738282-7.167969.007813-9.902344-2.734375-2.738281-7.167969-2.738281-9.902344-.007813l-14.929687 14.9375c-2.734375 2.734376-2.734375 7.164063 0 9.898438s7.167968 2.734375 9.902344 0zm36.039063-36.039062 43.253906-43.257813c2.734375-2.730469 2.734375-7.164063 0-9.898437-2.730469-2.734376-7.164062-2.734376-9.898438 0l-43.25 43.257812c-2.738281 2.730469-2.738281 7.164062-.003906 9.898438 2.730469 2.734374 7.164063 2.738281 9.898438.003906zm92.832031 182.625 30.378906-30.402344c2.734375-2.734375 2.734375-7.164063 0-9.898438s-7.164062-2.734375-9.898437 0l-30.378906 30.398438c-2.734376 2.734375-2.734376 7.167968 0 9.902344 2.730468 2.734374 7.164062 2.734374 9.898437 0zm55.523437-55.527344 54.496094-54.492188c2.734375-2.734375 2.734375-7.167968 0-9.902344-2.734375-2.734374-7.164062-2.734374-9.898437 0l-54.496094 54.5c-2.734375 2.734376-2.734375 7.167969 0 9.902344 2.734375 2.730469 7.164063 2.730469 9.898437 0zm-27.789062-106.378906 36.363281-36.359376c2.730469-2.734374 2.730469-7.164062 0-9.898437-2.734375-2.734375-7.167969-2.734375-9.902343 0l-36.363282 36.34375c-2.734375 2.734375-2.734375 7.164063 0 9.898437 2.734375 2.734376 7.164063 2.734376 9.898438 0zm-56.582031 262.363281 107.132812-107.128907c2.734375-2.734374 2.734375-7.167968 0-9.902343s-7.167969-2.734375-9.902343 0l-107.128907 107.152343c-2.730469 2.734376-2.730469 7.167969 0 9.902344 2.734375 2.730469 7.167969 2.730469 9.902344 0zm128.679687-60.324219 42.546875-42.546875c2.734375-2.734375 2.734375-7.164063 0-9.898437-2.734375-2.734376-7.164062-2.734376-9.898437 0l-42.535156 42.550781c-2.734376 2.734375-2.734376 7.167969 0 9.902343 2.730468 2.730469 7.164062 2.730469 9.898437 0zm2.15625-70.519531 38.082032-38.082031c2.734374-2.734376 2.734374-7.167969 0-9.902344-2.730469-2.730469-7.164063-2.730469-9.898438 0l-38.085938 38.085937c-2.730468 2.734375-2.730468 7.167969 0 9.898438 2.734376 2.734375 7.167969 2.734375 9.902344 0zm0 0"/></svg>