<svg height="472pt" viewBox="0 -16 472.20025 472" width="472pt" xmlns="http://www.w3.org/2000/svg"><path d="m426.34375 164.992188c.050781-1.035157.078125-2.039063.078125-3.039063-.015625-21.714844-9.382813-42.367187-25.710937-56.679687 11.238281-13.605469 12.558593-32.859376 3.273437-47.867188-9.28125-15.003906-27.097656-22.425781-44.289063-18.441406-9.960937-26.460938-37.042968-42.378906-65.007812-38.207032-27.964844 4.171876-49.222656 27.300782-51.023438 55.519532-58.664062-13.742188-118.140624 19.460937-137.234374 76.605468-8.714844-3.234374-17.9375-4.886718-27.230469-4.875-43.738281 0-79.199219 35.460938-79.199219 79.199219 0 43.742188 35.460938 79.199219 79.199219 79.199219h39.625l-10.035157 12.585938c-1.675781 2.101562-2 4.976562-.835937 7.402343 1.167969 2.421875 3.617187 3.960938 6.308594 3.960938h50.984375l-64.519532 80.929687c-2.140624 2.691406-2.011718 6.539063.308594 9.082032 2.320313 2.539062 6.144532 3.015624 9.015625 1.125l174.800781-115.074219h125.550782c31.015625.015625 57.230468-22.96875 61.273437-53.71875 4.039063-30.75-15.351562-59.726563-45.316406-67.722657zm-168.878906-104.789063c-.011719-23.308594 17.398437-42.949219 40.539062-45.734375 23.144532-2.78125 44.714844 12.167969 50.230469 34.816406 1.371094 6.203125 1.453125 12.625.242187 18.863282-1.25 3.660156.707032 7.636718 4.367188 8.886718 3.65625 1.246094 7.636719-.707031 8.882812-4.367187 1.71875-6.535157 2.09375-13.347657 1.101563-20.03125 2.015625-.480469 4.078125-.726563 6.148437-.734375 10.683594-.03125 20.390626 6.210937 24.792969 15.945312 4.402344 9.734375 2.683594 21.144532-4.394531 29.148438-24.769531-14.851563-55.855469-14.21875-80 1.628906-13.386719-17.351562-31.386719-30.578125-51.9375-38.175781.003906-.085938.027344-.160157.027344-.246094zm-118.347656 305.410156 46.140624-57.871093c1.675782-2.101563 2-4.976563.832032-7.398438-1.167969-2.421875-3.617188-3.964844-6.304688-3.964844h-50.984375l63.558594-79.714844h58.496094l-46.566407 58.398438c-.042968.054688-.0625.117188-.101562.167969-.359375.46875-.660156.976562-.890625 1.519531 0 .035156-.019531.074219-.035156.113281-.195313.503907-.328125 1.023438-.402344 1.558594-.023437.167969-.039063.332031-.050781.5-.011719.167969-.050782.335937-.050782.507813.007813.292968.039063.585937.085938.875 0 .125 0 .246093.035156.371093.105469.578125.28125 1.136719.527344 1.667969 0 .039062 0 .082031.039062.121094.035157.039062.097657.136718.140626.210937.222656.425781.492187.828125.796874 1.199219.089844.105469.164063.21875.261719.3125.386719.417969.824219.789062 1.304688 1.101562.089843.058594.1875.097657.277343.152344.417969.242188.859376.441406 1.316407.589844.144531.050781.289062.097656.4375.136719.574219.160156 1.164062.242187 1.757812.253906h49.601563zm271.269531-93.179687h-186.089844l46.566406-58.402344c1.675781-2.101562 2-4.976562.835938-7.398438-1.167969-2.425781-3.617188-3.964843-6.308594-3.964843h-76.398437c-2.128907 0-4.144532.972656-5.472657 2.636719l-53.53125 67.128906h-50.800781c-36.007812 0-65.199219-29.191406-65.199219-65.203125 0-36.007813 29.191407-65.199219 65.199219-65.199219 8.183594.023438 16.289062 1.613281 23.875 4.683594-2.753906 17.054687-1.746094 34.507812 2.949219 51.132812 1.226562 3.667969 5.191406 5.648438 8.859375 4.421875 3.667968-1.222656 5.644531-5.191406 4.421875-8.855469-4.332031-16.125-4.867188-33.03125-1.566407-49.394531 10.136719-39.023437 42.1875-68.492187 81.921876-75.320312 39.734374-6.828125 79.785156 10.25 102.367187 43.648437 1.097656 1.617188 2.820313 2.699219 4.753906 2.992188 1.933594.289062 3.898438-.242188 5.421875-1.464844 10.90625-8.824219 24.519532-13.621094 38.546875-13.578125 34.042969.035156 61.632813 27.625 61.667969 61.667969-.015625 2.589844-.195312 5.171875-.542969 7.738281-.472656 3.761719 2.132813 7.214844 5.875 7.792969 24.679688 3.8125 42.253907 25.992187 40.324219 50.890625-1.933594 24.894531-22.714844 44.097656-47.6875 44.0625zm-44.398438 78.234375h-33.292969l27.402344-34.355469c1.675782-2.101562 2-4.980469.832032-7.402344-1.167969-2.421875-3.617188-3.960937-6.304688-3.960937h-50.078125c-2.128906 0-4.144531.96875-5.472656 2.636719l-48.976563 61.414062c-1.679687 2.101562-2 4.980469-.835937 7.402344 1.167969 2.421875 3.617187 3.960937 6.304687 3.960937h28.402344l-39.160156 49.113281c-2.140625 2.691407-2.007813 6.535157.308594 9.074219 2.320312 2.539063 6.136718 3.019531 9.011718 1.132813l115.710938-76.171875c2.582031-1.699219 3.738281-4.890625 2.851562-7.851563-.886718-2.960937-3.609375-4.988281-6.699218-4.992187zm-82.777343 53.117187 20.777343-26.0625c1.675781-2.101562 2-4.976562.832031-7.398437-1.164062-2.421875-3.617187-3.964844-6.304687-3.964844h-28.417969l37.800782-47.414063h32.199218l-27.398437 34.355469c-1.675781 2.101563-2 4.976563-.832031 7.398438 1.164062 2.425781 3.617187 3.964843 6.304687 3.964843h24.464844zm0 0"/></svg>