<svg height="454pt" viewBox="0 0 454 454" width="454pt" xmlns="http://www.w3.org/2000/svg"><path d="m227 71.1875c-86.050781 0-155.8125 69.761719-155.8125 155.8125s69.761719 155.8125 155.8125 155.8125 155.8125-69.761719 155.8125-155.8125c-.105469-86.007812-69.804688-155.707031-155.8125-155.8125zm0 297.621094c-78.320312 0-141.8125-63.492188-141.8125-141.8125 0-78.324219 63.492188-141.8125 141.816406-141.8125 78.320313 0 141.808594 63.496094 141.808594 141.816406-.089844 78.285156-63.527344 141.722656-141.8125 141.8125zm-82.039062-79.519532c2.335937 3.082032 1.734374 7.472657-1.347657 9.8125-3.082031 2.339844-7.476562 1.734376-9.8125-1.34375-1.214843-1.601562-2.386719-3.230468-3.519531-4.890624-2.179688-3.191407-1.359375-7.546876 1.835938-9.726563 3.191406-2.179687 7.546874-1.359375 9.726562 1.835937 1.003906 1.464844 2.042969 2.902344 3.117188 4.3125zm-17.160157-14.222656c-1.71875.703125-3.648437.695313-5.359375-.023437-1.710937-.71875-3.066406-2.085938-3.769531-3.808594-5.746094-14.039063-8.691406-29.066406-8.671875-44.234375 0-3.867188 3.132812-7 7-7s7 3.132812 7 7c-.027344 13.351562 2.554688 26.578125 7.601562 38.9375 1.464844 3.570312-.234374 7.652344-3.800781 9.128906zm200.558594-106.578125c1.292969 2.167969 1.320313 4.859375.070313 7.054688-1.25 2.191406-3.582032 3.539062-6.105469 3.53125-2.523438-.007813-4.84375-1.375-6.082031-3.574219-18.464844-31.820312-52.449219-51.433594-89.242188-51.5-3.867188 0-7-3.132812-7-7s3.132812-7 7-7c41.777344.082031 80.367188 22.355469 101.339844 58.488281zm-108.359375-125.324219v-36.164062c0-3.867188 3.132812-7 7-7s7 3.132812 7 7v36.164062c0 3.867188-3.132812 7-7 7s-7-3.132812-7-7zm-109.0625-3.199218c-1.902344-3.347656-.75-7.597656 2.582031-9.523438 3.332031-1.921875 7.59375-.796875 9.539063 2.523438l18.085937 31.320312c1.269531 2.164063 1.28125 4.847656.03125 7.027344-1.25 2.175781-3.574219 3.515625-6.085937 3.511719-2.511719-.003907-4.828125-1.355469-6.070313-3.539063zm-80.527344 73.535156c1.933594-3.351562 6.21875-4.496094 9.566406-2.5625l31.320313 18.082031c2.183594 1.242188 3.535156 3.558594 3.539063 6.070313.003906 2.511718-1.335938 4.835937-3.511719 6.085937-2.179688 1.25-4.859375 1.238281-7.027344-.03125l-31.320313-18.085937c-3.347656-1.929688-4.496093-6.210938-2.566406-9.558594zm349.734375 25.101562c-1.933593-3.351562-.785156-7.632812 2.5625-9.566406l31.320313-18.082031c3.34375-1.902344 7.597656-.75 9.523437 2.585937 1.921875 3.332032.796875 7.589844-2.523437 9.535157l-31.320313 18.085937c-1.605469.929688-3.519531 1.183594-5.3125.699219-1.792969-.480469-3.324219-1.652344-4.25-3.261719zm-67.289062-74.308593 18.085937-31.320313c1.945313-3.320312 6.207032-4.445312 9.539063-2.523437 3.332031 1.925781 4.484375 6.179687 2.582031 9.523437l-18.0625 31.320313c-1.242188 2.183593-3.558594 3.535156-6.070312 3.539062-2.511719.003907-4.832032-1.335937-6.085938-3.511719-1.25-2.179687-1.238281-4.859374.03125-7.027343zm-78.855469 346.542969v36.164062c0 3.867188-3.132812 7-7 7s-7-3.132812-7-7v-36.164062c0-3.867188 3.132812-7 7-7s7 3.132812 7 7zm220-183.835938c0 3.867188-3.132812 7-7 7h-36.164062c-3.867188 0-7-3.132812-7-7s3.132812-7 7-7h36.164062c3.867188 0 7 3.132812 7 7zm-410.835938 7h-36.164062c-3.867188 0-7-3.132812-7-7s3.132812-7 7-7h36.164062c3.867188 0 7 3.132812 7 7s-3.132812 7-7 7zm299.898438 180.023438c1.273438 2.167968 1.285156 4.847656.03125 7.027343-1.25 2.179688-3.570312 3.519531-6.082031 3.511719-2.515625-.003906-4.832031-1.355469-6.070313-3.539062l-18.085937-31.320313c-1.269531-2.167969-1.28125-4.847656-.03125-7.027344 1.25-2.175781 3.574219-3.515625 6.085937-3.511719 2.511719.003907 4.828125 1.355469 6.070313 3.539063zm80.527344-73.523438c-.929688 1.609375-2.457032 2.785156-4.253906 3.265625-1.792969.480469-3.703126.226563-5.3125-.703125l-31.320313-18.082031c-2.183594-1.242188-3.535156-3.558594-3.539063-6.070313-.003906-2.511718 1.335938-4.835937 3.511719-6.085937 2.179688-1.25 4.859375-1.238281 7.027344.03125l31.320313 18.085937c3.347656 1.929688 4.496093 6.210938 2.566406 9.558594zm-349.734375-25.101562c1.933593 3.351562.785156 7.632812-2.5625 9.566406l-31.320313 18.082031c-3.34375 1.902344-7.597656.75-9.523437-2.585937-1.921875-3.332032-.796875-7.589844 2.523437-9.535157l31.320313-18.085937c3.347656-1.933594 7.628906-.789063 9.5625 2.558594zm67.289062 74.289062-18.085937 31.320312c-1.945313 3.320313-6.207032 4.445313-9.539063 2.523438-3.332031-1.925781-4.484375-6.179688-2.582031-9.523438l18.082031-31.320312c1.242188-2.183594 3.558594-3.535156 6.070313-3.539062 2.511718-.007813 4.835937 1.335937 6.085937 3.511718 1.25 2.179688 1.238281 4.859375-.03125 7.027344zm0 0"/></svg>