<svg height="438pt" viewBox="0 -24 438 438" width="438pt" xmlns="http://www.w3.org/2000/svg"><path d="m330.285156 185.707031c1.292969 2.167969 1.316406 4.863281.070313 7.054688-1.25 2.191406-3.582031 3.542969-6.105469 3.53125-2.523438-.007813-4.847656-1.371094-6.082031-3.574219-20.523438-35.359375-58.285157-57.15625-99.167969-57.238281-3.867188 0-7-3.132813-7-7 0-3.867188 3.132812-7 7-7 45.878906.09375 88.253906 24.550781 111.285156 64.226562zm107.714844 64.253907c0 3.863281-3.132812 7-7 7h-424c-3.867188 0-7-3.136719-7-7 0-3.867188 3.132812-7 7-7h40.835938c3.714843-91.839844 79.25-164.378907 171.164062-164.378907s167.449219 72.539063 171.164062 164.378907h40.835938c3.867188 0 7 3.132812 7 7zm-61.800781-7c-3.746094-84.09375-73.011719-150.339844-157.1875-150.339844s-153.441407 66.246094-157.1875 150.339844zm-162.148438 122.511718-37.050781-37.050781c-2-2.003906-2.597656-5.011719-1.515625-7.628906 1.082031-2.613281 3.632813-4.320313 6.464844-4.320313h16.75v-14.613281h-108.867188c-3.867187 0-7-3.132813-7-7s3.132813-7 7-7h170.59375c3.863281 0 7 3.132813 7 7s-3.136719 7-7 7h-21.121093v14.609375h16.75c2.832031 0 5.382812 1.707031 6.464843 4.324219 1.082031 2.617187.484375 5.625-1.519531 7.628906l-37.054688 37.050781c-1.3125 1.3125-3.09375 2.050782-4.953124 2.050782-1.855469 0-3.636719-.738282-4.949219-2.050782zm-15.199219-35 20.148438 20.152344 20.15625-20.15625h-6.851562c-3.867188 0-7-3.132812-7-7v-21.601562h-12.609376v21.601562c0 3.867188-3.132812 7-7 7zm-101.347656 2.289063h-13.941406c-3.863281 0-7 3.132812-7 7 0 3.863281 3.136719 7 7 7h13.9375c3.867188 0 7-3.136719 7-7 0-3.867188-3.132812-7-7-7zm63.667969 0h-39.417969c-3.867187 0-7 3.132812-7 7 0 3.863281 3.132813 7 7 7h39.414063c3.867187 0 7-3.136719 7-7 0-3.867188-3.132813-7-7-7zm193.269531 0h-85.253906c-3.867188 0-7 3.132812-7 7 0 3.863281 3.132812 7 7 7h85.25c3.863281 0 7-3.136719 7-7 0-3.867188-3.136719-7-7-7zm-52.855468 42.933593h-114.339844c-3.863282 0-7 3.132813-7 7 0 3.867188 3.136718 7 7 7h114.339844c3.863281 0 7-3.132812 7-7 0-3.867187-3.136719-7-7-7zm-142.828126 0h-22.34375c-3.863281 0-7 3.132813-7 7 0 3.867188 3.136719 7 7 7h22.347657c3.863281 0 7-3.132812 7-7 0-3.867187-3.136719-7-7-7zm246.347657-87.835937h-64.980469c-3.867188 0-7 3.132813-7 7s3.132812 7 7 7h64.984375c3.863281 0 7-3.132813 7-7s-3.136719-7-7-7zm-90.261719 14c3.867188 0 7-3.132813 7-7s-3.132812-7-7-7h-25.601562c-3.863282 0-7 3.132813-7 7s3.136718 7 7 7zm-251.496094-14h-30.457031c-3.863281 0-7 3.132813-7 7s3.136719 7 7 7h30.460937c3.867188 0 7-3.132813 7-7s-3.132812-7-7-7zm155.652344-233.921875c3.867188 0 7-3.136719 7-7v-39.9375c0-3.867188-3.132812-7-7-7s-7 3.132812-7 7v39.9375c0 3.863281 3.132812 7 7 7zm-107.574219 23.710938c1.238281 2.183593 3.554688 3.535156 6.066407 3.539062 2.511718.007812 4.835937-1.335938 6.085937-3.511719 1.253906-2.179687 1.242187-4.859375-.03125-7.027343l-19.960937-34.601563c-1.949219-3.320313-6.207032-4.445313-9.539063-2.519531-3.335937 1.921875-4.488281 6.175781-2.585937 9.519531zm-106.335937 56.894531 34.582031 19.96875c3.34375 1.902343 7.597656.746093 9.523437-2.585938 1.921876-3.332031.796876-7.589843-2.523437-9.539062l-34.582031-19.964844c-2.167969-1.273437-4.851563-1.285156-7.027344-.03125-2.179688 1.25-3.519531 3.570313-3.515625 6.082031.007813 2.511719 1.359375 4.828125 3.542969 6.070313zm389.742187 20.910156c1.226563 0 2.429688-.324219 3.492188-.941406l34.582031-19.96875c3.320312-1.945313 4.449219-6.207031 2.523438-9.539063-1.921876-3.332031-6.175782-4.484375-9.523438-2.582031l-34.582031 19.964844c-2.746094 1.585937-4.085938 4.816406-3.265625 7.878906.824218 3.0625 3.601562 5.191406 6.773437 5.1875zm-77.832031-75.253906c1.609375.929687 3.519531 1.183593 5.3125.703125 1.796875-.480469 3.324219-1.65625 4.25-3.265625l19.96875-34.585938c1.902344-3.34375.746094-7.597656-2.585938-9.519531-3.332031-1.925781-7.589843-.796875-9.539062 2.519531l-19.964844 34.585938c-1.9375 3.347656-.789062 7.628906 2.558594 9.5625zm0 0"/></svg>