<svg height="461pt" viewBox="-102 0 461 461.78" width="461pt" xmlns="http://www.w3.org/2000/svg"><path d="m216.257812 0h-175.601562c-22.226562.0195312-40.238281 18.03125-40.265625 40.257812v381.261719c.023437 22.226563 18.035156 40.234375 40.257813 40.261719h175.601562c22.222656-.027344 40.230469-18.035156 40.257812-40.257812v-381.265626c-.027343-22.21875-18.03125-40.226562-40.25-40.257812zm26.257813 421.523438c-.019531 14.492187-11.765625 26.238281-26.257813 26.257812h-175.601562c-14.492188-.019531-26.238281-11.765625-26.253906-26.257812v-381.265626c.015625-14.496093 11.761718-26.246093 26.253906-26.261718h175.601562c14.496094.015625 26.242188 11.765625 26.257813 26.261718zm-77.84375-92.722657v-225.378906c-.210937-19.855469-16.363281-35.835937-36.214844-35.835937-19.855469 0-36.007812 15.980468-36.214843 35.835937v225.359375c-20.136719 15.503906-28.167969 42.101562-19.980469 66.160156 8.1875 24.054688 30.78125 40.230469 56.195312 40.230469 25.410157 0 48.003907-16.175781 56.191407-40.230469 8.191406-24.058594.15625-50.65625-19.976563-66.160156zm-36.21875 92.386719c-19.957031 0-37.570313-13.042969-43.390625-32.132812-5.820312-19.089844 1.523438-39.742188 18.085938-50.875 1.933593-1.300782 3.089843-3.476563 3.089843-5.804688v-228.953125c.164063-12.152344 10.058594-21.917969 22.214844-21.917969 12.152344 0 22.050781 9.765625 22.210937 21.917969v228.953125c0 2.328125 1.160157 4.503906 3.089844 5.804688 16.5625 11.132812 23.90625 31.78125 18.089844 50.871093-5.820312 19.09375-23.433594 32.136719-43.390625 32.136719zm7-78.167969v-237.371093c0-3.867188-3.132813-7-7-7-3.863281 0-7 3.132812-7 7v237.371093c-16.785156 3.582031-28.164063 19.257813-26.363281 36.328125 1.800781 17.070313 16.199218 30.03125 33.363281 30.03125 17.167969 0 31.5625-12.960937 33.363281-30.03125 1.800782-17.070312-9.574218-32.746094-26.363281-36.328125zm-7 52.355469c-10.792969 0-19.539063-8.753906-19.539063-19.546875s8.75-19.539063 19.546876-19.539063c10.792968 0 19.542968 8.75 19.542968 19.542969-.015625 10.789063-8.761718 19.53125-19.550781 19.542969zm-86.097656-296.65625c0-3.863281 3.132812-7 7-7h19.019531c3.863281 0 7 3.136719 7 7 0 3.867188-3.136719 7-7 7h-19.019531c-3.867188 0-7-3.132812-7-7zm0 30.726562c0-3.867187 3.132812-7 7-7h19.019531c3.863281 0 7 3.132813 7 7 0 3.863282-3.136719 7-7 7h-19.019531c-3.867188 0-7-3.136718-7-7zm0 30.722657c0-3.867188 3.132812-7 7-7h19.019531c3.863281 0 7 3.132812 7 7 0 3.867187-3.136719 7-7 7h-19.019531c-3.867188 0-7-3.132813-7-7zm0 30.722656c0-3.863281 3.132812-7 7-7h19.019531c3.863281 0 7 3.136719 7 7 0 3.867187-3.136719 7-7 7h-19.019531c-3.867188 0-7-3.132813-7-7zm0 30.726563c0-3.867188 3.132812-7 7-7h19.019531c3.863281 0 7 3.132812 7 7 0 3.863281-3.136719 7-7 7h-19.019531c-3.867188 0-7-3.136719-7-7zm0 30.722656c0-3.867188 3.132812-7 7-7h19.019531c3.863281 0 7 3.132812 7 7 0 3.867187-3.136719 7-7 7h-19.019531c-3.867188 0-7.003907-3.136719-7-7.003906zm0 30.722656c0-3.863281 3.132812-7 7-7h19.019531c3.863281 0 7 3.136719 7 7 0 3.867188-3.136719 7-7 7h-19.019531c-3.867188 0-7-3.132812-7-7zm26 37.726562h-19c-3.867188 0-7-3.136718-7-7 0-3.867187 3.132812-7 7-7h19.019531c3.863281 0 7 3.132813 7 7 0 3.863282-3.136719 7-7 7zm132.25-246.402343c-13.4375 0-24.332031 10.894531-24.332031 24.332031s10.894531 24.332031 24.332031 24.332031 24.332031-10.894531 24.332031-24.332031c-.011719-13.421875-10.886719-24.304688-24.3125-24.332031zm0 34.664062c-5.707031 0-10.332031-4.625-10.332031-10.332031 0-5.703125 4.625-10.332031 10.332031-10.332031s10.332031 4.628906 10.332031 10.332031c-.007812 5.695312-4.617188 10.316406-10.3125 10.332031zm-105.414063-72.796875-5.394531-5.339844c3.285156-4.320312 8.417969-6.839843 13.847656-6.796874 7.753907 0 13.203125 4.730468 13.203125 11.332031 0 4.582031-1.917968 8.15625-7.957031 12.28125l-5.4375 3.878906h13.75v7.703125h-26.933594v-7l12.800781-9.570312c3.875-2.917969 4.984376-4.832032 4.984376-6.945313-.066407-1.132813-.59375-2.191406-1.460938-2.925781-.867188-.730469-1.996094-1.074219-3.125-.949219-3.257812.15625-6.28125 1.738281-8.261719 4.332031zm44.398438 12.539063c0-2.167969-1.664063-3.273438-6.042969-3.273438l-4.082031.050781v-7.253906h4.082031c3.472656.050782 5.335937-1.109375 5.335937-3.121094 0-2.117187-2.066406-3.375-5.199218-3.375-3.011719.109376-5.84375 1.4375-7.859375 3.675782l-4.78125-5.234375c3.339843-4.039063 8.359375-6.308594 13.597656-6.144531 8.15625 0 13.042969 4.027343 13.042969 9.46875-.019532 3.804687-2.679688 7.089843-6.402344 7.902343 4.027344.59375 7.050781 3.988281 7.171875 8.054688 0 6.09375-5.390625 10.425781-13.746094 10.425781-5.394531.222656-10.625-1.886719-14.351562-5.792969l4.929687-5.6875c2.367188 2.402344 5.59375 3.761719 8.964844 3.777344 3.460938 0 5.375-1.460937 5.375-3.472656zm19.820312-5.898438c4.5.074219 8.238282-3.457031 8.425782-7.953125-.257813-4.464844-3.957032-7.957031-8.429688-7.957031s-8.167969 3.492187-8.425781 7.957031c.1875 4.511719 3.949219 8.046875 8.464843 7.953125zm0-11.742187c1.546875-.03125 2.957032.878906 3.566406 2.300781.609376 1.421875.300782 3.070313-.785156 4.171875-1.085937 1.101562-2.730468 1.4375-4.160156.847656s-2.359375-1.984375-2.351562-3.53125c.003906-2.082031 1.683593-3.773437 3.765624-3.789062zm0 0"/></svg>