<svg height="461pt" viewBox="-106 0 461 461.78" width="461pt" xmlns="http://www.w3.org/2000/svg"><path d="m208.257812 0h-167.601562c-22.226562.0195312-40.242188 18.03125-40.265625 40.261719v381.261719c.027344 22.222656 18.035156 40.230468 40.253906 40.257812h167.601563c22.222656-.027344 40.230468-18.035156 40.257812-40.257812v-381.261719c-.027344-22.21875-18.027344-40.230469-40.246094-40.261719zm26.257813 421.523438c-.015625 14.496093-11.761719 26.242187-26.257813 26.257812h-167.601562c-14.492188-.015625-26.238281-11.761719-26.253906-26.257812v-381.261719c.015625-14.496094 11.761718-26.242188 26.253906-26.257813h167.601562c14.496094.015625 26.242188 11.761719 26.257813 26.257813zm-73.851563-102.398438v-246.632812c-.207031-19.851563-16.359374-35.835938-36.210937-35.835938-19.855469 0-36.007813 15.984375-36.214844 35.835938v246.632812c-20.136719 15.503906-28.167969 42.101562-19.980469 66.160156 8.1875 24.054688 30.78125 40.230469 56.195313 40.230469 25.410156 0 48.003906-16.175781 56.191406-40.230469 8.191407-24.058594.15625-50.65625-19.980469-66.160156zm-36.210937 92.382812c-19.960937.007813-37.582031-13.039062-43.402344-32.132812-5.820312-19.097656 1.527344-39.753906 18.097657-50.882812 1.933593-1.300782 3.089843-3.476563 3.089843-5.804688v-250.195312c.164063-12.152344 10.058594-21.917969 22.214844-21.917969 12.152344 0 22.050781 9.765625 22.210937 21.917969v250.207031c0 2.328125 1.160157 4.503906 3.089844 5.804687 16.558594 11.132813 23.898438 31.78125 18.082032 50.871094-5.816407 19.085938-23.425782 32.128906-43.382813 32.132812zm7-78.15625v-258.65625c0-3.867187-3.132813-7-7-7-3.863281 0-7 3.132813-7 7v258.65625c-16.785156 3.582032-28.164063 19.257813-26.363281 36.328126 1.800781 17.070312 16.199218 30.03125 33.363281 30.03125 17.167969 0 31.5625-12.960938 33.363281-30.03125 1.800782-17.070313-9.574218-32.746094-26.363281-36.328126zm-7 52.339844c-10.792969 0-19.539063-8.753906-19.539063-19.546875s8.75-19.542969 19.546876-19.539062c10.792968 0 19.542968 8.75 19.542968 19.542969-.015625 10.789062-8.761718 19.53125-19.550781 19.542968zm-85.480469-311.46875c0-3.863281 3.136719-7 7-7h19.019532c3.867187 0 7 3.136719 7 7 0 3.867188-3.132813 7-7 7h-19.019532c-3.863281 0-7-3.132812-7-7zm0 30.730469c0-3.867187 3.136719-7 7-7h19.019532c3.867187 0 7 3.132813 7 7 0 3.863281-3.132813 7-7 7h-19.019532c-3.863281 0-7-3.136719-7-7zm0 30.722656c0-3.867187 3.136719-7 7-7h19.019532c3.867187 0 7 3.132813 7 7 0 3.867188-3.132813 7-7 7h-19.019532c-3.859375 0-6.988281-3.125-7-6.984375zm0 30.722657c0-3.863282 3.136719-7 7-7h19.019532c3.867187 0 7 3.136718 7 7 0 3.867187-3.132813 7-7 7h-19.019532c-3.867187 0-7-3.136719-7-7.003907zm0 30.730468c0-3.867187 3.136719-7 7-7h19.019532c3.867187 0 7 3.132813 7 7 0 3.863282-3.132813 7-7 7h-19.019532c-3.867187 0-7-3.136718-7-7.003906zm0 30.722656c0-3.867187 3.136719-7 7-7h19.019532c3.867187 0 7 3.132813 7 7 0 3.867188-3.132813 7-7 7h-19.019532c-1.855468 0-3.636718-.738281-4.953125-2.050781-1.3125-1.316406-2.046875-3.097656-2.046875-4.957031zm0 30.722657c0-3.863281 3.136719-7 7-7h19.019532c3.867187 0 7 3.136719 7 7 0 3.867187-3.132813 7-7 7h-19.019532c-1.855468 0-3.636718-.738281-4.953125-2.050781-1.3125-1.316407-2.046875-3.097657-2.046875-4.957032zm26 37.726562h-19c-3.863281 0-7-3.136719-7-7 0-3.867187 3.136719-7 7-7h19.019532c3.867187 0 7 3.132813 7 7 0 3.863281-3.132813 7-7 7zm144.960938-160.609375c0 3.867188-3.132813 7-7 7h-19.019532c-3.867187 0-7-3.132812-7-7 0-3.867187 3.132813-7 7-7h19.019532c3.867187 0 7 3.132813 7 7zm0 30.722656c0 3.867188-3.132813 7-7 7h-19.019532c-3.867187 0-7-3.132812-7-7 0-3.863281 3.132813-7 7-7h19.019532c3.859375 0 6.988281 3.125 7 6.980469zm0 30.730469c0 3.867188-3.132813 7-7 7h-19.019532c-3.867187 0-7-3.132812-7-7 0-3.867187 3.132813-7 7-7h19.019532c3.859375 0 6.988281 3.121094 7 6.980469zm0 30.722657c0 3.867187-3.132813 7-7 7h-19.019532c-3.867187 0-7-3.132813-7-7 0-3.863282 3.132813-7 7-7h19.019532c3.855468 0 6.988281 3.121093 7 6.976562zm0 30.726562c0 3.863281-3.132813 7-7 7h-19.019532c-3.867187 0-7-3.136719-7-7 0-3.867188 3.132813-7 7-7h19.019532c3.855468 0 6.988281 3.117188 7 6.972656zm0 30.722656c0 3.867188-3.132813 7-7 7h-19.019532c-3.867187 0-7-3.132812-7-7 0-3.867187 3.132813-7 7-7h19.019532c3.855468 0 6.988281 3.117188 7 6.976563zm-13.308594-239.421875c-13.4375 0-24.332031 10.894531-24.332031 24.335938 0 13.4375 10.898437 24.332031 24.335937 24.328125 13.4375 0 24.332032-10.894532 24.328125-24.335938-.015625-13.429687-10.898437-24.3125-24.332031-24.328125zm0 34.660157c-5.707031 0-10.332031-4.625-10.332031-10.332032 0-5.703125 4.625-10.332031 10.332031-10.332031s10.332031 4.628906 10.332031 10.332031c-.007812 5.703125-4.628906 10.324219-10.332031 10.332032zm0 0"/></svg>