<svg height="371pt" viewBox="-7 0 371 371.688" width="371pt" xmlns="http://www.w3.org/2000/svg"><path d="m13.050781 371.6875c-2.398437-.007812-4.625-1.238281-5.90625-3.265625-1.277343-2.027344-1.433593-4.566406-.40625-6.734375l74.828125-156.488281h-74.230468c-2.398438 0-4.628907-1.230469-5.910157-3.257813-1.28125-2.03125-1.4335935-4.574218-.402343-6.742187l91.171874-191.199219c1.15625-2.441406 3.613282-4 6.316407-4h109.402343c2.464844 0 4.75 1.296875 6.011719 3.414062 1.265625 2.117188 1.320313 4.746094.148438 6.914063l-76.523438 141.679687h71.316407c2.804687-.003906 5.34375 1.664063 6.449218 4.246094 1.105469 2.582032.558594 5.570313-1.382812 7.597656l-195.820313 205.664063c-1.320312 1.386719-3.148437 2.171875-5.0625 2.171875zm5.382813-180.488281h74.238281c2.398437.007812 4.628906 1.238281 5.910156 3.265625 1.277344 2.027344 1.433594 4.566406.40625 6.734375l-60.589843 126.710937 154.140624-161.902344h-66.730468c-2.464844 0-4.75-1.296874-6.011719-3.414062-1.265625-2.117188-1.320313-4.746094-.148437-6.914062l76.53125-141.664063h-93.265626zm205.027344 161.949219c-2.394532-.007813-4.625-1.238282-5.902344-3.265626-1.28125-2.027343-1.433594-4.566406-.410156-6.734374l46.265624-96.761719h-43.601562c-2.429688.003906-4.6875-1.25-5.964844-3.316407-1.277344-2.066406-1.394531-4.644531-.308594-6.816406l61.335938-122.601562c1.183594-2.371094 3.609375-3.867188 6.257812-3.867188h70.15625c2.496094 0 4.800782 1.324219 6.054688 3.480469s1.265625 4.816406.03125 6.980469l-49.5625 87.011718h41.203125c2.800781-.003906 5.332031 1.664063 6.433594 4.238282 1.105469 2.574218.570312 5.558594-1.363281 7.589844l-125.570313 131.890624c-1.320313 1.382813-3.148437 2.167969-5.058594 2.171876zm7.667968-120.761719h43.386719c2.394531.007812 4.625 1.238281 5.90625 3.265625 1.277344 2.027344 1.433594 4.566406.40625 6.734375l-32.019531 66.984375 83.894531-88.113282h-36.933594c-2.492187 0-4.800781-1.328124-6.050781-3.484374-1.253906-2.15625-1.265625-4.816407-.03125-6.980469l49.558594-87.003907h-53.789063zm0 0"/></svg>