<svg height="457pt" viewBox="-10 0 457 457.98624" width="457pt" xmlns="http://www.w3.org/2000/svg"><path d="m436.984375 217.972656c-8.136719-22.402344-39.679687-20.6875-41.019531-20.609375-3.824219.28125-6.714844 3.589844-6.476563 7.417969.242188 3.828125 3.515625 6.753906 7.347657 6.554688.230468 0 22.464843-1.042969 26.992187 11.417968.199219.546875.800781 2.21875-1.078125 5.597656-3.910156 6.984376-15.132812 15.535157-32.097656 24.375-1.074219-4.699218-2.464844-9.324218-4.160156-13.839843-8.636719-22.921875-9.265626-41.023438-5.640626-57.253907 33.941407-10.738281 53.058594-25.898437 53.058594-44.226562 0-3.863281-3.136718-7-7-7-3.867187 0-7 3.136719-7 7 0 8.523438-10.886718 18.53125-33.601562 27.203125 4.226562-9.792969 8.996094-19.339844 14.289062-28.597656 11.519532-21.078125 24.558594-44.972657 28.304688-77.410157.257812-1.242187.390625-2.503906.398437-3.769531 0-36-100.644531-54.832031-200.0625-54.832031-98.546875 0-198.238281 18.515625-200 53.898438 0 .085937-.042969.160156-.050781.25-4.355469 44.175781-2 76.75 5.097656 101.738281-12.90625-6.257813-19.792968-12.703125-19.792968-18.503907 0-3.863281-3.132813-7-7-7-3.863282 0-7 3.136719-7 7 0 14.480469 15.320312 26.546876 40.03125 36.074219 17.09375 38.875 48.371093 55.75 82.371093 74.101563 7.222657 3.898437 14.691407 7.925781 22.214844 12.253906 19.621094 11.089844 37.152344 25.523438 51.800781 42.65625-14.9375 1.152344-29.929687 1.355469-44.890625.605469-34.113281-2-47.667969-9.773438-48.90625-15.835938-.8125-3.742187-4.488281-6.136719-8.242187-5.371093-3.753906.765624-6.191406 4.410156-5.472656 8.171874 3.199218 15.714844 24 24.800782 61.800781 27.011719 5.667969.332031 11.59375.496094 17.773437.496094 11.777344 0 24.402344-.605469 37.625-1.773437 6.515625 10.046874 11.347656 21.089843 14.316406 32.691406 2.835938 11.492187 3.648438 23.394531 2.398438 35.167968-8.636719-4.03125-13.386719-8.457031-14.328125-12.59375-.535156-2.457031-2.347656-4.433593-4.75-5.183593-2.398437-.753907-5.015625-.15625-6.855469 1.554687-1.84375 1.714844-2.621094 4.28125-2.046875 6.730469 2.433594 10.707031 12.476563 18.335937 25.601563 23.765625-4.308594 17.53125-11.53125 34.214844-21.359375 49.359375-1.457031 2.316406-1.425781 5.265625.070312 7.554687 1.5 2.289063 4.195313 3.496094 6.902344 3.085938 41.046875-5.941406 79.96875-22.015625 113.25-46.765625 37.652344-1.757813 59.542969-12.90625 70.753906-35.179687 1.734375-3.453126.34375-7.664063-3.109375-9.402344-3.453125-1.734375-7.664062-.34375-9.398437 3.109375-6.738281 13.390625-19.230469 21.636719-39.304688 25.375 13.027344-12.324219 24.285157-26.398438 33.4375-41.824219 15.792969-25.726562 23.078125-55.773438 20.824219-85.875 21.199219-10.617188 36.117188-21.726562 41.957031-32.15625 3.234375-5.140625 3.980469-11.464844 2.027344-17.214844zm-207.757813-122.324218c-64.097656 0-114.402343-7.355469-146.472656-16.800782 35.597656-10.636718 89.308594-17.015625 146.472656-17.015625 56.933594 0 110.429688 6.332031 146.050782 16.886719-30.046875 8.921875-76.164063 16.105469-135.488282 16.875-3.476562.03125-7 .050781-10.5625.054688zm0-81.664063c115.265626 0 186.066407 23.800781 186.066407 40.832031-.015625.382813-.0625.765625-.144531 1.144532-1.050782 4.6875-7.542969 10-18.949219 15.136718-36.265625-14.605468-98.222657-23.300781-166.960938-23.300781-68.988281 0-131.144531 8.753906-167.355469 23.457031-12.203124-5.542968-18.707031-11.304687-18.707031-16.457031-.011719-17.011719 70.773438-40.8125 186.050781-40.8125zm-187.65625 61.246094c.1875.144531.398438.28125.589844.421875.359375.269531.742188.527344 1.117188.800781.800781.558594 1.625 1.113281 2.476562 1.660156.398438.257813.800782.519531 1.234375.773438.992188.605469 2.027344 1.203125 3.097657 1.792969.300781.167968.582031.335937.890624.5 1.394532.75 2.847657 1.484374 4.355469 2.199218.335938.160156.6875.3125 1.027344.472656 1.203125.558594 2.433594 1.109376 3.703125 1.648438.519531.21875 1.050781.441406 1.597656.660156 1.183594.484375 2.390625.964844 3.625 1.4375.527344.199219 1.050782.398438 1.601563.601563 1.566406.582031 3.167969 1.152343 4.796875 1.707031l.585937.207031c1.875.625 3.808594 1.238281 5.78125 1.835938.496094.152343 1.007813.292969 1.507813.441406 1.496094.445313 3.019531.878906 4.566406 1.304687l1.945312.527344c1.527344.410156 3.078126.808594 4.65625 1.203125.589844.144531 1.175782.292969 1.773438.441407 4.335938 1.054687 8.824219 2.046874 13.46875 2.980468l1.964844.398438c1.714844.339844 3.449218.664062 5.199218.984375l2.25.402343c1.832032.324219 3.6875.640626 5.558594.945313l1.792969.296875c2.484375.402344 4.996094.785156 7.539063 1.152344l.953124.132812c2.21875.316406 4.460938.621094 6.722657.914063l2.324219.296875c1.867187.234375 3.746093.464844 5.636718.683594l2.480469.285156c2.109375.234375 4.230469.460937 6.367187.675781l1.632813.167969c2.6875.265625 5.398437.519531 8.125.753906l1.792969.148438c2.132812.175781 4.277344.347656 6.4375.511718l2.667968.191406c1.953126.136719 3.917969.269532 5.886719.398438l2.605469.160156c2.398438.140625 4.8125.273438 7.242188.398438l1.132812.0625c2.800781.132812 5.609375.25 8.429688.351562l2.398437.078125c2.035156.070313 4.078125.128907 6.121094.183594l2.925781.066406c1.988281.042969 3.980469.078125 5.976562.105469l2.625.035156c2.832032.027344 5.660157.046875 8.492188.050782 2.691406 0 5.386719-.015626 8.085938-.046876l3.351562-.042968 4.136719-.074219c68.21875-1.347656 134.457031-11.550781 165.746093-30.0625-5.464843 17.425781-12.933593 34.160156-22.257812 49.863281-7.632812 12.953125-13.960938 26.632813-18.886719 40.839844-31.242187 8.824219-77.460937 15.199219-140.175781 15.199219-80.464844 0-142.097656-10.214844-178.277344-22.714844-8.03125-20.972656-11.65625-48.652344-9.402344-87.410156zm110.523438 172.449219c-7.6875-4.421876-15.25-8.5-22.550781-12.445313-29.222657-15.761719-54.304688-29.328125-70.25-55.503906 44.503906 12.878906 108.285156 19.601562 169.941406 19.601562 55.265625 0 101.808594-4.800781 136.5-13.453125-2.554687 19.652344.085937 39.628906 7.660156 57.941406 1.839844 4.9375 3.261719 10.023438 4.257813 15.199219-34.242188 14.855469-70 25.941407-106.640625 33.058594-19.800781 4.050781-39.199219 7.007813-57.554688 8.925781-16.609375-21.769531-37.492187-39.914062-61.363281-53.324218zm82.167969 154.800781c16.226562 4.238281 32.820312 6.902343 49.558593 7.960937 3.933594.285156 7.726563.503906 11.417969.667969-23.417969 14.4375-49.167969 24.695313-76.097656 30.316406 6.671875-12.296875 11.753906-25.390625 15.128906-38.964843zm125.832031-56.351563c-11.78125 19.726563-27.132812 37.089844-45.269531 51.199219-8.96875.222656-18.890625-.050781-29.980469-.867187-16.226562-.949219-32.3125-3.582032-48-7.855469 1.964844-14.527344 1.167969-29.296875-2.351562-43.527344-2.75-10.824219-6.972657-21.21875-12.554688-30.894531 16.722656-2 34.15625-4.769532 51.875-8.398438 36.214844-7.066406 71.609375-17.828125 105.632812-32.109375.703126 25.515625-6.019531 50.6875-19.351562 72.453125zm-29.703125-305.121094c.3125-1.835937 1.339844-3.46875 2.863281-4.542968 1.519532-1.074219 3.40625-1.5 5.238282-1.179688 10.066406 1.714844 20.167968 3.640625 30.035156 5.722656 3.515625.734376 5.902344 4.003907 5.53125 7.574219-.367188 3.570313-3.378906 6.28125-6.964844 6.277344-.488281 0-.976562-.050781-1.453125-.152344-9.691406-2.042969-19.597656-3.933593-29.5-5.617187-1.832031-.308594-3.46875-1.335938-4.546875-2.851563-1.074219-1.515625-1.503906-3.398437-1.191406-5.230469zm-96.402344 109.25c-3.863281-.078124-6.9375-3.269531-6.863281-7.132812.015625-1.863281.777344-3.640625 2.121094-4.933594 1.34375-1.292968 3.148437-1.988281 5.011718-1.929687.703126 0 72.273438 1.199219 123.269532-13.703125 3.679687-.996094 7.480468 1.136718 8.550781 4.796875 1.070313 3.65625-.988281 7.5-4.625 8.640625-45.199219 13.199218-103.6875 14.304687-121.902344 14.304687-3.160156 0-5.109375-.035156-5.558593-.042969zm-30.191406-7.941406c-.425781 3.832032-3.871094 6.597656-7.703125 6.183594-18.320312-2.03125-30.5625-4.171875-31.074219-4.261719-3.777343-.695312-6.285156-4.308593-5.621093-8.09375.667968-3.785156 4.257812-6.324219 8.046874-5.691406.121094.019531 12.351563 2.15625 30.1875 4.136719 3.835938.433594 6.59375 3.890625 6.167969 7.726562zm50.75 187.84375c56.0625-4.449218 81.246094-18.105468 81.496094-18.238281 3.363281-1.851563 7.59375-.644531 9.476562 2.707031 1.878907 3.347656.707031 7.589844-2.625 9.5-1.101562.617188-27.664062 15.257813-87.242187 20-.1875 0-.375.019532-.5625.019532-3.769532.011718-6.867188-2.960938-7.015625-6.726563-.148438-3.765625 2.710937-6.96875 6.46875-7.253906zm46.710937-87.273437 2.960938-21.789063c.292969-2.167968-.441406-4.34375-1.988281-5.890625s-3.722657-2.28125-5.890625-1.988281l-21.789063 2.960938c-10.007812 1.359374-19.015625 6.757812-24.929687 14.941406-5.917969 8.183594-8.21875 18.433594-6.367188 28.359375l.753906 4.050781-6.078124 6.082031c-2.734376 2.734375-2.734376 7.164063 0 9.898438 2.734374 2.734375 7.164062 2.734375 9.898437 0l6.082031-6.078125 4.050782.753906c2.265624.425781 4.5625.640625 6.867187.640625 18.410156-.070313 33.953125-13.695313 36.433594-31.9375zm-23.140624 13.601562c-3.371094 2.445313-7.347657 3.914063-11.5 4.242188l5.199218-5.199219c2.734375-2.734375 2.734375-7.164062 0-9.898438-2.734375-2.734374-7.164062-2.734374-9.898437 0l-5.199219 5.199219c.878906-10.691406 9.078125-19.332031 19.710938-20.773437l12.675781-1.71875-1.71875 12.675781c-.824219 6.210937-4.175781 11.808594-9.269531 15.460937zm-111.222657 134.453125-7.550781-4.121094-.398438-4.101562c-1.023437-10.042969-6.121093-19.230469-14.105468-25.414062-7.980469-6.183594-18.148438-8.824219-28.128906-7.304688l-21.746094 3.308594c-2.160156.328125-4.042969 1.648437-5.089844 3.566406s-1.140625 4.21875-.246094 6.214844l8.984375 20.074218c4.089844 9.242188 11.824219 16.375 21.363281 19.707032 9.511719 3.40625 20.011719 2.722656 29-1.886719l3.675782-1.867187 7.546875 4.113281c2.199219 1.21875 4.878906 1.164062 7.027343-.136719 2.144532-1.304688 3.429688-3.65625 3.363282-6.167969-.0625-2.507812-1.46875-4.792969-3.679688-5.980469zm-42.265625-1.273437c-5.917968-2.066407-10.71875-6.496094-13.253906-12.226563l-5.226562-11.65625 12.652343-1.925781c10.605469-1.617187 20.910157 4.359375 24.769531 14.367187l-6.4375-3.511718c-3.390624-1.820313-7.613281-.566406-9.460937 2.8125-1.84375 3.378906-.613281 7.609375 2.753906 9.476562l6.433594 3.511719c-4.074219.847656-8.304687.554687-12.226563-.847656zm-46.839844-151.722657c-6.921874-7.351562-16.558593-11.539062-26.652343-11.59375-10.097657-.050781-19.777344 4.035157-26.777344 11.3125l-15.246094 15.851563c-1.515625 1.578125-2.207031 3.769531-1.871093 5.929687.335937 2.15625 1.660156 4.035157 3.582031 5.078126l19.339843 10.460937c5.367188 2.925781 11.382813 4.464844 17.496094 4.476563 3.886719-.007813 7.75-.625 11.445313-1.828126 9.625-3.085937 17.542969-10.015624 21.875-19.144531l3.375-7.042969c1.257812-2.605468.78125-5.714843-1.199219-7.824218zm-9.429687 14.503907c-2.703125 5.648437-7.609375 9.941406-13.566406 11.875-5.960938 1.9375-12.449219 1.34375-17.960938-1.640625l-11.253906-6.097656 8.871094-9.203126c4.300781-4.574218 10.332031-7.121093 16.609375-7.015624 6.269531.011718 12.257812 2.617187 16.539062 7.199218l2.0625 2.195313zm0 0"/></svg>