<svg height="465pt" viewBox="-25 0 465 465.4754" width="465pt" xmlns="http://www.w3.org/2000/svg"><path d="m227.605469 28.472656v-9.03125c0-5.332031-2.191407-10.433594-6.0625-14.105468-3.871094-3.671876-9.082031-5.589844-14.410157-5.3085942-10.503906.7500002-18.589843 9.5898442-18.398437 20.1210942v8.324218c-106.769531 10.152344-188.359375 99.75-188.496094 207 0 3.863282 3.132813 7 7 7 3.867188 0 7-3.136718 7-7-.015625-22.953125 17.90625-41.914062 40.820313-43.1875 22.914062-1.277344 42.832031 15.578125 45.363281 38.386719.042969.398437.066406.78125.101563 1.167969.097656 1.199218.183593 2.398437.183593 3.648437 0 3.863281 3.132813 7 7 7 3.863281 0 7-3.136719 7-7-.019531-17.550781 10.582031-33.371093 26.824219-40.023437s34.894531-2.816406 47.195312 9.707031v204.851563c.210938 8.828124-6.246093 16.40625-14.996093 17.601562-4.699219.492188-9.382813-1.054688-12.859375-4.25-3.472656-3.160156-5.453125-7.632812-5.457032-12.328125v-11.199219c0-10.738281-8.703124-19.441406-19.441406-19.441406-10.738281 0-19.441406 8.703125-19.441406 19.441406v8.488282c-.265625 29.152343 21.605469 53.757812 50.585938 56.917968 1.683593.152344 3.359374.222656 5.023437.222656 13.878906.035157 27.257813-5.175781 37.449219-14.59375 11.457031-10.535156 17.984375-25.382812 18-40.949218v-204.761719c12.296875-12.527344 30.945312-16.367187 47.191406-9.71875 16.242188 6.648437 26.851562 22.460937 26.835938 40.015625 0 3.863281 3.132812 7 7 7 3.867187 0 7-3.136719 7-7-.148438-15.546875 8.058593-29.976562 21.496093-37.792969 13.4375-7.816406 30.039063-7.816406 43.476563 0 13.4375 7.816407 21.644531 22.246094 21.496094 37.792969 0 3.863281 3.132812 7 7 7 3.867187 0 7-3.136719 7-7-.140626-107.246094-81.71875-196.839844-188.480469-206.996094zm-24.878907-8.324218c-.101562-3.058594 2.113282-5.699219 5.140626-6.136719 1.496093-.101563 2.964843.4375 4.042968 1.484375 1.089844 1.023437 1.707032 2.453125 1.699219 3.945312v8.179688c-1.894531-.0625-3.699219-.085938-5.441406-.085938-1.738281 0-3.546875.027344-5.4375.085938zm-145.265624 158.085937c-14.292969-.011719-28.074219 5.347656-38.601563 15.015625 17.542969-77.933594 80.96875-137.207031 159.910156-149.445312-59.003906 42.464843-74.105469 112.4375-77.59375 154.769531-10.855469-12.898438-26.855469-20.339844-43.714843-20.339844zm100.46875 0c-16.285157.003906-31.792969 6.957031-42.625 19.121094 3.910156-43.269531 20.664062-114.355469 85.855468-151.261719v151.945312l-.109375-.125-.0625-.078124-.035156-.03125c-10.839844-12.433594-26.527344-19.566407-43.023437-19.570313zm55.675781 231.699219c-.015625 11.644531-4.902344 22.75-13.476563 30.628906-8.59375 7.933594-20.152344 11.84375-31.800781 10.753906-21.769531-2.492187-38.109375-21.078125-37.796875-42.988281v-8.492187c0-3.007813 2.433594-5.441407 5.441406-5.441407 3.003906 0 5.441406 2.433594 5.441406 5.441407v11.199218c0 8.652344 3.65625 16.898438 10.0625 22.710938s14.972657 8.644531 23.582032 7.804687c15.910156-1.925781 27.824218-15.507812 27.667968-31.53125v-170.148437c.0625.082031.148438.140625.214844.214844.199219.226562.410156.4375.636719.632812.140625.125.28125.246094.429687.355469.246094.179687.503907.339843.769532.484375.160156.09375.316406.183594.484375.265625.300781.132812.613281.242187.933593.332031.15625.046875.300782.105469.460938.144531.996094.230469 2.027344.230469 3.019531 0 .160157-.039062.308594-.097656.464844-.144531.320313-.089844.628906-.199219.933594-.332031.167969-.078125.324219-.171875.484375-.265625.265625-.144532.523437-.304688.765625-.484375.152343-.109375.292969-.230469.433593-.355469.226563-.195312.4375-.40625.636719-.632812.066407-.074219.152344-.132813.214844-.214844zm44.800781-231.695313c-16.5 0-32.195312 7.132813-43.039062 19.570313l-.039063.03125-.058594.078125-.113281.125v-152c65.226562 36.898437 81.949219 108.03125 85.863281 151.304687-10.832031-12.15625-26.335937-19.109375-42.617187-19.113281zm100.46875 0c-16.863281-.003906-32.863281 7.4375-43.722656 20.335938-3.488282-42.335938-18.601563-112.304688-77.597656-154.773438 78.941406 12.238281 142.367187 71.511719 159.910156 149.445313-10.527344-9.664063-24.304688-15.019532-38.59375-15.011719zm0 0"/></svg>