<svg height="472pt" viewBox="-97 0 472 472.52" width="472pt" xmlns="http://www.w3.org/2000/svg"><path d="m271.402344 0h-264.140625c-3.867188 0-7 3.132812-7 7v458.519531c0 3.867188 3.132812 7 7 7h264.140625c3.867187 0 7-3.132812 7-7v-458.519531c0-3.867188-3.132813-7-7-7zm-7 14v34.128906h-250.140625v-34.128906zm0 356.738281h-250.140625v-308.609375h250.140625zm-250.140625 87.777344v-73.78125h250.140625v73.78125zm0 0"/><path d="m85.460938 241.054688c-.433594 1.273437-.832032 2.558593-1.171876 3.871093-12.167968-.265625-23.535156 6.027344-29.773437 16.476563-6.238281 10.449218-6.378906 23.441406-.371094 34.023437 6.007813 10.582031 17.238281 17.121094 29.40625 17.121094h115.277344c15.484375.023437 29.515625-9.121094 35.738281-23.300781 6.226563-14.175782 3.46875-30.695313-7.027344-42.082032-10.496093-11.382812-26.738281-15.472656-41.375-10.417968-2.351562-5.328125-5.550781-10.246094-9.476562-14.550782 8.386719-24.878906-2.355469-52.183593-25.445312-64.679687-23.09375-12.496094-51.824219-6.558594-68.070313 14.070313-16.242187 20.628906-15.277344 49.953124 2.289063 69.46875zm138.332031 32.523437c-.015625 13.785156-11.183594 24.953125-24.964844 24.96875h-115.277344c-7.675781.042969-14.683593-4.351563-17.988281-11.28125-3.308594-6.925781-2.3125-15.140625 2.546875-21.082031s12.714844-8.539063 20.160156-6.671875c1.941407.472656 3.992188.09375 5.636719-1.042969s2.726562-2.925781 2.96875-4.910156c2.242188-18.1875 16.542969-32.539063 34.726562-34.835938 18.183594-2.300781 35.605469 8.035156 42.304688 25.09375-6.652344 6.570313-10.511719 15.453125-10.773438 24.800782 0 3.839843 3.109376 6.960937 6.953126 6.976562h.046874c3.832032-.011719 6.949219-3.097656 7-6.929688 0-.113281.25-11.277343 8.605469-16.300781l.035157-.023437h.023437c7.695313-4.746094 17.355469-4.953125 25.246094-.539063 7.890625 4.410157 12.773437 12.753907 12.753906 21.796875zm-126.507813-96.847656c12.394532-12.402344 31.425782-15.28125 46.9375-7.097657 15.507813 8.183594 23.871094 25.523438 20.625 42.753907-24.300781-14.945313-56.039062-8.367188-72.398437 15.003906-10.707031-15.871094-8.679688-37.097656 4.835937-50.660156zm0 0"/><path d="m73.085938 162.4375c1.742187 1.867188 4.367187 2.632812 6.84375 2 2.476562-.632812 4.414062-2.5625 5.050781-5.039062.632812-2.476563-.128907-5.101563-1.996094-6.851563l-9.347656-9.359375c-2.734375-2.734375-7.167969-2.734375-9.902344 0-2.734375 2.730469-2.734375 7.164062-.003906 9.902344zm0 0"/><path d="m46.058594 190.949219 12.769531 3.417969c3.734375 1 7.574219-1.214844 8.574219-4.949219s-1.214844-7.574219-4.949219-8.574219l-12.769531-3.417969c-3.734375-1.003906-7.574219 1.214844-8.574219 4.949219s1.214844 7.570312 4.949219 8.574219zm0 0"/><path d="m47.867188 232.828125c.613281 0 1.226562-.082031 1.816406-.238281l12.769531-3.421875c3.734375-1 5.949219-4.839844 4.949219-8.574219s-4.839844-5.949219-8.574219-4.949219l-12.769531 3.417969c-3.386719.914062-5.578125 4.195312-5.121094 7.671875.457031 3.480469 3.421875 6.085937 6.929688 6.089844zm0 0"/><path d="m141.140625 146.851562c1.796875.484376 3.710937.238282 5.320313-.691406 1.613281-.929687 2.789062-2.460937 3.269531-4.257812l3.421875-12.765625c1-3.734375-1.214844-7.574219-4.949219-8.574219s-7.574219 1.214844-8.574219 4.949219l-3.421875 12.769531c-1 3.726562 1.207031 7.5625 4.933594 8.570312zm0 0"/><path d="m101.402344 141.902344c1.003906 3.734375 4.839844 5.953125 8.574218 4.953125 3.734376-1.003907 5.953126-4.839844 4.953126-8.574219l-3.421876-12.769531c-1-3.734375-4.839843-5.949219-8.574218-4.949219s-5.949219 4.839844-4.949219 8.574219zm0 0"/><path d="m173.078125 164.488281c1.859375 0 3.640625-.738281 4.949219-2.050781l9.347656-9.347656c2.734375-2.734375 2.734375-7.167969 0-9.902344s-7.164062-2.734375-9.898438 0l-9.34375 9.359375c-2 2.003906-2.597656 5.011719-1.515624 7.628906 1.082031 2.613281 3.632812 4.320313 6.460937 4.320313zm0 0"/><path d="m205.058594 219.0625-12.765625-3.417969c-3.734375-1-7.574219 1.214844-8.574219 4.949219s1.214844 7.574219 4.949219 8.574219l12.769531 3.421875c3.734375 1 7.570312-1.21875 8.574219-4.953125 1-3.734375-1.21875-7.570313-4.953125-8.574219zm0 0"/><path d="m183.730469 189.429688c1.003906 3.730468 4.84375 5.945312 8.578125 4.945312l12.765625-3.417969c3.738281-1 5.953125-4.839843 4.953125-8.574219-1.003906-3.734374-4.839844-5.953124-8.574219-4.949218l-12.769531 3.417968c-3.734375 1-5.953125 4.839844-4.953125 8.578126zm0 0"/><path d="m162.578125 400.292969h-46.492187c-11.847657 0-21.453126 9.601562-21.453126 21.449219 0 11.847656 9.605469 21.449218 21.453126 21.449218h46.492187c11.847656 0 21.453125-9.601562 21.453125-21.449218 0-11.847657-9.605469-21.449219-21.453125-21.449219zm0 28.898437h-46.492187c-4.117188 0-7.453126-3.335937-7.453126-7.449218 0-4.113282 3.335938-7.449219 7.453126-7.449219h46.492187c4.117187 0 7.453125 3.335937 7.453125 7.449219 0 4.113281-3.335938 7.449218-7.453125 7.449218zm0 0"/><path d="m111.300781 37.65625h21.390625c3.867188 0 7-3.132812 7-7s-3.132812-7-7-7h-21.390625c-3.867187 0-7 3.132812-7 7s3.132813 7 7 7zm0 0"/><path d="m156.667969 37.65625h10.695312c3.867188 0 7-3.132812 7-7s-3.132812-7-7-7h-10.695312c-3.867188 0-7 3.132812-7 7s3.132812 7 7 7zm0 0"/></svg>