<svg height="458pt" viewBox="0 -9 458.40802 458" width="458pt" xmlns="http://www.w3.org/2000/svg"><path d="m451.40625.203125h-444.40625c-3.867188 0-7 3.136719-7 7v319.75c0 3.863281 3.132812 7 7 7h178.734375l-22.25 63.792969h-40.917969c-3.863281 0-7 3.136718-7 7v27.636718c0 3.867188 3.136719 7 7 7h213.273438c3.867187 0 7-3.132812 7-7v-27.636718c0-3.863282-3.132813-7-7-7h-40.914063l-22.25-63.792969h178.730469c3.867188 0 7-3.136719 7-7v-319.734375c.007812-1.859375-.730469-3.644531-2.042969-4.957031-1.3125-1.316407-3.097656-2.058594-4.957031-2.058594zm-7 14v258.800781h-430.402344v-258.800781zm-115.566406 411.199219h-199.273438v-13.632813h199.273438zm-48.746094-27.632813h-101.78125l22.246094-63.796875h57.289062zm164.308594-77.816406h-430.398438v-32.949219h430.398438zm-271.65625-138.277344c-.515625 1.5-.96875 3.03125-1.363282 4.589844-12.761718-.429687-24.761718 6.066406-31.378906 16.984375-6.621094 10.921875-6.828125 24.5625-.546875 35.679688 6.28125 11.117187 18.078125 17.976562 30.847657 17.9375h121.71875c16.234374.019531 30.933593-9.601563 37.410156-24.488282 6.480468-14.886718 3.503906-32.195312-7.570313-44.066406-11.078125-11.867188-28.140625-16.03125-43.4375-10.597656-2.507812-5.789063-5.96875-11.113282-10.238281-15.757813 8.945312-26.125-2.261719-54.894531-26.527344-68.078125-24.261718-13.183594-54.5-6.9375-71.550781 14.78125-17.054687 21.71875-15.945313 52.574219 2.617187 73.015625zm146.03125 34.445313c-.027344 14.761718-11.988282 26.722656-26.753906 26.75h-121.71875c-8.242188.023437-15.757813-4.703125-19.304688-12.140625-3.542969-7.441407-2.480469-16.257813 2.726562-22.644531 5.210938-6.382813 13.632813-9.191407 21.632813-7.214844 1.945313.480468 4 .101562 5.648437-1.035156 1.648438-1.136719 2.730469-2.925782 2.972657-4.910157 2.390625-19.441406 17.707031-34.761719 37.148437-37.15625 19.4375-2.394531 38.015625 8.75 45.050782 27.03125-7.070313 6.863281-11.179688 16.214844-11.460938 26.0625 0 3.867188 3.136719 7 7 7 3.867188 0 7-3.132812 7-7 0-.121093.253906-12.066406 9.277344-17.492187l.035156-.027344h.027344c8.25-5.085938 18.605468-5.304688 27.0625-.570312 8.457031 4.734374 13.683594 13.679687 13.65625 23.371093zm-134.25-102.542969c13.277344-13.292969 33.703125-16.316406 50.261718-7.4375 16.5625 8.882813 25.34375 27.566406 21.613282 45.984375-25.695313-16.144531-59.554688-9.125-76.714844 15.902344-11.792969-16.921875-9.753906-39.867188 4.839844-54.449219zm-34.867188-24.972656c-2.734375-2.734375-2.734375-7.167969 0-9.902344s7.167969-2.734375 9.898438 0l9.875 9.902344c2.730468 2.730469 2.730468 7.164062 0 9.898437-2.734375 2.734375-7.167969 2.734375-9.902344 0zm-23.792968 31.320312c.480468-1.796875 1.652343-3.328125 3.261718-4.253906 1.609375-.929687 3.523438-1.179687 5.316406-.695313l13.484376 3.597657c3.734374 1.003906 5.949218 4.839843 4.949218 8.574219-1 3.734374-4.839844 5.953124-8.574218 4.953124l-13.484376-3.601562c-3.738281-1-5.953124-4.839844-4.953124-8.574219zm0 47.597657c-.484376-1.792969-.238282-3.707032.6875-5.316407.925781-1.609375 2.457031-2.789062 4.25-3.269531l13.484374-3.601562c3.734376-1 7.570313 1.214843 8.574219 4.949218 1 3.734375-1.214843 7.574219-4.953125 8.574219l-13.480468 3.601563c-3.734376 1-7.574219-1.214844-8.578126-4.949219zm100.402343-94.152344 3.597657-13.484375c1-3.734375 4.839843-5.949219 8.574218-4.949219s5.953125 4.839844 4.949219 8.574219l-3.597656 13.484375c-1 3.734375-4.839844 5.949218-8.574219 4.949218s-5.953125-4.839843-4.949219-8.574218zm-40.347656-9.871094c-1.003906-3.734375 1.214844-7.574219 4.949219-8.574219s7.570312 1.214844 8.574218 4.949219l3.597657 13.484375c1 3.734375-1.214844 7.574219-4.949219 8.574219s-7.574219-1.214844-8.574219-4.949219zm73.96875 34.988281c-1.3125-1.3125-2.050781-3.09375-2.050781-4.949219 0-1.859374.738281-3.640624 2.050781-4.949218l9.875-9.875c2.757813-2.554688 7.042969-2.472656 9.703125.1875 2.660156 2.65625 2.742188 6.941406.191406 9.703125l-9.871094 9.871093c-1.3125 1.3125-3.09375 2.050782-4.949218 2.050782-1.859375 0-3.640625-.738282-4.953125-2.050782zm43.5625 69.023438c-1.003906 3.734375-4.84375 5.949219-8.578125 4.949219l-13.484375-3.601563c-3.734375-1-5.949219-4.839844-4.949219-8.574219s4.839844-5.949218 8.574219-4.949218l13.484375 3.601562c3.738281 1 5.953125 4.839844 4.953125 8.574219zm-22.058594-48.90625 13.484375-3.601563c3.734375-1 7.574219 1.214844 8.574219 4.949219s-1.214844 7.574219-4.949219 8.574219l-13.484375 3.601562c-3.734375 1-7.574219-1.214844-8.574219-4.949218-1-3.734376 1.214844-7.574219 4.949219-8.574219zm-233.371093-53.414063c10.804687 0 19.566406-8.757812 19.566406-19.5625 0-10.804687-8.761719-19.566406-19.566406-19.566406-10.804688 0-19.5625 8.761719-19.5625 19.566406.019531 10.796875 8.765624 19.542969 19.5625 19.5625zm0-25.128906c3.074218 0 5.5625 2.492188 5.566406 5.5625 0 3.074219-2.492188 5.566406-5.5625 5.566406-3.074219.003906-5.566406-2.488281-5.566406-5.558594 0-3.074218 2.488281-5.570312 5.5625-5.574218zm50.269531 25.128906c10.804687 0 19.5625-8.757812 19.5625-19.5625 0-10.804687-8.757813-19.566406-19.5625-19.566406-10.804688 0-19.566407 8.761719-19.566407 19.566406.019532 10.796875 8.769532 19.542969 19.566407 19.5625zm0-25.128906c3.070312 0 5.5625 2.492188 5.5625 5.5625 0 3.074219-2.488281 5.566406-5.5625 5.566406-3.070313.003906-5.5625-2.488281-5.566407-5.558594 0-3.074218 2.492188-5.570312 5.566407-5.574218zm286.453125 5.570312c0-3.867187 3.136718-7 7-7h31.203125c3.863281 0 7 3.132813 7 7 0 3.863282-3.136719 7-7 7h-31.203125c-3.867188 0-7-3.136718-7-7.003906zm0 22.800782c0-3.867188 3.136718-7 7-7h31.203125c3.863281 0 7 3.132812 7 7 0 3.863281-3.136719 7-7 7h-31.203125c-3.867188 0-7-3.136719-7-7.003906zm-196.863282 235.050781c0-3.867187 3.136719-7 7-7h68.636719c3.867188 0 7 3.132813 7 7s-3.132812 7-7 7h-68.636719c-3.863281 0-7-3.132813-7-7zm0 0"/></svg>