<svg height="466pt" viewBox="-30 0 466 466.61456" width="466pt" xmlns="http://www.w3.org/2000/svg"><path d="m46.839844 52.539062c-2.730469-2.730468-2.730469-7.164062 0-9.898437 2.734375-2.734375 7.167968-2.734375 9.902344 0l18.226562 18.226563c2.734375 2.734374 2.734375 7.167968 0 9.902343s-7.164062 2.734375-9.898438 0zm-37.449219 72.136719 24.902344 6.671875c3.734375 1 7.574219-1.214844 8.574219-4.949218 1-3.734376-1.214844-7.574219-4.949219-8.574219l-24.929688-6.6875c-3.738281-.996094-7.574219 1.230469-8.570312 4.96875-.992188 3.738281 1.230469 7.578125 4.972656 8.570312zm1.808594 81.425781c.609375 0 1.222656-.082031 1.8125-.242187l24.90625-6.671875c3.734375-1 5.949219-4.839844 4.949219-8.574219s-4.839844-5.949219-8.574219-4.949219l-24.902344 6.65625c-3.398437.90625-5.597656 4.191407-5.140625 7.675782.460938 3.484375 3.429688 6.089844 6.949219 6.089844zm183.59375-167.425781c1.792969.484375 3.707031.234375 5.316406-.695312 1.609375-.925781 2.78125-2.457031 3.261719-4.25l6.671875-24.902344c1-3.734375-1.21875-7.574219-4.953125-8.574219s-7.570313 1.214844-8.574219 4.949219l-6.671875 24.902344c-1 3.734375 1.214844 7.570312 4.949219 8.570312zm-72.800781-4.945312c1 3.734375 4.839843 5.949219 8.574218 4.949219s5.953125-4.839844 4.949219-8.574219l-6.660156-24.917969c-1-3.734375-4.835938-5.949219-8.570313-4.949219-3.738281 1-5.953125 4.839844-4.953125 8.574219zm133.351562 39.105469c1.859375.003906 3.640625-.734376 4.949219-2.050782l18.226562-18.230468c2.734375-2.730469 2.734375-7.164063 0-9.898438-2.730469-2.734375-7.164062-2.734375-9.898437 0l-18.226563 18.226562c-2 2.003907-2.601562 5.011719-1.515625 7.628907 1.082032 2.613281 3.632813 4.320312 6.460938 4.320312zm32.105469 126.347656 24.902343 6.671875c3.734376 1 7.574219-1.214844 8.574219-4.949219 1.003907-3.734375-1.214843-7.574219-4.949219-8.574219l-24.902343-6.671875c-3.734375-1-7.574219 1.214844-8.574219 4.949219s1.214844 7.574219 4.949219 8.574219zm1.808593-67.597656c.613282-.003907 1.222657-.082032 1.816407-.242188l24.914062-6.667969c3.734375-1 5.953125-4.839843 4.949219-8.574219-1-3.734374-4.835938-5.949218-8.570312-4.949218l-24.90625 6.671875c-3.398438.90625-5.59375 4.191406-5.136719 7.675781s3.429687 6.089844 6.945312 6.089844zm118 167.304687c-.050781 43.707031-35.464843 79.121094-79.167968 79.171875h-260.246094c-37.296875 0-67.535156-30.238281-67.535156-67.539062 0-37.300782 30.238281-67.539063 67.535156-67.539063 2.871094.003906 5.742188.199219 8.585938.585937.609374-3.203124 1.347656-6.359374 2.222656-9.472656-36.308594-40.316406-38.863282-100.738281-6.078125-143.972656 32.78125-43.230469 91.65625-57.078125 140.269531-32.988281 48.617188 24.085937 73.265625 79.316406 58.730469 131.585937 10.171875 11.164063 18 24.257813 23.015625 38.5 24.503906-11.515625 53.199218-9.691406 76.046875 4.839844 22.847656 14.527344 36.671875 39.742188 36.632812 66.816406zm-323.070312-80.101563c14.378906-32.386718 43.085938-56.179687 77.582031-64.285156 34.496094-8.109375 70.796875.398438 98.097657 22.992188 8.792968-44.757813-14.125-89.734375-55.503907-108.929688-41.378906-19.199218-90.515625-7.648437-119.011719 27.972656-28.496093 35.617188-28.972656 86.09375-1.164062 122.25zm309.082031 80.089844c.039063-23.597656-12.703125-45.367187-33.296875-56.886718-20.597656-11.523438-45.816406-10.988282-65.902344 1.394531h-.023437l-.039063.03125c-23.421874 14.082031-23.695312 43.929687-23.695312 44.234375 0 3.867187-3.132812 7-7 7-3.863281 0-7-3.132813-7-7 0-1.464844.347656-34.226563 25.871094-53.109375-4.585938-14.429688-12.429688-27.613281-22.921875-38.53125-.101563-.082031-.179688-.179688-.277344-.269531-26.570313-27.5-66.578125-37.277344-102.835937-25.136719-36.257813 12.144531-62.308594 44.042969-66.964844 81.996093-.238282 1.984376-1.316406 3.769532-2.957032 4.910157-1.644531 1.136719-3.695312 1.523437-5.636718 1.054687-20.070313-4.929687-41.179688 2.136719-54.238282 18.152344-13.058593 16.019531-15.726562 38.121094-6.855468 56.785156 8.871094 18.664063 27.695312 30.550782 48.359375 30.539063h260.246093c35.972657-.039063 65.125-29.1875 65.167969-65.164063zm-259.199219 90.433594c3.917969 5.667969 23.488282 34.632812 23.488282 48.398438-.1875 16.019531-13.226563 28.902343-29.242188 28.902343-16.019531 0-29.054687-12.882812-29.242187-28.902343 0-13.769532 19.566406-42.734376 23.488281-48.398438 1.371094-1.78125 3.496094-2.824219 5.742188-2.824219 2.25 0 4.375 1.039063 5.75 2.820313zm9.488282 48.398438c0-5.050782-7.15625-18.882813-15.246094-31.707032-8.082031 12.832032-15.242188 26.664063-15.242188 31.707032.132813 8.324218 6.917969 15 15.242188 15 8.320312 0 15.105469-6.675782 15.242188-15zm127.511718-48.398438c3.917969 5.667969 23.488282 34.632812 23.488282 48.398438-.1875 16.019531-13.226563 28.902343-29.242188 28.902343-16.019531 0-29.054687-12.882812-29.242187-28.902343 0-13.769532 19.566406-42.734376 23.488281-48.398438 1.371094-1.78125 3.496094-2.824219 5.742188-2.824219 2.25 0 4.375 1.039063 5.75 2.820313zm9.488282 48.398438c0-5.050782-7.15625-18.882813-15.246094-31.707032-8.082031 12.832032-15.242188 26.664063-15.242188 31.707032.132813 8.324218 6.917969 15 15.242188 15 8.320312 0 15.105469-6.675782 15.242188-15zm0 0"/></svg>