<svg height="463pt" viewBox="-22 0 463 463.16465" width="463pt" xmlns="http://www.w3.org/2000/svg"><path d="m416.878906 345.191406-44.433594-36.917968c-2.085937-1.738282-4.988281-2.109376-7.449218-.957032-2.457032 1.152344-4.027344 3.625-4.027344 6.339844v14.902344h-119.90625c-1.519531-1.871094-3.226562-3.578125-5.097656-5.097656v-25.855469c59.605468-10.570313 103.066406-62.339844 103.148437-122.875v-60.589844h19.429688c7.167969.144531 13.855469-3.597656 17.480469-9.785156 3.628906-6.183594 3.628906-13.847657 0-20.03125-3.625-6.1875-10.3125-9.925781-17.480469-9.785157h-19.429688v-.351562c-.007812-2.898438-.359375-5.785156-1.039062-8.601562 13.207031-3.050782 22.019531-15.527344 20.484375-28.992188-1.535156-13.46875-12.929688-23.636719-26.484375-23.636719-2.757813-.003906-5.496094.429688-8.117188 1.289063-4.570312-8.757813-13.628906-14.246094-23.507812-14.246094-9.875 0-18.933594 5.488281-23.507813 14.246094-2.621094-.859375-5.359375-1.292969-8.113281-1.289063-14.726563.007813-26.664063 11.9375-26.6875 26.664063 0 3.21875.589844 6.414062 1.746094 9.417968-4.984375 4.675782-7.804688 11.207032-7.796875 18.042969.019531 13.761719 11.171875 24.917969 24.9375 24.933594 1.125-.035156 2.246094-.167969 3.351562-.398437v51.242187h-160.847656v-76.285156c-.027344-24.417969-19.816406-44.207031-44.234375-44.234375h-52.214844c-3.867187 0-6.9999998 3.136718-6.9999998 7v84.402344c.0429688 23.800781 19.3359378 43.085937 43.1406248 43.117187h46.308594v17.871094c.085938 60.246093 43.140625 111.855469 102.398438 122.738281v26c-1.867188 1.519531-3.574219 3.226562-5.09375 5.097656h-89.054688l-16.699219-19.457031c-1.328125-1.550781-3.269531-2.441406-5.3125-2.441406h-63.378906c-2.734375 0-5.21875 1.59375-6.363281 4.078125-1.140625 2.484375-.730469 5.40625 1.050781 7.484375l27.78125 32.363281-27.78125 32.363281c-1.78125 2.074219-2.191406 4.996094-1.050781 7.480469 1.144531 2.488281 3.628906 4.078125 6.363281 4.078125h63.378906c2.042969 0 3.984375-.890625 5.3125-2.4375l16.699219-19.457031h89.035156c1.519532 1.867187 3.230469 3.578125 5.097656 5.09375v78.449218c0 3.867188 3.132813 7 7 7h30.046876c3.867187 0 7-3.132812 7-7v-78.46875c1.871093-1.519531 3.578124-3.226562 5.097656-5.09375h119.90625v14.898438c0 2.714844 1.570312 5.1875 4.027344 6.339844 2.460937 1.152344 5.363281.78125 7.449218-.957032l44.433594-36.917968c1.597656-1.332032 2.523438-3.300782 2.523438-5.382813 0-2.078125-.925782-4.050781-2.523438-5.382812zm-195.808594 25c-.804687.292969-1.625.539063-2.460937.730469-.375.085937-.75.175781-1.136719.238281-1.109375.199219-2.234375.304688-3.363281.324219h-.34375c-1.125-.015625-2.246094-.125-3.355469-.320313-.398437-.0625-.769531-.15625-1.148437-.242187-.824219-.191406-1.636719-.433594-2.429688-.722656-.378906-.132813-.753906-.253907-1.121093-.398438-4.960938-2.074219-8.90625-6.019531-10.980469-10.980469-.15625-.367187-.277344-.746093-.398438-1.125-.289062-.789062-.527343-1.597656-.71875-2.417968-.085937-.402344-.183593-.777344-.246093-1.167969-.191407-1.089844-.296876-2.191406-.316407-3.296875 0-.148438 0-.292969 0-.4375.019531-1.109375.125-2.214844.316407-3.304688.0625-.402343.160156-.773437.246093-1.15625.191407-.828124.433594-1.644531.726563-2.445312.128906-.367188.25-.738281.398437-1.105469 2.078125-4.964843 6.027344-8.914062 10.996094-10.992187.351563-.144532.710937-.261719 1.066406-.398438.824219-.300781 1.660157-.546875 2.511719-.742187.363281-.082031.71875-.167969 1.082031-.234375 1.164063-.210938 2.339844-.320313 3.523438-.335938h.078125c1.175781.015625 2.347656.128906 3.507812.335938.367188.066406.730469.152344 1.097656.238281.84375.191406 1.671876.4375 2.484376.734375.363281.132812.730468.246094 1.09375.398438 4.960937 2.082031 8.90625 6.035156 10.976562 11 .152344.367187.269531.738281.398438 1.109374.289062.796876.53125 1.613282.71875 2.441407.089843.398437.179687.765625.25 1.15625.191406 1.089843.296874 2.195312.316406 3.304687v.4375c-.019532 1.105469-.125 2.207032-.316406 3.296875-.070313.398438-.160157.800781-.25 1.167969-.191407.8125-.429688 1.613281-.714844 2.398438-.136719.378906-.257813.757812-.398438 1.128906-2.078125 4.960937-6.023437 8.90625-10.984375 10.980468-.371093.15625-.742187.273438-1.105469.40625zm57.320313-227.332031v-68.679687c-.039063-6.710938 2.824219-13.109376 7.859375-17.550782 5.03125-4.441406 11.738281-6.488281 18.390625-5.613281.273437.03125.539063.082031.800781.125.714844.113281 1.421875.261719 2.117188.441406.25.0625.503906.117188.75.191407.886718.253906 1.753906.5625 2.601562.917968.171875.078125.335938.167969.507813.246094.664062.304688 1.3125.636719 1.949219 1 .296874.167969.582031.347656.867187.527344.535156.339844 1.054687.707031 1.5625 1.085937.242187.183594.488281.351563.722656.539063.671875.550781 1.3125 1.140625 1.917969 1.761718.210938.222657.402344.453126.617188.679688.453124.5.882812 1.015625 1.292968 1.558594.171875.222656.34375.445312.507813.675781.546875.769531 1.046875 1.570313 1.5 2.398437 1.816406 3.382813 2.765625 7.164063 2.761719 11.003907v68.679687zm80.152344-54.328125c2.121093-.078125 4.121093 1.011719 5.203125 2.835938 1.085937 1.828124 1.085937 4.101562 0 5.929687-1.082032 1.828125-3.082032 2.914063-5.203125 2.835937h-19.429688v-11.601562zm-97.507813-10.515625c-5.058594.015625-9.457031-3.449219-10.625-8.371094-1.167968-4.917969 1.207032-9.996093 5.730469-12.25 1.828125-.929687 3.15625-2.613281 3.632813-4.605469.480468-1.992187.0625-4.09375-1.144532-5.753906-3.773437-5.09375-3.171875-12.199218 1.410156-16.582031 4.582032-4.386719 11.707032-4.675781 16.632813-.679687 1.980469 1.582031 4.664063 1.964843 7.011719 1.003906 2.347656-.960938 3.992187-3.113282 4.296875-5.632813.722656-6.347656 6.09375-11.144531 12.480469-11.144531 6.390624 0 11.761718 4.796875 12.480468 11.144531.304688 2.519531 1.953125 4.675781 4.300782 5.636719 2.347656.960938 5.03125.574219 7.015624-1.007812 2.214844-1.804688 4.976563-2.800782 7.832032-2.820313 6.996094 0 12.667968 5.671875 12.667968 12.667969s-5.671874 12.667968-12.667968 12.667968h-.066406c-.226563-.3125-.492188-.585937-.730469-.890624-.441407-.578126-.898438-1.136719-1.375-1.6875-.476563-.546876-.886719-1.007813-1.351563-1.484376-.464844-.480468-.917968-.902343-1.386718-1.34375-.472657-.4375-1.011719-.960937-1.554688-1.40625-.539062-.445312-1.085938-.835937-1.632812-1.242187-.902344-.667969-1.820313-1.296875-2.777344-1.882813-.644532-.398437-1.289063-.800781-1.957032-1.152343-.527343-.277344-1.070312-.523438-1.597656-.773438-.703125-.332031-1.40625-.652343-2.128906-.941406-.527344-.207031-1.0625-.398437-1.601562-.582031-.800782-.273438-1.597657-.515625-2.398438-.734375-.507812-.136719-1.007812-.273438-1.523438-.398438-.914062-.207031-1.835937-.363281-2.773437-.5-.4375-.066406-.863281-.152343-1.304687-.199219-10.578126-1.234374-21.175782 2.117188-29.121094 9.210938-7.941406 7.09375-12.464844 17.25-12.429688 27.898438v3.082031c-1.085937.363281-2.207031.617187-3.34375.753906zm5.199219 78.84375v3.507813c0 23.640624-19.164063 42.800781-42.800781 42.800781-23.636719 0-42.800782-19.160157-42.800782-42.800781v-3.511719zm-99.601563 0v3.507813c-.042968 19.710937 10.160157 38.027343 26.9375 48.371093 16.78125 10.34375 37.726563 11.226563 55.316407 2.332031-18.800781 21.234376-48.777344 28.621094-75.289063 18.546876-26.511718-10.070313-44.023437-35.496094-43.984375-63.855469v-8.902344zm-152.550781-94.890625h45.199219c16.617188.019531 30.109375 13.433594 30.226562 30.050781-8.171874-7.71875-18.984374-12.019531-30.226562-12.023437h-45.199219zm45.199219-25.632812c13.816406.027343 25.863281 9.410156 29.269531 22.800781-8.050781-7.183594-18.460937-11.15625-29.253906-11.167969h-45.199219v-11.628906zm-45.199219 77.382812v-19.71875h45.199219c16.691406.019531 30.214844 13.542969 30.234375 30.234375v18.625h-46.292969c-16.085937-.015625-29.121094-13.050781-29.140625-29.132813zm89.449219 61.011719v-17.871094h12.082031v8.902344c0 45.453125 36.847657 82.300781 82.304688 82.300781 45.453125 0 82.300781-36.847656 82.300781-82.300781v-8.902344h44.894531v17.871094c-.078125 55.882812-41.710937 102.984375-97.164062 109.921875-2.3125.285156-4.5625.492187-6.800781.636718l-.398438.027344c-2.242188.136719-4.453125.199219-6.660156.199219-.445313 0-.878906-.027344-1.320313-.03125-1.800781-.023437-3.597656-.078125-5.414062-.199219-.402344-.023437-.773438-.058594-1.160157-.089844-2.078124-.160156-4.164062-.359374-6.308593-.636718-55.09375-7.304688-96.285157-54.253906-96.355469-109.828125zm102.398438 141.863281v-17.375h.355468c2.359375.152344 4.738282.25 7.132813.265625h.679687.238282c2.492187 0 4.957031-.097656 7.414062-.238281h.226562v17.316406c-.136718-.035156-.277343-.046875-.398437-.074219-.992187-.21875-2-.398437-2.988281-.523437-.261719-.035156-.527344-.085938-.800782-.117188-2.542968-.277344-5.109374-.277344-7.65625 0-.253906.027344-.511718.078125-.765624.113282-1.011719.132812-2 .308593-3.019532.527343-.160156.0625-.296875.074219-.433594.105469zm-25.960938 42h-85.402344c-2.042968 0-3.980468.890625-5.3125 2.4375l-16.710937 19.464844h-44.921875l21.773437-25.363282c2.25-2.621093 2.25-6.492187 0-9.117187l-21.773437-25.363281h44.921875l16.699219 19.457031c1.332031 1.546875 3.269531 2.441406 5.3125 2.4375h85.398437c-.035156.148437-.042969.300781-.078125.449219-.214844.972656-.402344 1.949218-.511719 2.933594-.035156.273437-.089843.550781-.121093.828124-.277344 2.539063-.277344 5.101563 0 7.640626.027343.269531.082031.542968.117187.796874.132813.988282.300781 1.96875.511719 2.941407.039062.164062.050781.316406.082031.464843zm42 25.957031v64.585938h-16.054688v-64.574219c.144532.03125.289063.042969.433594.074219.96875.214843 1.945313.398437 2.929688.511719.285156.039062.570312.09375.851562.125 2.53125.300781 5.089844.300781 7.621094 0 .28125-.03125.554688-.085938.835938-.121094.988281-.132813 1.96875-.300782 2.945312-.515625.144531-.03125.292969-.042969.433594-.074219zm153.003906-12v-6.949219c0-3.867187-3.132812-7-7-7h-120.046875c.035157-.148437.042969-.300781.078125-.449218.214844-.976563.398438-1.957032.511719-2.941406.035156-.269532.085937-.542969.113281-.796876.277344-2.539062.277344-5.101562 0-7.640624-.03125-.277344-.082031-.554688-.117187-.828126-.132813-.984374-.296875-1.960937-.511719-2.933593-.035156-.148438-.046875-.300781-.082031-.445313h120.042969c3.867187 0 7-3.136718 7-7v-6.992187l26.480468 22zm0 0"/><path d="m309.386719 67.425781c-3.867188 0-7 3.132813-7 7v9.824219c0 3.863281 3.132812 7 7 7 3.867187 0 7-3.136719 7-7v-9.824219c0-3.867187-3.132813-7-7-7zm0 0"/></svg>