<svg height="464pt" viewBox="0 -47 464.732 464" width="464pt" xmlns="http://www.w3.org/2000/svg"><path d="m53.117188 176.554688c-10.671876 0-19.320313 8.648437-19.320313 19.320312 0 10.667969 8.648437 19.320312 19.320313 19.320312h194.660156c10.667968 0 19.320312-8.652343 19.320312-19.320312 0-10.671875-8.652344-19.320312-19.320312-19.320312zm200 19.320312c-.003907 2.933594-2.386719 5.316406-5.320313 5.320312h-194.679687c-2.9375 0-5.320313-2.382812-5.320313-5.320312s2.382813-5.320312 5.320313-5.320312h194.660156c2.933594.003906 5.3125 2.382812 5.320312 5.320312zm49.527343-19.320312c-10.671875 0-19.320312 8.648437-19.320312 19.320312 0 10.667969 8.648437 19.320312 19.320312 19.320312h39.230469c10.671875 0 19.320312-8.652343 19.320312-19.320312 0-10.671875-8.648437-19.320312-19.320312-19.320312zm44.519531 19.320312c-.003906 2.933594-2.382812 5.316406-5.320312 5.320312h-39.21875c-2.9375 0-5.320312-2.382812-5.320312-5.320312s2.382812-5.320312 5.320312-5.320312h39.230469c2.933593.011718 5.304687 2.386718 5.308593 5.320312zm45.308594-19.320312c-10.671875 0-19.320312 8.648437-19.320312 19.320312 0 10.667969 8.648437 19.320312 19.320312 19.320312h13.457032c10.667968 0 19.316406-8.652343 19.316406-19.320312 0-10.671875-8.648438-19.320312-19.316406-19.320312zm18.773438 19.320312c-.003906 2.933594-2.382813 5.316406-5.316406 5.320312h-13.445313c-2.9375 0-5.320313-2.382812-5.320313-5.320312s2.382813-5.320312 5.320313-5.320312h13.457031c2.933594.003906 5.3125 2.382812 5.320313 5.320312zm-142.601563 89.277344h-130.628906c-10.667969 0-19.320313 8.652344-19.320313 19.320312 0 10.671875 8.652344 19.320313 19.320313 19.320313h130.628906c10.667969 0 19.320313-8.648438 19.320313-19.320313 0-10.667968-8.652344-19.320312-19.320313-19.320312zm0 24.640625h-130.628906c-2.9375 0-5.320313-2.378907-5.320313-5.320313 0-2.9375 2.382813-5.320312 5.320313-5.320312h130.628906c2.9375 0 5.320313 2.382812 5.320313 5.320312 0 2.941406-2.382813 5.320313-5.320313 5.320313zm-182.148437-24.640625h-67.175782c-10.671874 0-19.320312 8.652344-19.320312 19.320312 0 10.671875 8.648438 19.320313 19.320312 19.320313h67.175782c10.671875 0 19.320312-8.648438 19.320312-19.320313 0-10.667968-8.648437-19.320312-19.320312-19.320312zm0 24.640625h-67.175782c-2.9375 0-5.320312-2.378907-5.320312-5.320313 0-2.9375 2.382812-5.320312 5.320312-5.320312h67.175782c2.9375 0 5.320312 2.382812 5.320312 5.320312 0 2.941406-2.382812 5.320313-5.320312 5.320313zm-67.175782-146.921875h314.898438c44.875 0 81.253906-36.378906 81.253906-81.253906s-36.378906-81.25-81.253906-81.25c-44.871094 0-81.25 36.375-81.25 81.25 0 10.671874 8.648438 19.320312 19.320312 19.320312 10.667969 0 19.320313-8.648438 19.320313-19.320312 0-23.53125 19.078125-42.609376 42.609375-42.609376 23.535156 0 42.613281 19.078126 42.613281 42.609376 0 23.535156-19.078125 42.613281-42.613281 42.613281h-314.898438c-10.671874 0-19.320312 8.648437-19.320312 19.320312 0 10.667969 8.648438 19.320313 19.320312 19.320313zm0-24.640625h314.898438c31.265625 0 56.613281-25.347657 56.613281-56.613281 0-31.265626-25.347656-56.609376-56.613281-56.609376s-56.609375 25.34375-56.609375 56.609376c0 2.9375-2.382813 5.320312-5.320313 5.320312s-5.320312-2.382812-5.320312-5.320312c0-37.140626 30.109375-67.25 67.25-67.25 37.144531 0 67.253906 30.109374 67.253906 67.25 0 37.144531-30.109375 67.253906-67.253906 67.253906h-314.898438c-2.9375 0-5.320312-2.382813-5.320312-5.320313s2.382812-5.320312 5.320312-5.320312zm374.433594 90.644531h-258.554687c-10.667969 0-19.320313 8.648438-19.320313 19.320312 0 10.667969 8.652344 19.320313 19.320313 19.320313h258.554687c17.855469 0 32.332032 14.472656 32.332032 32.332031 0 17.855469-14.476563 32.332032-32.332032 32.332032-17.859375 0-32.332031-14.476563-32.332031-32.332032 0-10.671875-8.652344-19.320312-19.320313-19.320312-10.671874 0-19.320312 8.648437-19.320312 19.320312-.003906 39.199219 31.773438 70.976563 70.972656 70.976563 39.199219.003906 70.980469-31.777344 70.976563-70.976563 0-39.199218-31.777344-70.976562-70.976563-70.972656zm0 127.945312c-31.457031-.027343-56.953125-25.515624-56.988281-56.972656 0-2.941406 2.378906-5.320312 5.320313-5.320312 2.9375 0 5.316406 2.378906 5.316406 5.320312 0 25.585938 20.742187 46.328125 46.328125 46.332032 25.585937 0 46.332031-20.738282 46.335937-46.324219.007813-25.585938-20.726562-46.332031-46.3125-46.339844h-258.554687c-2.9375 0-5.320313-2.382813-5.320313-5.320313 0-2.941406 2.382813-5.320312 5.320313-5.320312h258.554687c31.277344.261719 56.496094 25.691406 56.496094 56.972656s-25.21875 56.710938-56.496094 56.972656zm0 0"/></svg>