<svg height="463pt" viewBox="-19 0 463 463.19965" width="463pt" xmlns="http://www.w3.org/2000/svg"><path d="m420 140.613281-156.398438-19.691406-42.703124-5.378906-84.742188-10.667969c-.125 0-.253906 0-.398438 0-.144531 0-.324218-.046875-.488281-.046875h-23.796875c-3.863281 0-7 3.132813-7 7v5.917969h-42.800781v-16.628906h5.371094c3.863281 0 7-3.136719 7-7v-23.523438c-.003907-3.292969-2.304688-6.140625-5.523438-6.835938 13.25-15.71875 11.925781-39.046874-3.019531-53.167968s-38.3125-14.121094-53.257812 0c-14.941407 14.121094-16.265626 37.449218-3.015626 53.167968-3.222656.695313-5.523437 3.542969-5.523437 6.835938v23.523438c0 3.863281 3.132813 7 7 7h5.367187v355.082031c0 3.867187 3.132813 7 7 7h31.597657c3.867187 0 7-3.132813 7-7v-173.578125h42.800781v5.917968c0 3.867188 3.136719 7 7 7h23.808594c.292968 0 .585937-.019531.875-.054687l84.738281-10.660156 42.714844-5.378907 156.398437-19.691406c3.5-.441406 6.125-3.414062 6.125-6.941406v-105.257812c0-3.527344-2.625-6.503907-6.128906-6.941407zm-92.613281 2.449219v114.238281l-58.535157 7.367188-41.828124 5.269531v-139.515625l41.828124 5.269531zm-265.699219 9.503906h42.796875v95.230469h-42.796875zm42.796875-20.824218v6.824218h-42.796875v-6.824218zm-86.769531-44.625v-9.523438h42.339844v9.523438zm21.167968-73.070313c13.679688 0 24.769532 11.089844 24.769532 24.769531.003906 13.683594-11.085938 24.773438-24.769532 24.773438-13.679687.003906-24.769531-11.085938-24.773437-24.765625.015625-13.675781 11.097656-24.761719 24.773437-24.777344zm8.800782 435.148437h-17.601563v-348.078124h17.601563v348.082031zm14-180.578124v-6.820313h42.796875v6.824219zm56.789062 7.007812v-156.800781h9.808594v162.71875h-9.808594zm23.808594-155.863281 70.742188 8.910156v143.027344l-70.742188 8.90625zm269.84375 126.875-70.742188 8.902343v-110.714843l70.742188 8.90625zm0 0"/></svg>