<svg height="472pt" viewBox="0 -54 472.30665 472" width="472pt" xmlns="http://www.w3.org/2000/svg"><path d="m106.816406 172.003906h-43.601562c-10.671875 0-19.320313 8.648438-19.320313 19.316406-.003906 10.671876 8.648438 19.320313 19.316407 19.324219h.003906 43.601562c10.667969-.003906 19.316406-8.652343 19.316406-19.324219 0-10.667968-8.648437-19.316406-19.316406-19.316406zm0 24.640625h-43.601562c-2.9375 0-5.320313-2.382812-5.320313-5.320312 0-2.941407 2.382813-5.320313 5.320313-5.320313h43.601562c2.9375 0 5.316406 2.378906 5.316406 5.320313 0 2.9375-2.378906 5.320312-5.316406 5.320312zm0 0"/><path d="m386.695312 194.671875h-43.601562c-10.667969 0-19.320312 8.648437-19.320312 19.320313 0 10.667968 8.652343 19.320312 19.320312 19.320312h43.601562c10.667969 0 19.320313-8.652344 19.320313-19.320312 0-10.671876-8.652344-19.320313-19.320313-19.320313zm0 24.640625h-43.601562c-2.9375 0-5.320312-2.382812-5.320312-5.320312 0-2.941407 2.382812-5.320313 5.320312-5.320313h43.601562c2.9375 0 5.320313 2.378906 5.320313 5.320313 0 2.9375-2.382813 5.320312-5.320313 5.320312zm0 0"/><path d="m250.984375 68.695312c-39.183594.042969-70.933594 31.792969-70.976563 70.976563 0 10.667969 8.648438 19.320313 19.316407 19.320313 10.671875 0 19.320312-8.648438 19.324219-19.320313 0-17.859375 14.472656-32.332031 32.332031-32.332031 17.855469 0 32.332031 14.472656 32.332031 32.332031 0 17.855469-14.476562 32.328125-32.328125 32.332031h-94.316406c-10.671875 0-19.320313 8.648438-19.320313 19.320313 0 10.667969 8.648438 19.316406 19.320313 19.320312h94.316406c39.195313-.296875 70.734375-32.3125 70.441406-71.507812-.292969-38.78125-31.660156-70.152344-70.441406-70.441407zm0 127.949219h-94.316406c-2.9375 0-5.320313-2.382812-5.320313-5.320312 0-2.941407 2.382813-5.320313 5.320313-5.320313h94.316406c25.585937-.003906 46.328125-20.75 46.328125-46.335937-.003906-25.589844-20.75-46.332031-46.335938-46.328125-25.589843 0-46.328124 20.742187-46.328124 46.332031 0 2.9375-2.382813 5.320313-5.320313 5.320313-2.9375.003906-5.320313-2.378907-5.320313-5.316407v-.003906c-.003906-31.46875 25.503907-56.980469 56.972657-56.980469 31.464843-.003906 56.976562 25.503906 56.976562 56.972656.003907 31.464844-25.503906 56.976563-56.96875 56.980469-.003906 0-.003906 0-.003906 0zm0 0"/><path d="m386.105469 87.949219v-.003907c-8.621094-.007812-17.195313 1.289063-25.429688 3.839844-21.199219-68.582031-93.980469-107-162.566406-85.800781-50.480469 15.601563-86.492187 60.207031-91.101563 112.839844-6.894531-2.15625-14.074218-3.246094-21.296874-3.242188-39.910157-.066406-72.316407 32.234375-72.382813 72.144531-.019531 11.972657 2.933594 23.761719 8.597656 34.308594h-2.625c-10.667969.007813-19.3085935 8.667969-19.300781 19.335938.0078125 10.65625 8.644531 19.292968 19.300781 19.304687h65.710938c1.082031-.019531 2.160156-.128906 3.222656-.328125h188.710937c17.859376 0 32.332032 14.480469 32.328126 32.335938 0 17.855468-14.476563 32.328125-32.335938 32.328125-17.855469-.003907-32.328125-14.476563-32.328125-32.332031 0-10.671876-8.648437-19.320313-19.320313-19.320313-10.667968 0-19.316406 8.648437-19.316406 19.320313-.085937 39.199218 31.625 71.042968 70.820313 71.125 39.199219.085937 71.046875-31.625 71.128906-70.820313.023437-11.351563-2.671875-22.542969-7.867187-32.632813h46.050781c47.609375 0 86.203125-38.59375 86.203125-86.199218 0-47.609375-38.59375-86.203125-86.203125-86.203125zm-296.175781 155.34375c-.085938.179687-.183594.355469-.292969.523437-.195313.386719-.4375.746094-.722657 1.074219-.433593.433594-.929687.804687-1.464843 1.109375-.273438.140625-.5625.257812-.859375.351562-.511719.191407-1.050782.300782-1.597656.324219h-65.691407c-2.933593-.003906-5.3125-2.386719-5.316406-5.320312.003906-2.9375 2.382813-5.316407 5.316406-5.320313h65.710938c2.933593.003906 5.316406 2.382813 5.320312 5.320313-.011719.664062-.144531 1.324219-.402343 1.9375zm222.179687 94.261719c-10.035156 7.859374-22.417969 12.117187-35.164063 12.097656-31.457031-.03125-56.953124-25.519532-56.988281-56.976563.003907-2.9375 2.386719-5.320312 5.324219-5.320312 2.9375.003906 5.316406 2.382812 5.316406 5.320312 0 25.585938 20.746094 46.332031 46.332032 46.332031 25.589843 0 46.332031-20.746093 46.332031-46.332031 0-25.582031-20.734375-46.324219-46.316407-46.332031h-142.203124c-2.9375 0-5.320313-2.382812-5.320313-5.320312s2.382813-5.320313 5.320313-5.320313h142.203124c2.070313.003906 4.136719.121094 6.195313.351563.660156.070312 1.296875.203124 1.953125.300781 1.375.195312 2.738281.398437 4.082031.703125.753907.167968 1.492188.398437 2.234375.574218 1.21875.320313 2.4375.660157 3.628906 1.066407.742188.25 1.476563.527343 2.207032.800781 1.199218.453125 2.355468.941406 3.507812 1.472656.65625.304688 1.3125.617188 1.957032.945313 1.277343.652343 2.527343 1.355469 3.75 2.109375.457031.273437.921874.539062 1.367187.832031 5.328125 3.46875 10.042969 7.792969 13.960937 12.800781l.042969.039063c19.367188 24.734375 15.015625 60.488281-9.722656 79.855469zm96.203125-94.695313c-7.175781 2.316406-14.667969 3.496094-22.207031 3.492187v-.003906h-55.515625c-.046875-.058594-.105469-.105468-.15625-.164062-1.511719-1.742188-3.113282-3.40625-4.796875-4.992188-.402344-.367187-.800781-.714844-1.183594-1.074218-1.351563-1.222657-2.738281-2.398438-4.179687-3.515626-.636719-.5-1.285157-.980468-1.941407-1.453124-1.242187-.898438-2.507812-1.746094-3.804687-2.5625-.832032-.523438-1.664063-1.039063-2.511719-1.527344-1.199219-.679688-2.402344-1.308594-3.648437-1.917969-.960938-.476563-1.914063-.960937-2.886719-1.398437-1.203125-.535157-2.46875-1.003907-3.722657-1.476563-1.015624-.398437-2.023437-.796875-3.058593-1.117187-1.324219-.429688-2.683594-.765626-4.039063-1.117188-.996094-.257812-1.980468-.554688-2.992187-.773438-1.5625-.332031-3.15625-.546874-4.753907-.773437-.839843-.121094-1.664062-.296875-2.511718-.402344-2.484375-.261719-4.976563-.398437-7.476563-.398437h-142.183593c-10.570313-.101563-19.21875 8.386718-19.320313 18.957031-.011719 1.289063.105469 2.578125.351563 3.84375.058593.300781.125.597656.191406.898437.070312.300782.117187.644532.207031.953126h-12.484375c.066406-.261719.097656-.539063.15625-.800782.054688-.265625.085938-.445312.132812-.667968 2.03125-10.386719-4.742187-20.457032-15.128906-22.488282-1.261718-.246094-2.550781-.367187-3.835937-.355468h-46.6875c-7.179688-9.902344-11.023438-21.828126-10.976563-34.054688.027344-32.246094 26.15625-58.375 58.398438-58.402344 8.582031.003906 17.050781 1.914063 24.800781 5.601563 3.492187 1.65625 7.667969.167969 9.324219-3.324219.433594-.917969.664062-1.914062.675781-2.929688.6875-64.050781 53.167969-115.414062 117.21875-114.726562 52.960937.566406 98.804687 36.941406 111.40625 88.382812 9.753906 42.246094-9.425781 61.398438-10.183594 62.148438-2.824219 2.640625-2.976562 7.070312-.335937 9.894531s7.070312 2.972657 9.894531.332031c1.019531-.953124 23.84375-23.101562 15.40625-69.453124 37.933594-12.25 78.613281 8.570312 90.863281 46.503906s-8.570312 78.613281-46.503906 90.863281zm0 0"/></svg>